%TF.GenerationSoftware,KiCad,Pcbnew,6.0.11+dfsg-1*%
%TF.CreationDate,2023-05-20T19:05:26-05:00*%
%TF.ProjectId,watch,77617463-682e-46b6-9963-61645f706362,rev?*%
%TF.SameCoordinates,Original*%
%TF.FileFunction,Legend,Top*%
%TF.FilePolarity,Positive*%
%FSLAX46Y46*%
G04 Gerber Fmt 4.6, Leading zero omitted, Abs format (unit mm)*
G04 Created by KiCad (PCBNEW 6.0.11+dfsg-1) date 2023-05-20 19:05:26*
%MOMM*%
%LPD*%
G01*
G04 APERTURE LIST*
%ADD10C,0.150000*%
%ADD11C,0.120000*%
%ADD12C,0.152400*%
G04 APERTURE END LIST*
D10*
X37592142Y-44039285D02*
X37842142Y-44789285D01*
X38092142Y-44039285D01*
X38342142Y-44789285D02*
X38342142Y-44289285D01*
X38342142Y-44039285D02*
X38306428Y-44075000D01*
X38342142Y-44110714D01*
X38377857Y-44075000D01*
X38342142Y-44039285D01*
X38342142Y-44110714D01*
X38985000Y-44753571D02*
X38913571Y-44789285D01*
X38770714Y-44789285D01*
X38699285Y-44753571D01*
X38663571Y-44682142D01*
X38663571Y-44396428D01*
X38699285Y-44325000D01*
X38770714Y-44289285D01*
X38913571Y-44289285D01*
X38985000Y-44325000D01*
X39020714Y-44396428D01*
X39020714Y-44467857D01*
X38663571Y-44539285D01*
X39270714Y-44289285D02*
X39413571Y-44789285D01*
X39556428Y-44432142D01*
X39699285Y-44789285D01*
X39842142Y-44289285D01*
X30365000Y-44753571D02*
X30472142Y-44789285D01*
X30650714Y-44789285D01*
X30722142Y-44753571D01*
X30757857Y-44717857D01*
X30793571Y-44646428D01*
X30793571Y-44575000D01*
X30757857Y-44503571D01*
X30722142Y-44467857D01*
X30650714Y-44432142D01*
X30507857Y-44396428D01*
X30436428Y-44360714D01*
X30400714Y-44325000D01*
X30365000Y-44253571D01*
X30365000Y-44182142D01*
X30400714Y-44110714D01*
X30436428Y-44075000D01*
X30507857Y-44039285D01*
X30686428Y-44039285D01*
X30793571Y-44075000D01*
X31400714Y-44753571D02*
X31329285Y-44789285D01*
X31186428Y-44789285D01*
X31115000Y-44753571D01*
X31079285Y-44682142D01*
X31079285Y-44396428D01*
X31115000Y-44325000D01*
X31186428Y-44289285D01*
X31329285Y-44289285D01*
X31400714Y-44325000D01*
X31436428Y-44396428D01*
X31436428Y-44467857D01*
X31079285Y-44539285D01*
X31650714Y-44289285D02*
X31936428Y-44289285D01*
X31757857Y-44039285D02*
X31757857Y-44682142D01*
X31793571Y-44753571D01*
X31865000Y-44789285D01*
X31936428Y-44789285D01*
X25624285Y-38530000D02*
X26374285Y-38280000D01*
X25624285Y-38030000D01*
X26302857Y-37351428D02*
X26338571Y-37387142D01*
X26374285Y-37494285D01*
X26374285Y-37565714D01*
X26338571Y-37672857D01*
X26267142Y-37744285D01*
X26195714Y-37780000D01*
X26052857Y-37815714D01*
X25945714Y-37815714D01*
X25802857Y-37780000D01*
X25731428Y-37744285D01*
X25660000Y-37672857D01*
X25624285Y-37565714D01*
X25624285Y-37494285D01*
X25660000Y-37387142D01*
X25695714Y-37351428D01*
X26302857Y-36601428D02*
X26338571Y-36637142D01*
X26374285Y-36744285D01*
X26374285Y-36815714D01*
X26338571Y-36922857D01*
X26267142Y-36994285D01*
X26195714Y-37030000D01*
X26052857Y-37065714D01*
X25945714Y-37065714D01*
X25802857Y-37030000D01*
X25731428Y-36994285D01*
X25660000Y-36922857D01*
X25624285Y-36815714D01*
X25624285Y-36744285D01*
X25660000Y-36637142D01*
X25695714Y-36601428D01*
X25624285Y-32257857D02*
X26231428Y-32257857D01*
X26302857Y-32222142D01*
X26338571Y-32186428D01*
X26374285Y-32115000D01*
X26374285Y-31972142D01*
X26338571Y-31900714D01*
X26302857Y-31865000D01*
X26231428Y-31829285D01*
X25624285Y-31829285D01*
X26374285Y-31472142D02*
X25624285Y-31472142D01*
X25624285Y-31186428D01*
X25660000Y-31115000D01*
X25695714Y-31079285D01*
X25767142Y-31043571D01*
X25874285Y-31043571D01*
X25945714Y-31079285D01*
X25981428Y-31115000D01*
X26017142Y-31186428D01*
X26017142Y-31472142D01*
X26374285Y-30722142D02*
X25624285Y-30722142D01*
X25624285Y-30543571D01*
X25660000Y-30436428D01*
X25731428Y-30365000D01*
X25802857Y-30329285D01*
X25945714Y-30293571D01*
X26052857Y-30293571D01*
X26195714Y-30329285D01*
X26267142Y-30365000D01*
X26338571Y-30436428D01*
X26374285Y-30543571D01*
X26374285Y-30722142D01*
X26374285Y-29972142D02*
X25624285Y-29972142D01*
X25660000Y-34861428D02*
X25624285Y-34932857D01*
X25624285Y-35040000D01*
X25660000Y-35147142D01*
X25731428Y-35218571D01*
X25802857Y-35254285D01*
X25945714Y-35290000D01*
X26052857Y-35290000D01*
X26195714Y-35254285D01*
X26267142Y-35218571D01*
X26338571Y-35147142D01*
X26374285Y-35040000D01*
X26374285Y-34968571D01*
X26338571Y-34861428D01*
X26302857Y-34825714D01*
X26052857Y-34825714D01*
X26052857Y-34968571D01*
X26374285Y-34504285D02*
X25624285Y-34504285D01*
X26374285Y-34075714D01*
X25624285Y-34075714D01*
X26374285Y-33718571D02*
X25624285Y-33718571D01*
X25624285Y-33540000D01*
X25660000Y-33432857D01*
X25731428Y-33361428D01*
X25802857Y-33325714D01*
X25945714Y-33290000D01*
X26052857Y-33290000D01*
X26195714Y-33325714D01*
X26267142Y-33361428D01*
X26338571Y-33432857D01*
X26374285Y-33540000D01*
X26374285Y-33718571D01*
D11*
%TO.C,U1*%
X34925000Y-27960000D02*
X32975000Y-27960000D01*
X34925000Y-22840000D02*
X32975000Y-22840000D01*
X34925000Y-27960000D02*
X38375000Y-27960000D01*
X34925000Y-22840000D02*
X36875000Y-22840000D01*
D12*
%TO.C,SW2*%
X37821459Y-43484800D02*
X39648541Y-43484800D01*
X40614600Y-42292460D02*
X40614600Y-41527540D01*
X39648541Y-40335200D02*
X37821459Y-40335200D01*
X36855400Y-41527540D02*
X36855400Y-42292460D01*
X39636700Y-41910000D02*
G75*
G03*
X39636700Y-41910000I-901700J0D01*
G01*
%TO.C,SW1*%
X32016700Y-41910000D02*
G75*
G03*
X32016700Y-41910000I-901700J0D01*
G01*
X29235400Y-41527540D02*
X29235400Y-42292460D01*
X32028541Y-40335200D02*
X30201459Y-40335200D01*
X32994600Y-42292460D02*
X32994600Y-41527540D01*
X30201459Y-43484800D02*
X32028541Y-43484800D01*
D11*
%TO.C,R7*%
X28687500Y-26272258D02*
X28687500Y-25797742D01*
X29732500Y-26272258D02*
X29732500Y-25797742D01*
%TO.C,R6*%
X34402500Y-44212742D02*
X34402500Y-44687258D01*
X35447500Y-44212742D02*
X35447500Y-44687258D01*
%TO.C,R5*%
X34402500Y-40847742D02*
X34402500Y-41322258D01*
X35447500Y-40847742D02*
X35447500Y-41322258D01*
%TO.C,R4*%
X28972742Y-31002500D02*
X29447258Y-31002500D01*
X28972742Y-29957500D02*
X29447258Y-29957500D01*
%TO.C,R3*%
X36592742Y-29957500D02*
X37067258Y-29957500D01*
X36592742Y-31002500D02*
X37067258Y-31002500D01*
%TO.C,R2*%
X28972742Y-33542500D02*
X29447258Y-33542500D01*
X28972742Y-32497500D02*
X29447258Y-32497500D01*
%TO.C,R1*%
X28972742Y-36082500D02*
X29447258Y-36082500D01*
X28972742Y-35037500D02*
X29447258Y-35037500D01*
%TO.C,TP3*%
X23430000Y-37530000D02*
X23430000Y-36130000D01*
X24830000Y-36130000D02*
X24830000Y-37530000D01*
X23430000Y-36130000D02*
X24830000Y-36130000D01*
X24830000Y-37530000D02*
X23430000Y-37530000D01*
%TO.C,TP2*%
X23430000Y-34990000D02*
X23430000Y-33590000D01*
X24830000Y-33590000D02*
X24830000Y-34990000D01*
X23430000Y-33590000D02*
X24830000Y-33590000D01*
X24830000Y-34990000D02*
X23430000Y-34990000D01*
%TO.C,TP1*%
X24830000Y-31750000D02*
G75*
G03*
X24830000Y-31750000I-700000J0D01*
G01*
%TO.C,D12*%
X42125000Y-34825000D02*
X39840000Y-34825000D01*
X42125000Y-36295000D02*
X42125000Y-34825000D01*
X39840000Y-36295000D02*
X42125000Y-36295000D01*
%TO.C,D11*%
X39155000Y-33755000D02*
X41440000Y-33755000D01*
X39155000Y-32285000D02*
X39155000Y-33755000D01*
X41440000Y-32285000D02*
X39155000Y-32285000D01*
%TO.C,D10*%
X34505000Y-37365000D02*
X32220000Y-37365000D01*
X34505000Y-38835000D02*
X34505000Y-37365000D01*
X32220000Y-38835000D02*
X34505000Y-38835000D01*
%TO.C,D9*%
X30695000Y-37365000D02*
X28410000Y-37365000D01*
X30695000Y-38835000D02*
X30695000Y-37365000D01*
X28410000Y-38835000D02*
X30695000Y-38835000D01*
%TO.C,D8*%
X31535000Y-36295000D02*
X33820000Y-36295000D01*
X31535000Y-34825000D02*
X31535000Y-36295000D01*
X33820000Y-34825000D02*
X31535000Y-34825000D01*
%TO.C,D7*%
X39155000Y-31215000D02*
X41440000Y-31215000D01*
X39155000Y-29745000D02*
X39155000Y-31215000D01*
X41440000Y-29745000D02*
X39155000Y-29745000D01*
%TO.C,D6*%
X35345000Y-33755000D02*
X37630000Y-33755000D01*
X35345000Y-32285000D02*
X35345000Y-33755000D01*
X37630000Y-32285000D02*
X35345000Y-32285000D01*
%TO.C,D5*%
X31535000Y-31215000D02*
X33820000Y-31215000D01*
X31535000Y-29745000D02*
X31535000Y-31215000D01*
X33820000Y-29745000D02*
X31535000Y-29745000D01*
%TO.C,D4*%
X38315000Y-34825000D02*
X36030000Y-34825000D01*
X38315000Y-36295000D02*
X38315000Y-34825000D01*
X36030000Y-36295000D02*
X38315000Y-36295000D01*
%TO.C,D3*%
X34505000Y-32285000D02*
X32220000Y-32285000D01*
X34505000Y-33755000D02*
X34505000Y-32285000D01*
X32220000Y-33755000D02*
X34505000Y-33755000D01*
%TO.C,D2*%
X42125000Y-37365000D02*
X39840000Y-37365000D01*
X42125000Y-38835000D02*
X42125000Y-37365000D01*
X39840000Y-38835000D02*
X42125000Y-38835000D01*
%TO.C,D1*%
X38315000Y-37365000D02*
X36030000Y-37365000D01*
X38315000Y-38835000D02*
X38315000Y-37365000D01*
X36030000Y-38835000D02*
X38315000Y-38835000D01*
%TD*%
M02*
