%TF.GenerationSoftware,KiCad,Pcbnew,6.0.11+dfsg-1*%
%TF.CreationDate,2023-05-20T19:05:26-05:00*%
%TF.ProjectId,watch,77617463-682e-46b6-9963-61645f706362,rev?*%
%TF.SameCoordinates,Original*%
%TF.FileFunction,Copper,L2,Bot*%
%TF.FilePolarity,Positive*%
%FSLAX46Y46*%
G04 Gerber Fmt 4.6, Leading zero omitted, Abs format (unit mm)*
G04 Created by KiCad (PCBNEW 6.0.11+dfsg-1) date 2023-05-20 19:05:26*
%MOMM*%
%LPD*%
G01*
G04 APERTURE LIST*
%TA.AperFunction,SMDPad,CuDef*%
%ADD10R,2.500000X5.100000*%
%TD*%
%TA.AperFunction,SMDPad,CuDef*%
%ADD11C,10.200000*%
%TD*%
%TA.AperFunction,ViaPad*%
%ADD12C,0.600000*%
%TD*%
%TA.AperFunction,Conductor*%
%ADD13C,0.200000*%
%TD*%
%TA.AperFunction,Conductor*%
%ADD14C,0.250000*%
%TD*%
G04 APERTURE END LIST*
D10*
%TO.P,BT1,1*%
%TO.N,+3.3V*%
X42575000Y-34240000D03*
%TO.P,BT1,2*%
X27275000Y-34240000D03*
D11*
%TO.P,BT1,3*%
%TO.N,GND*%
X34925000Y-34290000D03*
%TD*%
D12*
%TO.N,Net-(U1-Pad6)*%
X30480000Y-24130000D03*
X34290000Y-24765000D03*
%TO.N,GND*%
X34290000Y-26035000D03*
%TO.N,Net-(D1-Pad2)*%
X31115000Y-38735000D03*
X38100000Y-39370000D03*
X40640000Y-39370000D03*
%TO.N,+3.3V*%
X42545000Y-28575000D03*
%TO.N,Net-(D2-Pad2)*%
X36195000Y-28575000D03*
X34925000Y-28575000D03*
%TO.N,GND*%
X26670000Y-38100000D03*
%TO.N,+3.3V*%
X24765000Y-38100000D03*
X35560000Y-42545000D03*
%TD*%
D13*
%TO.N,Net-(D1-Pad2)*%
X31115000Y-38735000D02*
X32385000Y-40005000D01*
X32385000Y-40005000D02*
X37465000Y-40005000D01*
X37465000Y-40005000D02*
X38100000Y-39370000D01*
%TO.N,GND*%
X34290000Y-26035000D02*
X33655000Y-26670000D01*
X33655000Y-26670000D02*
X33655000Y-33020000D01*
X33655000Y-33020000D02*
X34925000Y-34290000D01*
D14*
%TO.N,Net-(D2-Pad2)*%
X34925000Y-28575000D02*
X36195000Y-28575000D01*
D13*
%TO.N,GND*%
X26670000Y-38100000D02*
X31115000Y-38100000D01*
X31115000Y-38100000D02*
X34925000Y-34290000D01*
%TO.N,+3.3V*%
X24765000Y-38100000D02*
X24765000Y-36750000D01*
X24765000Y-36750000D02*
X27275000Y-34240000D01*
%TO.N,Net-(U1-Pad6)*%
X30480000Y-24130000D02*
X33655000Y-24130000D01*
X33655000Y-24130000D02*
X34290000Y-24765000D01*
%TO.N,+3.3V*%
X42575000Y-38705000D02*
X42575000Y-34240000D01*
X35560000Y-42545000D02*
X29210000Y-42545000D01*
X35560000Y-42545000D02*
X38735000Y-42545000D01*
X29210000Y-42545000D02*
X24765000Y-38100000D01*
X38735000Y-42545000D02*
X42575000Y-38705000D01*
X42545000Y-28575000D02*
X42575000Y-28605000D01*
X42575000Y-28605000D02*
X42575000Y-34240000D01*
%TO.N,Net-(D1-Pad2)*%
X38100000Y-39370000D02*
X40640000Y-39370000D01*
%TD*%
%TA.AperFunction,Conductor*%
%TO.N,GND*%
G36*
X35013627Y-22098920D02*
G01*
X35350312Y-22110677D01*
X35687005Y-22122435D01*
X35694010Y-22122875D01*
X36365017Y-22183942D01*
X36372003Y-22184775D01*
X37038551Y-22283202D01*
X37045481Y-22284424D01*
X37705481Y-22419903D01*
X37712331Y-22421509D01*
X38363769Y-22593627D01*
X38370519Y-22595614D01*
X39011303Y-22803817D01*
X39017932Y-22806177D01*
X39646123Y-23049836D01*
X39652609Y-23052563D01*
X39989470Y-23205369D01*
X40266204Y-23330901D01*
X40272503Y-23333973D01*
X40772406Y-23595316D01*
X40869627Y-23646142D01*
X40875753Y-23649565D01*
X41391465Y-23956992D01*
X41454506Y-23994572D01*
X41460446Y-23998342D01*
X42019036Y-24375115D01*
X42024754Y-24379209D01*
X42538221Y-24768951D01*
X42561434Y-24786571D01*
X42566915Y-24790977D01*
X43080033Y-25227675D01*
X43085244Y-25232367D01*
X43573195Y-25697036D01*
X43578135Y-25702011D01*
X44039378Y-26193186D01*
X44044033Y-26198429D01*
X44365849Y-26581954D01*
X44477140Y-26714585D01*
X44481510Y-26720099D01*
X44885115Y-27259609D01*
X44889171Y-27265359D01*
X45231340Y-27780364D01*
X45262027Y-27826552D01*
X45265751Y-27832511D01*
X45491605Y-28217469D01*
X45606710Y-28413661D01*
X45610100Y-28419827D01*
X45918082Y-29019097D01*
X45921122Y-29025442D01*
X46195173Y-29640969D01*
X46197854Y-29647474D01*
X46437115Y-30277332D01*
X46439429Y-30283977D01*
X46643161Y-30926221D01*
X46645088Y-30932938D01*
X46812666Y-31585614D01*
X46814215Y-31592437D01*
X46913268Y-32092683D01*
X46945086Y-32253377D01*
X46946260Y-32260315D01*
X47040033Y-32927548D01*
X47040817Y-32934541D01*
X47097196Y-33605941D01*
X47097589Y-33612966D01*
X47116426Y-34287358D01*
X47116463Y-34292635D01*
X47111784Y-34627763D01*
X47111600Y-34633038D01*
X47073939Y-35306649D01*
X47073350Y-35313660D01*
X46998246Y-35983226D01*
X46997267Y-35990192D01*
X46897563Y-36579684D01*
X46884901Y-36654544D01*
X46883535Y-36661443D01*
X46771797Y-37153261D01*
X46734261Y-37318475D01*
X46732511Y-37325290D01*
X46546792Y-37972966D01*
X46544664Y-37979673D01*
X46502442Y-38100918D01*
X46328126Y-38601488D01*
X46323089Y-38615951D01*
X46320594Y-38622521D01*
X46072105Y-39225401D01*
X46063830Y-39245477D01*
X46060971Y-39251899D01*
X45909999Y-39567003D01*
X45769842Y-39859533D01*
X45766631Y-39865781D01*
X45687117Y-40010417D01*
X45442028Y-40456231D01*
X45438467Y-40462300D01*
X45081419Y-41033696D01*
X45077525Y-41039556D01*
X44689150Y-41590114D01*
X44684935Y-41595749D01*
X44266423Y-42123779D01*
X44261901Y-42129169D01*
X43814553Y-42633029D01*
X43809736Y-42638158D01*
X43334969Y-43116251D01*
X43329879Y-43121099D01*
X42829153Y-43571953D01*
X42823831Y-43576483D01*
X42687765Y-43685883D01*
X42298716Y-43998686D01*
X42293112Y-44002940D01*
X41745232Y-44395184D01*
X41739432Y-44399096D01*
X41170543Y-44760124D01*
X41164502Y-44763725D01*
X41013444Y-44848149D01*
X40576352Y-45092431D01*
X40570123Y-45095688D01*
X40212265Y-45270227D01*
X39964529Y-45391056D01*
X39958127Y-45393960D01*
X39713687Y-45496713D01*
X39336983Y-45655065D01*
X39330423Y-45657609D01*
X39163991Y-45716873D01*
X38695696Y-45883626D01*
X38689026Y-45885793D01*
X38413651Y-45966840D01*
X38042636Y-46076035D01*
X38035833Y-46077832D01*
X37379872Y-46231687D01*
X37372980Y-46233102D01*
X37188931Y-46265555D01*
X36709421Y-46350106D01*
X36702495Y-46351128D01*
X36033425Y-46430910D01*
X36026427Y-46431546D01*
X35353978Y-46473853D01*
X35346983Y-46474097D01*
X34972583Y-46476711D01*
X34673205Y-46478801D01*
X34666171Y-46478654D01*
X34214714Y-46456575D01*
X33993186Y-46445740D01*
X33986184Y-46445202D01*
X33316089Y-46374771D01*
X33309114Y-46373840D01*
X32644025Y-46266119D01*
X32637113Y-46264801D01*
X32354251Y-46202610D01*
X31979018Y-46120110D01*
X31972219Y-46118413D01*
X31323278Y-45937226D01*
X31316556Y-45935146D01*
X30678704Y-45718003D01*
X30672110Y-45715550D01*
X30337616Y-45580406D01*
X30047401Y-45463152D01*
X30040969Y-45460342D01*
X29431320Y-45173463D01*
X29425041Y-45170292D01*
X28832343Y-44849821D01*
X28826250Y-44846303D01*
X28252381Y-44493256D01*
X28246493Y-44489403D01*
X27693214Y-44104864D01*
X27687551Y-44100688D01*
X27156624Y-43685883D01*
X27151202Y-43681398D01*
X26755828Y-43335275D01*
X26644247Y-43237593D01*
X26639086Y-43232815D01*
X26589188Y-43183951D01*
X26157656Y-42761363D01*
X26152817Y-42756352D01*
X25698464Y-42258771D01*
X25693877Y-42253457D01*
X25268023Y-41731309D01*
X25263730Y-41725734D01*
X24867694Y-41180637D01*
X24863719Y-41174831D01*
X24505349Y-40618750D01*
X24498728Y-40608476D01*
X24495099Y-40602485D01*
X24162282Y-40016622D01*
X24158982Y-40010417D01*
X24158255Y-40008951D01*
X23859392Y-39406894D01*
X23856443Y-39400512D01*
X23591012Y-38781215D01*
X23588425Y-38774680D01*
X23572440Y-38730760D01*
X23357981Y-38141540D01*
X23355760Y-38134863D01*
X23341804Y-38088640D01*
X23951463Y-38088640D01*
X23969163Y-38269160D01*
X24026418Y-38441273D01*
X24030065Y-38447295D01*
X24030066Y-38447297D01*
X24110581Y-38580243D01*
X24120380Y-38596424D01*
X24125269Y-38601487D01*
X24125270Y-38601488D01*
X24145589Y-38622529D01*
X24246382Y-38726902D01*
X24398159Y-38826222D01*
X24404763Y-38828678D01*
X24404765Y-38828679D01*
X24561558Y-38886990D01*
X24561560Y-38886990D01*
X24568168Y-38889448D01*
X24575153Y-38890380D01*
X24575157Y-38890381D01*
X24625897Y-38897151D01*
X24670986Y-38903167D01*
X24735862Y-38932003D01*
X24743416Y-38938965D01*
X28745685Y-42941234D01*
X28756552Y-42953625D01*
X28776013Y-42978987D01*
X28782563Y-42984013D01*
X28807921Y-43003471D01*
X28807928Y-43003477D01*
X28857382Y-43041424D01*
X28903125Y-43076524D01*
X29051150Y-43137838D01*
X29170115Y-43153500D01*
X29170120Y-43153500D01*
X29170129Y-43153501D01*
X29201812Y-43157672D01*
X29210000Y-43158750D01*
X29241693Y-43154578D01*
X29258136Y-43153500D01*
X34975699Y-43153500D01*
X35044692Y-43174068D01*
X35141772Y-43237595D01*
X35193159Y-43271222D01*
X35199763Y-43273678D01*
X35199765Y-43273679D01*
X35356558Y-43331990D01*
X35356560Y-43331990D01*
X35363168Y-43334448D01*
X35446995Y-43345633D01*
X35535980Y-43357507D01*
X35535984Y-43357507D01*
X35542961Y-43358438D01*
X35549972Y-43357800D01*
X35549976Y-43357800D01*
X35692459Y-43344832D01*
X35723600Y-43341998D01*
X35730302Y-43339820D01*
X35730304Y-43339820D01*
X35889409Y-43288124D01*
X35889412Y-43288123D01*
X35896108Y-43285947D01*
X36051912Y-43193069D01*
X36057013Y-43188212D01*
X36062626Y-43183951D01*
X36063385Y-43184952D01*
X36120090Y-43155762D01*
X36143860Y-43153500D01*
X38686864Y-43153500D01*
X38703307Y-43154578D01*
X38735000Y-43158750D01*
X38743189Y-43157672D01*
X38774874Y-43153501D01*
X38774884Y-43153500D01*
X38774885Y-43153500D01*
X38774901Y-43153498D01*
X38874457Y-43140391D01*
X38885664Y-43138916D01*
X38885666Y-43138915D01*
X38893851Y-43137838D01*
X39041876Y-43076524D01*
X39137072Y-43003477D01*
X39137075Y-43003474D01*
X39168987Y-42978987D01*
X39174017Y-42972432D01*
X39188452Y-42953621D01*
X39199319Y-42941230D01*
X42971234Y-39169315D01*
X42983625Y-39158448D01*
X43002437Y-39144013D01*
X43008987Y-39138987D01*
X43033474Y-39107075D01*
X43033480Y-39107069D01*
X43101496Y-39018429D01*
X43101497Y-39018427D01*
X43106524Y-39011876D01*
X43167838Y-38863851D01*
X43173431Y-38821368D01*
X43183500Y-38744885D01*
X43183500Y-38744880D01*
X43188750Y-38705000D01*
X43184578Y-38673307D01*
X43183500Y-38656864D01*
X43183500Y-37424500D01*
X43203502Y-37356379D01*
X43257158Y-37309886D01*
X43309500Y-37298500D01*
X43873134Y-37298500D01*
X43935316Y-37291745D01*
X44071705Y-37240615D01*
X44188261Y-37153261D01*
X44275615Y-37036705D01*
X44326745Y-36900316D01*
X44333500Y-36838134D01*
X44333500Y-31641866D01*
X44326745Y-31579684D01*
X44275615Y-31443295D01*
X44188261Y-31326739D01*
X44071705Y-31239385D01*
X43935316Y-31188255D01*
X43873134Y-31181500D01*
X43309500Y-31181500D01*
X43241379Y-31161498D01*
X43194886Y-31107842D01*
X43183500Y-31055500D01*
X43183500Y-29113094D01*
X43204552Y-29043367D01*
X43264742Y-28952773D01*
X43268643Y-28946902D01*
X43333055Y-28777338D01*
X43334035Y-28770366D01*
X43357748Y-28601639D01*
X43357748Y-28601636D01*
X43358299Y-28597717D01*
X43358616Y-28575000D01*
X43338397Y-28394745D01*
X43336080Y-28388091D01*
X43281064Y-28230106D01*
X43281062Y-28230103D01*
X43278745Y-28223448D01*
X43182626Y-28069624D01*
X43168941Y-28055843D01*
X43059778Y-27945915D01*
X43059774Y-27945912D01*
X43054815Y-27940918D01*
X43043697Y-27933862D01*
X42995538Y-27903300D01*
X42901666Y-27843727D01*
X42853433Y-27826552D01*
X42737425Y-27785243D01*
X42737420Y-27785242D01*
X42730790Y-27782881D01*
X42723802Y-27782048D01*
X42723799Y-27782047D01*
X42600698Y-27767368D01*
X42550680Y-27761404D01*
X42543677Y-27762140D01*
X42543676Y-27762140D01*
X42377288Y-27779628D01*
X42377286Y-27779629D01*
X42370288Y-27780364D01*
X42198579Y-27838818D01*
X42192575Y-27842512D01*
X42050095Y-27930166D01*
X42050092Y-27930168D01*
X42044088Y-27933862D01*
X42039053Y-27938793D01*
X42039050Y-27938795D01*
X41919525Y-28055843D01*
X41914493Y-28060771D01*
X41816235Y-28213238D01*
X41813826Y-28219858D01*
X41813824Y-28219861D01*
X41796264Y-28268108D01*
X41754197Y-28383685D01*
X41731463Y-28563640D01*
X41749163Y-28744160D01*
X41806418Y-28916273D01*
X41810065Y-28922295D01*
X41810066Y-28922297D01*
X41872533Y-29025442D01*
X41900380Y-29071424D01*
X41920357Y-29092111D01*
X41931137Y-29103274D01*
X41964069Y-29166171D01*
X41966500Y-29190801D01*
X41966500Y-31055500D01*
X41946498Y-31123621D01*
X41892842Y-31170114D01*
X41840500Y-31181500D01*
X41276866Y-31181500D01*
X41214684Y-31188255D01*
X41078295Y-31239385D01*
X40961739Y-31326739D01*
X40874385Y-31443295D01*
X40823255Y-31579684D01*
X40816500Y-31641866D01*
X40816500Y-36838134D01*
X40823255Y-36900316D01*
X40874385Y-37036705D01*
X40961739Y-37153261D01*
X41078295Y-37240615D01*
X41214684Y-37291745D01*
X41276866Y-37298500D01*
X41840500Y-37298500D01*
X41908621Y-37318502D01*
X41955114Y-37372158D01*
X41966500Y-37424500D01*
X41966500Y-38400761D01*
X41946498Y-38468882D01*
X41929595Y-38489856D01*
X41496236Y-38923215D01*
X41433924Y-38957241D01*
X41363109Y-38952176D01*
X41306273Y-38909629D01*
X41300287Y-38900890D01*
X41297951Y-38897151D01*
X41277626Y-38864624D01*
X41268835Y-38855771D01*
X41154778Y-38740915D01*
X41154774Y-38740912D01*
X41149815Y-38735918D01*
X41141688Y-38730760D01*
X41051160Y-38673310D01*
X40996666Y-38638727D01*
X40942072Y-38619287D01*
X40832425Y-38580243D01*
X40832420Y-38580242D01*
X40825790Y-38577881D01*
X40818802Y-38577048D01*
X40818799Y-38577047D01*
X40690462Y-38561744D01*
X40645680Y-38556404D01*
X40638677Y-38557140D01*
X40638676Y-38557140D01*
X40472288Y-38574628D01*
X40472286Y-38574629D01*
X40465288Y-38575364D01*
X40293579Y-38633818D01*
X40139088Y-38728862D01*
X40134054Y-38733791D01*
X40132776Y-38734790D01*
X40066782Y-38760967D01*
X40055204Y-38761500D01*
X38684751Y-38761500D01*
X38616630Y-38741498D01*
X38612157Y-38738276D01*
X38609815Y-38735918D01*
X38601688Y-38730760D01*
X38511160Y-38673310D01*
X38456666Y-38638727D01*
X38402072Y-38619287D01*
X38292425Y-38580243D01*
X38292420Y-38580242D01*
X38285790Y-38577881D01*
X38278802Y-38577048D01*
X38278799Y-38577047D01*
X38150462Y-38561744D01*
X38105680Y-38556404D01*
X38098677Y-38557140D01*
X38098676Y-38557140D01*
X37932288Y-38574628D01*
X37932286Y-38574629D01*
X37925288Y-38575364D01*
X37753579Y-38633818D01*
X37702699Y-38665120D01*
X37605095Y-38725166D01*
X37605092Y-38725168D01*
X37599088Y-38728862D01*
X37594053Y-38733793D01*
X37594050Y-38733795D01*
X37504624Y-38821368D01*
X37469493Y-38855771D01*
X37371235Y-39008238D01*
X37368826Y-39014858D01*
X37368824Y-39014861D01*
X37316563Y-39158448D01*
X37309197Y-39178685D01*
X37308314Y-39185675D01*
X37297025Y-39275034D01*
X37268643Y-39340111D01*
X37261114Y-39348337D01*
X37249856Y-39359595D01*
X37187544Y-39393621D01*
X37160761Y-39396500D01*
X32689239Y-39396500D01*
X32621118Y-39376498D01*
X32600144Y-39359595D01*
X31953888Y-38713339D01*
X31919862Y-38651027D01*
X31917768Y-38638289D01*
X31909182Y-38561744D01*
X31908397Y-38554745D01*
X31906080Y-38548091D01*
X31851064Y-38390106D01*
X31851062Y-38390103D01*
X31848745Y-38383448D01*
X31752626Y-38229624D01*
X31661873Y-38138235D01*
X31629778Y-38105915D01*
X31629774Y-38105912D01*
X31624815Y-38100918D01*
X31613697Y-38093862D01*
X31540069Y-38047137D01*
X31471666Y-38003727D01*
X31442463Y-37993328D01*
X31307425Y-37945243D01*
X31307420Y-37945242D01*
X31300790Y-37942881D01*
X31293802Y-37942048D01*
X31293799Y-37942047D01*
X31165462Y-37926744D01*
X31120680Y-37921404D01*
X31113677Y-37922140D01*
X31113676Y-37922140D01*
X30947288Y-37939628D01*
X30947286Y-37939629D01*
X30940288Y-37940364D01*
X30768579Y-37998818D01*
X30706109Y-38037250D01*
X30620095Y-38090166D01*
X30620092Y-38090168D01*
X30614088Y-38093862D01*
X30609053Y-38098793D01*
X30609050Y-38098795D01*
X30489525Y-38215843D01*
X30484493Y-38220771D01*
X30386235Y-38373238D01*
X30383826Y-38379858D01*
X30383824Y-38379861D01*
X30354352Y-38460834D01*
X30324197Y-38543685D01*
X30301463Y-38723640D01*
X30319163Y-38904160D01*
X30376418Y-39076273D01*
X30380065Y-39082295D01*
X30380066Y-39082297D01*
X30442674Y-39185675D01*
X30470380Y-39231424D01*
X30596382Y-39361902D01*
X30748159Y-39461222D01*
X30754763Y-39463678D01*
X30754765Y-39463679D01*
X30911558Y-39521990D01*
X30911560Y-39521990D01*
X30918168Y-39524448D01*
X30925153Y-39525380D01*
X30925157Y-39525381D01*
X30987547Y-39533706D01*
X31020986Y-39538167D01*
X31085862Y-39567003D01*
X31093416Y-39573965D01*
X31920685Y-40401234D01*
X31931552Y-40413625D01*
X31951013Y-40438987D01*
X31982925Y-40463474D01*
X31982928Y-40463477D01*
X32078124Y-40536524D01*
X32121216Y-40554373D01*
X32226150Y-40597838D01*
X32345115Y-40613500D01*
X32345120Y-40613500D01*
X32345129Y-40613501D01*
X32376812Y-40617672D01*
X32385000Y-40618750D01*
X32416693Y-40614578D01*
X32433136Y-40613500D01*
X37416864Y-40613500D01*
X37433307Y-40614578D01*
X37465000Y-40618750D01*
X37473189Y-40617672D01*
X37504874Y-40613501D01*
X37504884Y-40613500D01*
X37504885Y-40613500D01*
X37504901Y-40613498D01*
X37604457Y-40600391D01*
X37615664Y-40598916D01*
X37615666Y-40598915D01*
X37623851Y-40597838D01*
X37771876Y-40536524D01*
X37867072Y-40463477D01*
X37867075Y-40463474D01*
X37898987Y-40438987D01*
X37904017Y-40432432D01*
X37918452Y-40413621D01*
X37929319Y-40401230D01*
X38121282Y-40209267D01*
X38183594Y-40175241D01*
X38198955Y-40172881D01*
X38263600Y-40166998D01*
X38270302Y-40164820D01*
X38270304Y-40164820D01*
X38429409Y-40113124D01*
X38429412Y-40113123D01*
X38436108Y-40110947D01*
X38591912Y-40018069D01*
X38597013Y-40013212D01*
X38602626Y-40008951D01*
X38603385Y-40009952D01*
X38660090Y-39980762D01*
X38683860Y-39978500D01*
X40055699Y-39978500D01*
X40124691Y-39999067D01*
X40146843Y-40013563D01*
X40173691Y-40031132D01*
X40219739Y-40085170D01*
X40229262Y-40155525D01*
X40199237Y-40219860D01*
X40193792Y-40225659D01*
X38519856Y-41899595D01*
X38457544Y-41933621D01*
X38430761Y-41936500D01*
X36144751Y-41936500D01*
X36076630Y-41916498D01*
X36072157Y-41913276D01*
X36069815Y-41910918D01*
X36058697Y-41903862D01*
X36010538Y-41873300D01*
X35916666Y-41813727D01*
X35887463Y-41803328D01*
X35752425Y-41755243D01*
X35752420Y-41755242D01*
X35745790Y-41752881D01*
X35738802Y-41752048D01*
X35738799Y-41752047D01*
X35615698Y-41737368D01*
X35565680Y-41731404D01*
X35558677Y-41732140D01*
X35558676Y-41732140D01*
X35392288Y-41749628D01*
X35392286Y-41749629D01*
X35385288Y-41750364D01*
X35213579Y-41808818D01*
X35059088Y-41903862D01*
X35054054Y-41908791D01*
X35052776Y-41909790D01*
X34986782Y-41935967D01*
X34975204Y-41936500D01*
X29514239Y-41936500D01*
X29446118Y-41916498D01*
X29425144Y-41899595D01*
X25603888Y-38078339D01*
X25569862Y-38016027D01*
X25567768Y-38003289D01*
X25559182Y-37926744D01*
X25558397Y-37919745D01*
X25554991Y-37909965D01*
X25501064Y-37755106D01*
X25501062Y-37755103D01*
X25498745Y-37748448D01*
X25402626Y-37594624D01*
X25400215Y-37592196D01*
X25374117Y-37527716D01*
X25373500Y-37515263D01*
X25373500Y-37146883D01*
X25393502Y-37078762D01*
X25447158Y-37032269D01*
X25517432Y-37022165D01*
X25582012Y-37051659D01*
X25600326Y-37071318D01*
X25661739Y-37153261D01*
X25778295Y-37240615D01*
X25914684Y-37291745D01*
X25976866Y-37298500D01*
X28573134Y-37298500D01*
X28635316Y-37291745D01*
X28771705Y-37240615D01*
X28888261Y-37153261D01*
X28975615Y-37036705D01*
X29026745Y-36900316D01*
X29033500Y-36838134D01*
X29033500Y-31641866D01*
X29026745Y-31579684D01*
X28975615Y-31443295D01*
X28888261Y-31326739D01*
X28771705Y-31239385D01*
X28635316Y-31188255D01*
X28573134Y-31181500D01*
X25976866Y-31181500D01*
X25914684Y-31188255D01*
X25778295Y-31239385D01*
X25661739Y-31326739D01*
X25574385Y-31443295D01*
X25523255Y-31579684D01*
X25516500Y-31641866D01*
X25516500Y-35085761D01*
X25496498Y-35153882D01*
X25479595Y-35174856D01*
X24368766Y-36285685D01*
X24356375Y-36296552D01*
X24331013Y-36316013D01*
X24306526Y-36347925D01*
X24306523Y-36347928D01*
X24233476Y-36443124D01*
X24172162Y-36591149D01*
X24172162Y-36591150D01*
X24156500Y-36710115D01*
X24156500Y-36710120D01*
X24151250Y-36750000D01*
X24152328Y-36758188D01*
X24155422Y-36781690D01*
X24156500Y-36798136D01*
X24156500Y-37515164D01*
X24136498Y-37583285D01*
X24135188Y-37585090D01*
X24134493Y-37585771D01*
X24132894Y-37588253D01*
X24132892Y-37588255D01*
X24124934Y-37600603D01*
X24036235Y-37738238D01*
X24033826Y-37744858D01*
X24033824Y-37744861D01*
X24022239Y-37776691D01*
X23974197Y-37908685D01*
X23951463Y-38088640D01*
X23341804Y-38088640D01*
X23292925Y-37926744D01*
X23161016Y-37489840D01*
X23159174Y-37483062D01*
X23128527Y-37356379D01*
X23062231Y-37082344D01*
X23000742Y-36828176D01*
X22999279Y-36821294D01*
X22877648Y-36158583D01*
X22876572Y-36151629D01*
X22792127Y-35483180D01*
X22791440Y-35476177D01*
X22744440Y-34804044D01*
X22744145Y-34797014D01*
X22734737Y-34123285D01*
X22734836Y-34116250D01*
X22763050Y-33443095D01*
X22763540Y-33436075D01*
X22829291Y-32765500D01*
X22830173Y-32758520D01*
X22933249Y-32092683D01*
X22934519Y-32085762D01*
X23074607Y-31426700D01*
X23076262Y-31419861D01*
X23146458Y-31161498D01*
X23252921Y-30769647D01*
X23254951Y-30762925D01*
X23467623Y-30123610D01*
X23470029Y-30116998D01*
X23718068Y-29490526D01*
X23720840Y-29484059D01*
X24003455Y-28872423D01*
X24006584Y-28866121D01*
X24167416Y-28563640D01*
X34111463Y-28563640D01*
X34129163Y-28744160D01*
X34186418Y-28916273D01*
X34190065Y-28922295D01*
X34190066Y-28922297D01*
X34252533Y-29025442D01*
X34280380Y-29071424D01*
X34285269Y-29076487D01*
X34285270Y-29076488D01*
X34346500Y-29139893D01*
X34406382Y-29201902D01*
X34558159Y-29301222D01*
X34564763Y-29303678D01*
X34564765Y-29303679D01*
X34721558Y-29361990D01*
X34721560Y-29361990D01*
X34728168Y-29364448D01*
X34811995Y-29375633D01*
X34900980Y-29387507D01*
X34900984Y-29387507D01*
X34907961Y-29388438D01*
X34914972Y-29387800D01*
X34914976Y-29387800D01*
X35057459Y-29374832D01*
X35088600Y-29371998D01*
X35095302Y-29369820D01*
X35095304Y-29369820D01*
X35254409Y-29318124D01*
X35254412Y-29318123D01*
X35261108Y-29315947D01*
X35411540Y-29226271D01*
X35476058Y-29208500D01*
X35648903Y-29208500D01*
X35717896Y-29229068D01*
X35828159Y-29301222D01*
X35834763Y-29303678D01*
X35834765Y-29303679D01*
X35991558Y-29361990D01*
X35991560Y-29361990D01*
X35998168Y-29364448D01*
X36081995Y-29375633D01*
X36170980Y-29387507D01*
X36170984Y-29387507D01*
X36177961Y-29388438D01*
X36184972Y-29387800D01*
X36184976Y-29387800D01*
X36327459Y-29374832D01*
X36358600Y-29371998D01*
X36365302Y-29369820D01*
X36365304Y-29369820D01*
X36524409Y-29318124D01*
X36524412Y-29318123D01*
X36531108Y-29315947D01*
X36686912Y-29223069D01*
X36818266Y-29097982D01*
X36918643Y-28946902D01*
X36983055Y-28777338D01*
X36984035Y-28770366D01*
X37007748Y-28601639D01*
X37007748Y-28601636D01*
X37008299Y-28597717D01*
X37008616Y-28575000D01*
X36988397Y-28394745D01*
X36986080Y-28388091D01*
X36931064Y-28230106D01*
X36931062Y-28230103D01*
X36928745Y-28223448D01*
X36832626Y-28069624D01*
X36818941Y-28055843D01*
X36709778Y-27945915D01*
X36709774Y-27945912D01*
X36704815Y-27940918D01*
X36693697Y-27933862D01*
X36645538Y-27903300D01*
X36551666Y-27843727D01*
X36503433Y-27826552D01*
X36387425Y-27785243D01*
X36387420Y-27785242D01*
X36380790Y-27782881D01*
X36373802Y-27782048D01*
X36373799Y-27782047D01*
X36250698Y-27767368D01*
X36200680Y-27761404D01*
X36193677Y-27762140D01*
X36193676Y-27762140D01*
X36027288Y-27779628D01*
X36027286Y-27779629D01*
X36020288Y-27780364D01*
X35848579Y-27838818D01*
X35712039Y-27922819D01*
X35646019Y-27941500D01*
X35472338Y-27941500D01*
X35404824Y-27921885D01*
X35371583Y-27900790D01*
X35281666Y-27843727D01*
X35233433Y-27826552D01*
X35117425Y-27785243D01*
X35117420Y-27785242D01*
X35110790Y-27782881D01*
X35103802Y-27782048D01*
X35103799Y-27782047D01*
X34980698Y-27767368D01*
X34930680Y-27761404D01*
X34923677Y-27762140D01*
X34923676Y-27762140D01*
X34757288Y-27779628D01*
X34757286Y-27779629D01*
X34750288Y-27780364D01*
X34578579Y-27838818D01*
X34572575Y-27842512D01*
X34430095Y-27930166D01*
X34430092Y-27930168D01*
X34424088Y-27933862D01*
X34419053Y-27938793D01*
X34419050Y-27938795D01*
X34299525Y-28055843D01*
X34294493Y-28060771D01*
X34196235Y-28213238D01*
X34193826Y-28219858D01*
X34193824Y-28219861D01*
X34176264Y-28268108D01*
X34134197Y-28383685D01*
X34111463Y-28563640D01*
X24167416Y-28563640D01*
X24322901Y-28271215D01*
X24326368Y-28265111D01*
X24675410Y-27688772D01*
X24679221Y-27682859D01*
X25059885Y-27126914D01*
X25064021Y-27121222D01*
X25475114Y-26587407D01*
X25479561Y-26581954D01*
X25919817Y-26071912D01*
X25924561Y-26066716D01*
X26392624Y-25582023D01*
X26397635Y-25577116D01*
X26892009Y-25119322D01*
X26897303Y-25114687D01*
X27067461Y-24973920D01*
X27416456Y-24685206D01*
X27421978Y-24680892D01*
X27964330Y-24281035D01*
X27970101Y-24277025D01*
X27987564Y-24265598D01*
X28212139Y-24118640D01*
X29666463Y-24118640D01*
X29684163Y-24299160D01*
X29741418Y-24471273D01*
X29745065Y-24477295D01*
X29745066Y-24477297D01*
X29810139Y-24584745D01*
X29835380Y-24626424D01*
X29961382Y-24756902D01*
X30113159Y-24856222D01*
X30119763Y-24858678D01*
X30119765Y-24858679D01*
X30276558Y-24916990D01*
X30276560Y-24916990D01*
X30283168Y-24919448D01*
X30366995Y-24930633D01*
X30455980Y-24942507D01*
X30455984Y-24942507D01*
X30462961Y-24943438D01*
X30469972Y-24942800D01*
X30469976Y-24942800D01*
X30612459Y-24929832D01*
X30643600Y-24926998D01*
X30650302Y-24924820D01*
X30650304Y-24924820D01*
X30809409Y-24873124D01*
X30809412Y-24873123D01*
X30816108Y-24870947D01*
X30971912Y-24778069D01*
X30977013Y-24773212D01*
X30982626Y-24768951D01*
X30983385Y-24769952D01*
X31040090Y-24740762D01*
X31063860Y-24738500D01*
X33350761Y-24738500D01*
X33418882Y-24758502D01*
X33439856Y-24775405D01*
X33450907Y-24786456D01*
X33484933Y-24848768D01*
X33487211Y-24863256D01*
X33487965Y-24870947D01*
X33494163Y-24934160D01*
X33551418Y-25106273D01*
X33555065Y-25112295D01*
X33555066Y-25112297D01*
X33626319Y-25229950D01*
X33645380Y-25261424D01*
X33771382Y-25391902D01*
X33923159Y-25491222D01*
X33929763Y-25493678D01*
X33929765Y-25493679D01*
X34086558Y-25551990D01*
X34086560Y-25551990D01*
X34093168Y-25554448D01*
X34176995Y-25565633D01*
X34265980Y-25577507D01*
X34265984Y-25577507D01*
X34272961Y-25578438D01*
X34279972Y-25577800D01*
X34279976Y-25577800D01*
X34422459Y-25564832D01*
X34453600Y-25561998D01*
X34460302Y-25559820D01*
X34460304Y-25559820D01*
X34619409Y-25508124D01*
X34619412Y-25508123D01*
X34626108Y-25505947D01*
X34781912Y-25413069D01*
X34913266Y-25287982D01*
X35013643Y-25136902D01*
X35078055Y-24967338D01*
X35081545Y-24942507D01*
X35102748Y-24791639D01*
X35102748Y-24791636D01*
X35103299Y-24787717D01*
X35103616Y-24765000D01*
X35083397Y-24584745D01*
X35023745Y-24413448D01*
X34927626Y-24259624D01*
X34866002Y-24197568D01*
X34804778Y-24135915D01*
X34804774Y-24135912D01*
X34799815Y-24130918D01*
X34646666Y-24033727D01*
X34617463Y-24023328D01*
X34482425Y-23975243D01*
X34482420Y-23975242D01*
X34475790Y-23972881D01*
X34468804Y-23972048D01*
X34468800Y-23972047D01*
X34385864Y-23962158D01*
X34320591Y-23934231D01*
X34311688Y-23926139D01*
X34119315Y-23733766D01*
X34108448Y-23721375D01*
X34094013Y-23702563D01*
X34088987Y-23696013D01*
X34057075Y-23671526D01*
X34057072Y-23671523D01*
X33961876Y-23598476D01*
X33813851Y-23537162D01*
X33805664Y-23536084D01*
X33805663Y-23536084D01*
X33794458Y-23534609D01*
X33763262Y-23530502D01*
X33694885Y-23521500D01*
X33694882Y-23521500D01*
X33694874Y-23521499D01*
X33663189Y-23517328D01*
X33655000Y-23516250D01*
X33623307Y-23520422D01*
X33606864Y-23521500D01*
X31064751Y-23521500D01*
X30996630Y-23501498D01*
X30992157Y-23498276D01*
X30989815Y-23495918D01*
X30978697Y-23488862D01*
X30930538Y-23458300D01*
X30836666Y-23398727D01*
X30807463Y-23388328D01*
X30672425Y-23340243D01*
X30672420Y-23340242D01*
X30665790Y-23337881D01*
X30658802Y-23337048D01*
X30658799Y-23337047D01*
X30535698Y-23322368D01*
X30485680Y-23316404D01*
X30478677Y-23317140D01*
X30478676Y-23317140D01*
X30312288Y-23334628D01*
X30312286Y-23334629D01*
X30305288Y-23335364D01*
X30133579Y-23393818D01*
X30127575Y-23397512D01*
X29985095Y-23485166D01*
X29985092Y-23485168D01*
X29979088Y-23488862D01*
X29974053Y-23493793D01*
X29974050Y-23493795D01*
X29854525Y-23610843D01*
X29849493Y-23615771D01*
X29751235Y-23768238D01*
X29748826Y-23774858D01*
X29748824Y-23774861D01*
X29701671Y-23904412D01*
X29689197Y-23938685D01*
X29666463Y-24118640D01*
X28212139Y-24118640D01*
X28431273Y-23975243D01*
X28533880Y-23908099D01*
X28539873Y-23904412D01*
X29123378Y-23567525D01*
X29129568Y-23564178D01*
X29730965Y-23260391D01*
X29737331Y-23257395D01*
X30354757Y-22987648D01*
X30361281Y-22985012D01*
X30992809Y-22750149D01*
X30999464Y-22747884D01*
X31402392Y-22623157D01*
X31643105Y-22548644D01*
X31649882Y-22546752D01*
X32303638Y-22383752D01*
X32310510Y-22382241D01*
X32554592Y-22335679D01*
X32972368Y-22255984D01*
X32979282Y-22254865D01*
X33510821Y-22183942D01*
X33647142Y-22165753D01*
X33654139Y-22165017D01*
X34325952Y-22113324D01*
X34332979Y-22112981D01*
X34370666Y-22112192D01*
X35006591Y-22098871D01*
X35013627Y-22098920D01*
G37*
%TD.AperFunction*%
%TD*%
M02*
