%TF.GenerationSoftware,KiCad,Pcbnew,6.0.11+dfsg-1*%
%TF.CreationDate,2023-06-01T03:10:45-05:00*%
%TF.ProjectId,watch,77617463-682e-46b6-9963-61645f706362,rev?*%
%TF.SameCoordinates,Original*%
%TF.FileFunction,Copper,L2,Bot*%
%TF.FilePolarity,Positive*%
%FSLAX46Y46*%
G04 Gerber Fmt 4.6, Leading zero omitted, Abs format (unit mm)*
G04 Created by KiCad (PCBNEW 6.0.11+dfsg-1) date 2023-06-01 03:10:45*
%MOMM*%
%LPD*%
G01*
G04 APERTURE LIST*
%TA.AperFunction,SMDPad,CuDef*%
%ADD10R,2.500000X5.100000*%
%TD*%
%TA.AperFunction,SMDPad,CuDef*%
%ADD11C,10.200000*%
%TD*%
%TA.AperFunction,ViaPad*%
%ADD12C,0.600000*%
%TD*%
%TA.AperFunction,Conductor*%
%ADD13C,0.200000*%
%TD*%
%TA.AperFunction,Conductor*%
%ADD14C,0.250000*%
%TD*%
G04 APERTURE END LIST*
D10*
%TO.P,BT1,1*%
%TO.N,+3.3V*%
X71150000Y-63450000D03*
%TO.P,BT1,2*%
X55850000Y-63450000D03*
D11*
%TO.P,BT1,3*%
%TO.N,GND*%
X63500000Y-63500000D03*
%TD*%
D12*
%TO.N,+3.3V*%
X71120000Y-57785000D03*
X53340000Y-67310000D03*
X64135000Y-71755000D03*
%TO.N,GND*%
X62865000Y-55245000D03*
X55245000Y-67310000D03*
%TO.N,Net-(R7-Pad1)*%
X62865000Y-53975000D03*
X59055000Y-53340000D03*
%TO.N,Net-(R2-Pad2)*%
X64770000Y-57785000D03*
X63500000Y-57785000D03*
%TO.N,Net-(R1-Pad2)*%
X69215000Y-68580000D03*
X66675000Y-68580000D03*
X59690000Y-67945000D03*
%TD*%
D13*
%TO.N,+3.3V*%
X67310000Y-71755000D02*
X71150000Y-67915000D01*
X57785000Y-71755000D02*
X53340000Y-67310000D01*
X64135000Y-71755000D02*
X67310000Y-71755000D01*
X64135000Y-71755000D02*
X57785000Y-71755000D01*
X71150000Y-57815000D02*
X71150000Y-63450000D01*
X53340000Y-67310000D02*
X53340000Y-65960000D01*
X53340000Y-65960000D02*
X55850000Y-63450000D01*
X71150000Y-67915000D02*
X71150000Y-63450000D01*
X71120000Y-57785000D02*
X71150000Y-57815000D01*
%TO.N,GND*%
X55245000Y-67310000D02*
X59690000Y-67310000D01*
X62230000Y-62230000D02*
X63500000Y-63500000D01*
X62230000Y-55880000D02*
X62230000Y-62230000D01*
X62865000Y-55245000D02*
X62230000Y-55880000D01*
X59690000Y-67310000D02*
X63500000Y-63500000D01*
%TO.N,Net-(R7-Pad1)*%
X62230000Y-53340000D02*
X62865000Y-53975000D01*
X59055000Y-53340000D02*
X62230000Y-53340000D01*
D14*
%TO.N,Net-(R2-Pad2)*%
X63500000Y-57785000D02*
X64770000Y-57785000D01*
D13*
%TO.N,Net-(R1-Pad2)*%
X66675000Y-68580000D02*
X69215000Y-68580000D01*
X59690000Y-67945000D02*
X60960000Y-69215000D01*
X66040000Y-69215000D02*
X66675000Y-68580000D01*
X60960000Y-69215000D02*
X66040000Y-69215000D01*
%TD*%
%TA.AperFunction,Conductor*%
%TO.N,GND*%
G36*
X63559768Y-51307650D02*
G01*
X63993050Y-51313234D01*
X64000151Y-51313528D01*
X64681153Y-51360898D01*
X64688224Y-51361591D01*
X65244003Y-51431997D01*
X65365474Y-51447385D01*
X65372515Y-51448480D01*
X66043811Y-51572418D01*
X66050779Y-51573909D01*
X66714012Y-51735601D01*
X66720884Y-51737484D01*
X67373895Y-51936404D01*
X67380650Y-51938672D01*
X68021394Y-52174196D01*
X68028010Y-52176843D01*
X68336530Y-52310499D01*
X68654400Y-52448206D01*
X68660836Y-52451212D01*
X69250196Y-52747162D01*
X69270911Y-52757564D01*
X69277186Y-52760941D01*
X69868940Y-53101275D01*
X69875014Y-53105001D01*
X70446589Y-53478246D01*
X70452441Y-53482308D01*
X71002000Y-53887266D01*
X71007592Y-53891635D01*
X71533409Y-54327036D01*
X71538745Y-54331715D01*
X71932685Y-54697364D01*
X72039104Y-54796141D01*
X72044187Y-54801135D01*
X72298761Y-55065747D01*
X72517455Y-55293065D01*
X72522243Y-55298331D01*
X72966982Y-55816270D01*
X72971446Y-55821776D01*
X73197339Y-56117115D01*
X73386181Y-56364012D01*
X73390348Y-56369791D01*
X73773766Y-56934602D01*
X73777600Y-56940609D01*
X74128468Y-57526178D01*
X74131956Y-57532391D01*
X74449168Y-58136872D01*
X74452299Y-58143273D01*
X74734820Y-58764692D01*
X74737585Y-58771259D01*
X74984544Y-59407702D01*
X74986932Y-59414416D01*
X75197499Y-60063744D01*
X75199505Y-60070581D01*
X75373038Y-60730811D01*
X75374654Y-60737751D01*
X75510586Y-61406732D01*
X75511807Y-61413753D01*
X75609704Y-62089342D01*
X75610526Y-62096419D01*
X75625349Y-62265693D01*
X75611365Y-62335299D01*
X75566761Y-62383438D01*
X75440032Y-62462895D01*
X75397010Y-62489869D01*
X75238387Y-62631392D01*
X75235070Y-62635546D01*
X75235069Y-62635547D01*
X75109052Y-62793357D01*
X75109048Y-62793362D01*
X75105738Y-62797508D01*
X75002818Y-62983512D01*
X74932543Y-63184140D01*
X74931652Y-63189376D01*
X74931652Y-63189378D01*
X74899738Y-63377026D01*
X74896900Y-63393710D01*
X74896900Y-63606290D01*
X74897790Y-63611521D01*
X74897790Y-63611525D01*
X74929366Y-63797181D01*
X74932543Y-63815860D01*
X75002818Y-64016488D01*
X75105738Y-64202492D01*
X75109048Y-64206638D01*
X75109052Y-64206643D01*
X75193248Y-64312081D01*
X75238387Y-64368608D01*
X75397010Y-64510131D01*
X75401507Y-64512951D01*
X75401509Y-64512952D01*
X75566760Y-64616561D01*
X75613849Y-64669694D01*
X75625348Y-64734305D01*
X75610526Y-64903579D01*
X75609704Y-64910657D01*
X75511807Y-65586247D01*
X75510586Y-65593268D01*
X75374654Y-66262249D01*
X75373038Y-66269189D01*
X75199505Y-66929419D01*
X75197499Y-66936256D01*
X74986932Y-67585584D01*
X74984544Y-67592298D01*
X74737585Y-68228741D01*
X74734820Y-68235308D01*
X74452299Y-68856727D01*
X74449168Y-68863128D01*
X74131956Y-69467609D01*
X74128468Y-69473822D01*
X73777600Y-70059391D01*
X73773766Y-70065398D01*
X73390348Y-70630209D01*
X73386183Y-70635985D01*
X72971446Y-71178224D01*
X72966982Y-71183730D01*
X72612593Y-71596448D01*
X72522248Y-71701663D01*
X72517461Y-71706928D01*
X72296351Y-71936758D01*
X72044187Y-72198865D01*
X72039104Y-72203859D01*
X71538745Y-72668285D01*
X71533409Y-72672964D01*
X71007592Y-73108365D01*
X71002000Y-73112734D01*
X70452442Y-73517691D01*
X70446589Y-73521754D01*
X69875014Y-73894999D01*
X69868940Y-73898725D01*
X69277186Y-74239059D01*
X69270915Y-74242434D01*
X68660836Y-74548788D01*
X68654400Y-74551794D01*
X68362457Y-74678269D01*
X68028010Y-74823157D01*
X68021394Y-74825804D01*
X67380650Y-75061328D01*
X67373895Y-75063596D01*
X66720884Y-75262516D01*
X66714012Y-75264399D01*
X66050779Y-75426091D01*
X66043811Y-75427582D01*
X65372515Y-75551520D01*
X65365474Y-75552615D01*
X65251715Y-75567026D01*
X64688224Y-75638409D01*
X64681153Y-75639102D01*
X64000151Y-75686472D01*
X63993050Y-75686766D01*
X63559768Y-75692350D01*
X63310431Y-75695564D01*
X63303306Y-75695454D01*
X63050925Y-75684425D01*
X62621313Y-75665651D01*
X62614221Y-75665141D01*
X62335665Y-75637126D01*
X61934975Y-75596829D01*
X61927908Y-75595915D01*
X61253653Y-75489322D01*
X61246649Y-75488011D01*
X60579478Y-75343469D01*
X60572559Y-75341764D01*
X59914632Y-75159739D01*
X59907822Y-75157646D01*
X59261213Y-74938713D01*
X59254540Y-74936241D01*
X58621361Y-74681111D01*
X58614858Y-74678275D01*
X57997078Y-74387744D01*
X57990724Y-74384533D01*
X57390394Y-74059563D01*
X57384226Y-74055995D01*
X56803219Y-73697604D01*
X56797263Y-73693693D01*
X56237459Y-73303040D01*
X56231733Y-73298799D01*
X55994868Y-73112743D01*
X55694869Y-72877096D01*
X55689424Y-72872564D01*
X55177268Y-72421193D01*
X55172077Y-72416351D01*
X54686252Y-71936749D01*
X54681333Y-71931610D01*
X54591507Y-71832296D01*
X54223409Y-71425321D01*
X54218788Y-71419913D01*
X53982135Y-71126498D01*
X53790216Y-70888548D01*
X53785907Y-70882885D01*
X53388068Y-70328156D01*
X53384080Y-70322250D01*
X53210471Y-70048756D01*
X53018227Y-69745905D01*
X53014585Y-69739792D01*
X52960251Y-69642437D01*
X52681892Y-69143674D01*
X52678613Y-69137388D01*
X52380150Y-68523416D01*
X52377223Y-68516936D01*
X52363889Y-68485034D01*
X52113951Y-67887088D01*
X52111391Y-67880441D01*
X52104538Y-67861027D01*
X51906005Y-67298640D01*
X52526463Y-67298640D01*
X52544163Y-67479160D01*
X52601418Y-67651273D01*
X52605065Y-67657295D01*
X52605066Y-67657297D01*
X52685581Y-67790243D01*
X52695380Y-67806424D01*
X52821382Y-67936902D01*
X52973159Y-68036222D01*
X52979763Y-68038678D01*
X52979765Y-68038679D01*
X53136558Y-68096990D01*
X53136560Y-68096990D01*
X53143168Y-68099448D01*
X53150153Y-68100380D01*
X53150157Y-68100381D01*
X53200897Y-68107151D01*
X53245986Y-68113167D01*
X53310862Y-68142003D01*
X53318416Y-68148965D01*
X57320685Y-72151234D01*
X57331552Y-72163625D01*
X57351013Y-72188987D01*
X57357563Y-72194013D01*
X57382921Y-72213471D01*
X57382928Y-72213477D01*
X57432382Y-72251424D01*
X57478125Y-72286524D01*
X57626150Y-72347838D01*
X57745115Y-72363500D01*
X57745120Y-72363500D01*
X57745129Y-72363501D01*
X57776812Y-72367672D01*
X57785000Y-72368750D01*
X57816693Y-72364578D01*
X57833136Y-72363500D01*
X63550699Y-72363500D01*
X63619692Y-72384068D01*
X63636325Y-72394952D01*
X63768159Y-72481222D01*
X63774763Y-72483678D01*
X63774765Y-72483679D01*
X63931558Y-72541990D01*
X63931560Y-72541990D01*
X63938168Y-72544448D01*
X64021995Y-72555633D01*
X64110980Y-72567507D01*
X64110984Y-72567507D01*
X64117961Y-72568438D01*
X64124972Y-72567800D01*
X64124976Y-72567800D01*
X64267459Y-72554832D01*
X64298600Y-72551998D01*
X64305302Y-72549820D01*
X64305304Y-72549820D01*
X64464409Y-72498124D01*
X64464412Y-72498123D01*
X64471108Y-72495947D01*
X64626912Y-72403069D01*
X64632013Y-72398212D01*
X64637626Y-72393951D01*
X64638385Y-72394952D01*
X64695090Y-72365762D01*
X64718860Y-72363500D01*
X67261864Y-72363500D01*
X67278307Y-72364578D01*
X67310000Y-72368750D01*
X67318189Y-72367672D01*
X67349874Y-72363501D01*
X67349884Y-72363500D01*
X67349885Y-72363500D01*
X67349901Y-72363498D01*
X67449457Y-72350391D01*
X67460664Y-72348916D01*
X67460666Y-72348915D01*
X67468851Y-72347838D01*
X67616876Y-72286524D01*
X67712072Y-72213477D01*
X67712075Y-72213474D01*
X67743987Y-72188987D01*
X67749017Y-72182432D01*
X67763452Y-72163621D01*
X67774319Y-72151230D01*
X71546234Y-68379315D01*
X71558625Y-68368448D01*
X71577437Y-68354013D01*
X71583987Y-68348987D01*
X71608474Y-68317075D01*
X71608480Y-68317069D01*
X71676496Y-68228429D01*
X71676497Y-68228427D01*
X71681524Y-68221876D01*
X71742838Y-68073851D01*
X71748431Y-68031368D01*
X71758500Y-67954885D01*
X71758500Y-67954880D01*
X71763750Y-67915000D01*
X71759578Y-67883307D01*
X71758500Y-67866864D01*
X71758500Y-66634500D01*
X71778502Y-66566379D01*
X71832158Y-66519886D01*
X71884500Y-66508500D01*
X72448134Y-66508500D01*
X72510316Y-66501745D01*
X72646705Y-66450615D01*
X72763261Y-66363261D01*
X72850615Y-66246705D01*
X72901745Y-66110316D01*
X72908500Y-66048134D01*
X72908500Y-60851866D01*
X72901745Y-60789684D01*
X72850615Y-60653295D01*
X72763261Y-60536739D01*
X72646705Y-60449385D01*
X72510316Y-60398255D01*
X72448134Y-60391500D01*
X71884500Y-60391500D01*
X71816379Y-60371498D01*
X71769886Y-60317842D01*
X71758500Y-60265500D01*
X71758500Y-58323094D01*
X71779552Y-58253367D01*
X71839742Y-58162773D01*
X71843643Y-58156902D01*
X71908055Y-57987338D01*
X71909035Y-57980366D01*
X71932748Y-57811639D01*
X71932748Y-57811636D01*
X71933299Y-57807717D01*
X71933616Y-57785000D01*
X71913397Y-57604745D01*
X71911080Y-57598091D01*
X71856064Y-57440106D01*
X71856062Y-57440103D01*
X71853745Y-57433448D01*
X71757626Y-57279624D01*
X71732267Y-57254087D01*
X71634778Y-57155915D01*
X71634774Y-57155912D01*
X71629815Y-57150918D01*
X71618697Y-57143862D01*
X71570538Y-57113300D01*
X71476666Y-57053727D01*
X71447463Y-57043328D01*
X71312425Y-56995243D01*
X71312420Y-56995242D01*
X71305790Y-56992881D01*
X71298802Y-56992048D01*
X71298799Y-56992047D01*
X71175698Y-56977368D01*
X71125680Y-56971404D01*
X71118677Y-56972140D01*
X71118676Y-56972140D01*
X70952288Y-56989628D01*
X70952286Y-56989629D01*
X70945288Y-56990364D01*
X70773579Y-57048818D01*
X70767575Y-57052512D01*
X70625095Y-57140166D01*
X70625092Y-57140168D01*
X70619088Y-57143862D01*
X70614053Y-57148793D01*
X70614050Y-57148795D01*
X70494525Y-57265843D01*
X70489493Y-57270771D01*
X70391235Y-57423238D01*
X70388826Y-57429858D01*
X70388824Y-57429861D01*
X70351506Y-57532391D01*
X70329197Y-57593685D01*
X70306463Y-57773640D01*
X70324163Y-57954160D01*
X70381418Y-58126273D01*
X70385065Y-58132295D01*
X70385066Y-58132297D01*
X70395978Y-58150314D01*
X70475380Y-58281424D01*
X70495357Y-58302111D01*
X70506137Y-58313274D01*
X70539069Y-58376171D01*
X70541500Y-58400801D01*
X70541500Y-60265500D01*
X70521498Y-60333621D01*
X70467842Y-60380114D01*
X70415500Y-60391500D01*
X69851866Y-60391500D01*
X69789684Y-60398255D01*
X69653295Y-60449385D01*
X69536739Y-60536739D01*
X69449385Y-60653295D01*
X69398255Y-60789684D01*
X69391500Y-60851866D01*
X69391500Y-66048134D01*
X69398255Y-66110316D01*
X69449385Y-66246705D01*
X69536739Y-66363261D01*
X69653295Y-66450615D01*
X69789684Y-66501745D01*
X69851866Y-66508500D01*
X70415500Y-66508500D01*
X70483621Y-66528502D01*
X70530114Y-66582158D01*
X70541500Y-66634500D01*
X70541500Y-67610761D01*
X70521498Y-67678882D01*
X70504595Y-67699856D01*
X70071236Y-68133215D01*
X70008924Y-68167241D01*
X69938109Y-68162176D01*
X69881273Y-68119629D01*
X69875287Y-68110890D01*
X69872951Y-68107151D01*
X69852626Y-68074624D01*
X69843835Y-68065771D01*
X69729778Y-67950915D01*
X69729774Y-67950912D01*
X69724815Y-67945918D01*
X69716688Y-67940760D01*
X69632118Y-67887091D01*
X69571666Y-67848727D01*
X69542463Y-67838328D01*
X69407425Y-67790243D01*
X69407420Y-67790242D01*
X69400790Y-67787881D01*
X69393802Y-67787048D01*
X69393799Y-67787047D01*
X69265462Y-67771744D01*
X69220680Y-67766404D01*
X69213677Y-67767140D01*
X69213676Y-67767140D01*
X69047288Y-67784628D01*
X69047286Y-67784629D01*
X69040288Y-67785364D01*
X68868579Y-67843818D01*
X68714088Y-67938862D01*
X68709054Y-67943791D01*
X68707776Y-67944790D01*
X68641782Y-67970967D01*
X68630204Y-67971500D01*
X67259751Y-67971500D01*
X67191630Y-67951498D01*
X67187157Y-67948276D01*
X67184815Y-67945918D01*
X67176688Y-67940760D01*
X67092118Y-67887091D01*
X67031666Y-67848727D01*
X67002463Y-67838328D01*
X66867425Y-67790243D01*
X66867420Y-67790242D01*
X66860790Y-67787881D01*
X66853802Y-67787048D01*
X66853799Y-67787047D01*
X66725462Y-67771744D01*
X66680680Y-67766404D01*
X66673677Y-67767140D01*
X66673676Y-67767140D01*
X66507288Y-67784628D01*
X66507286Y-67784629D01*
X66500288Y-67785364D01*
X66328579Y-67843818D01*
X66266109Y-67882250D01*
X66180095Y-67935166D01*
X66180092Y-67935168D01*
X66174088Y-67938862D01*
X66169053Y-67943793D01*
X66169050Y-67943795D01*
X66140759Y-67971500D01*
X66044493Y-68065771D01*
X65946235Y-68218238D01*
X65943826Y-68224858D01*
X65943824Y-68224861D01*
X65891563Y-68368448D01*
X65884197Y-68388685D01*
X65883314Y-68395675D01*
X65872025Y-68485034D01*
X65843643Y-68550111D01*
X65836114Y-68558337D01*
X65824856Y-68569595D01*
X65762544Y-68603621D01*
X65735761Y-68606500D01*
X61264239Y-68606500D01*
X61196118Y-68586498D01*
X61175144Y-68569595D01*
X60528888Y-67923339D01*
X60494862Y-67861027D01*
X60492768Y-67848289D01*
X60484182Y-67771744D01*
X60483397Y-67764745D01*
X60481080Y-67758091D01*
X60426064Y-67600106D01*
X60426062Y-67600103D01*
X60423745Y-67593448D01*
X60327626Y-67439624D01*
X60313941Y-67425843D01*
X60204778Y-67315915D01*
X60204774Y-67315912D01*
X60199815Y-67310918D01*
X60188697Y-67303862D01*
X60115069Y-67257137D01*
X60046666Y-67213727D01*
X60017463Y-67203328D01*
X59882425Y-67155243D01*
X59882420Y-67155242D01*
X59875790Y-67152881D01*
X59868802Y-67152048D01*
X59868799Y-67152047D01*
X59740462Y-67136744D01*
X59695680Y-67131404D01*
X59688677Y-67132140D01*
X59688676Y-67132140D01*
X59522288Y-67149628D01*
X59522286Y-67149629D01*
X59515288Y-67150364D01*
X59343579Y-67208818D01*
X59309230Y-67229950D01*
X59195095Y-67300166D01*
X59195092Y-67300168D01*
X59189088Y-67303862D01*
X59184053Y-67308793D01*
X59184050Y-67308795D01*
X59064525Y-67425843D01*
X59059493Y-67430771D01*
X58961235Y-67583238D01*
X58958826Y-67589858D01*
X58958824Y-67589861D01*
X58926423Y-67678882D01*
X58899197Y-67753685D01*
X58876463Y-67933640D01*
X58894163Y-68114160D01*
X58951418Y-68286273D01*
X58955065Y-68292295D01*
X58955066Y-68292297D01*
X59017674Y-68395675D01*
X59045380Y-68441424D01*
X59171382Y-68571902D01*
X59323159Y-68671222D01*
X59329763Y-68673678D01*
X59329765Y-68673679D01*
X59486558Y-68731990D01*
X59486560Y-68731990D01*
X59493168Y-68734448D01*
X59500153Y-68735380D01*
X59500157Y-68735381D01*
X59562547Y-68743706D01*
X59595986Y-68748167D01*
X59660862Y-68777003D01*
X59668416Y-68783965D01*
X60495685Y-69611234D01*
X60506552Y-69623625D01*
X60526013Y-69648987D01*
X60532563Y-69654013D01*
X60557925Y-69673474D01*
X60557928Y-69673477D01*
X60644351Y-69739792D01*
X60653124Y-69746524D01*
X60714438Y-69771921D01*
X60793520Y-69804678D01*
X60793523Y-69804679D01*
X60801150Y-69807838D01*
X60920115Y-69823500D01*
X60920120Y-69823500D01*
X60920129Y-69823501D01*
X60951812Y-69827672D01*
X60960000Y-69828750D01*
X60991693Y-69824578D01*
X61008136Y-69823500D01*
X65991864Y-69823500D01*
X66008307Y-69824578D01*
X66040000Y-69828750D01*
X66048189Y-69827672D01*
X66079874Y-69823501D01*
X66079884Y-69823500D01*
X66079885Y-69823500D01*
X66079901Y-69823498D01*
X66179457Y-69810391D01*
X66190664Y-69808916D01*
X66190666Y-69808915D01*
X66198851Y-69807838D01*
X66346876Y-69746524D01*
X66355650Y-69739792D01*
X66442072Y-69673477D01*
X66442075Y-69673474D01*
X66467434Y-69654015D01*
X66473987Y-69648987D01*
X66479017Y-69642432D01*
X66493452Y-69623621D01*
X66504319Y-69611230D01*
X66696282Y-69419267D01*
X66758594Y-69385241D01*
X66773955Y-69382881D01*
X66838600Y-69376998D01*
X66845302Y-69374820D01*
X66845304Y-69374820D01*
X67004409Y-69323124D01*
X67004412Y-69323123D01*
X67011108Y-69320947D01*
X67166912Y-69228069D01*
X67172013Y-69223212D01*
X67177626Y-69218951D01*
X67178385Y-69219952D01*
X67235090Y-69190762D01*
X67258860Y-69188500D01*
X68630699Y-69188500D01*
X68699691Y-69209067D01*
X68716325Y-69219952D01*
X68748691Y-69241132D01*
X68794739Y-69295170D01*
X68804262Y-69365525D01*
X68774237Y-69429860D01*
X68768792Y-69435659D01*
X67094856Y-71109595D01*
X67032544Y-71143621D01*
X67005761Y-71146500D01*
X64719751Y-71146500D01*
X64651630Y-71126498D01*
X64647157Y-71123276D01*
X64644815Y-71120918D01*
X64633697Y-71113862D01*
X64585538Y-71083300D01*
X64491666Y-71023727D01*
X64462463Y-71013328D01*
X64327425Y-70965243D01*
X64327420Y-70965242D01*
X64320790Y-70962881D01*
X64313802Y-70962048D01*
X64313799Y-70962047D01*
X64190698Y-70947368D01*
X64140680Y-70941404D01*
X64133677Y-70942140D01*
X64133676Y-70942140D01*
X63967288Y-70959628D01*
X63967286Y-70959629D01*
X63960288Y-70960364D01*
X63788579Y-71018818D01*
X63634088Y-71113862D01*
X63629054Y-71118791D01*
X63627776Y-71119790D01*
X63561782Y-71145967D01*
X63550204Y-71146500D01*
X58089239Y-71146500D01*
X58021118Y-71126498D01*
X58000144Y-71109595D01*
X54178888Y-67288339D01*
X54144862Y-67226027D01*
X54142768Y-67213289D01*
X54134182Y-67136744D01*
X54133397Y-67129745D01*
X54129576Y-67118773D01*
X54076064Y-66965106D01*
X54076062Y-66965103D01*
X54073745Y-66958448D01*
X53977626Y-66804624D01*
X53975215Y-66802196D01*
X53949117Y-66737716D01*
X53948500Y-66725263D01*
X53948500Y-66356883D01*
X53968502Y-66288762D01*
X54022158Y-66242269D01*
X54092432Y-66232165D01*
X54157012Y-66261659D01*
X54175326Y-66281318D01*
X54236739Y-66363261D01*
X54353295Y-66450615D01*
X54489684Y-66501745D01*
X54551866Y-66508500D01*
X57148134Y-66508500D01*
X57210316Y-66501745D01*
X57346705Y-66450615D01*
X57463261Y-66363261D01*
X57550615Y-66246705D01*
X57601745Y-66110316D01*
X57608500Y-66048134D01*
X57608500Y-60851866D01*
X57601745Y-60789684D01*
X57550615Y-60653295D01*
X57463261Y-60536739D01*
X57346705Y-60449385D01*
X57210316Y-60398255D01*
X57148134Y-60391500D01*
X54551866Y-60391500D01*
X54489684Y-60398255D01*
X54353295Y-60449385D01*
X54236739Y-60536739D01*
X54149385Y-60653295D01*
X54098255Y-60789684D01*
X54091500Y-60851866D01*
X54091500Y-64295761D01*
X54071498Y-64363882D01*
X54054595Y-64384856D01*
X52943766Y-65495685D01*
X52931375Y-65506552D01*
X52906013Y-65526013D01*
X52881526Y-65557925D01*
X52881523Y-65557928D01*
X52808476Y-65653124D01*
X52808476Y-65653125D01*
X52747162Y-65801150D01*
X52731500Y-65920115D01*
X52731500Y-65920120D01*
X52726250Y-65960000D01*
X52727328Y-65968188D01*
X52730422Y-65991690D01*
X52731500Y-66008136D01*
X52731500Y-66725164D01*
X52711498Y-66793285D01*
X52710188Y-66795090D01*
X52709493Y-66795771D01*
X52707894Y-66798253D01*
X52707892Y-66798255D01*
X52699934Y-66810603D01*
X52611235Y-66948238D01*
X52608826Y-66954858D01*
X52608824Y-66954861D01*
X52551606Y-67112066D01*
X52549197Y-67118685D01*
X52526463Y-67298640D01*
X51906005Y-67298640D01*
X51884149Y-67236727D01*
X51881970Y-67229950D01*
X51877129Y-67213289D01*
X51691477Y-66574411D01*
X51689684Y-66567519D01*
X51674741Y-66502598D01*
X51614818Y-66242269D01*
X51536555Y-65902262D01*
X51535154Y-65895276D01*
X51473010Y-65532561D01*
X51419877Y-65222435D01*
X51418875Y-65215401D01*
X51341818Y-64537105D01*
X51341214Y-64530005D01*
X51302623Y-63848438D01*
X51302422Y-63841315D01*
X51302422Y-63158685D01*
X51302623Y-63151562D01*
X51341214Y-62469995D01*
X51341818Y-62462895D01*
X51418875Y-61784599D01*
X51419877Y-61777565D01*
X51535154Y-61104724D01*
X51536555Y-61097738D01*
X51665686Y-60536739D01*
X51689685Y-60432477D01*
X51691478Y-60425585D01*
X51701383Y-60391500D01*
X51881972Y-59770044D01*
X51884151Y-59763267D01*
X51944383Y-59592648D01*
X52111392Y-59119556D01*
X52113952Y-59112909D01*
X52198839Y-58909828D01*
X52377229Y-58483050D01*
X52380156Y-58476570D01*
X52678613Y-57862612D01*
X52681892Y-57856326D01*
X52728039Y-57773640D01*
X62686463Y-57773640D01*
X62704163Y-57954160D01*
X62761418Y-58126273D01*
X62765065Y-58132295D01*
X62765066Y-58132297D01*
X62775978Y-58150314D01*
X62855380Y-58281424D01*
X62860269Y-58286487D01*
X62860270Y-58286488D01*
X62921500Y-58349893D01*
X62981382Y-58411902D01*
X63133159Y-58511222D01*
X63139763Y-58513678D01*
X63139765Y-58513679D01*
X63296558Y-58571990D01*
X63296560Y-58571990D01*
X63303168Y-58574448D01*
X63386995Y-58585633D01*
X63475980Y-58597507D01*
X63475984Y-58597507D01*
X63482961Y-58598438D01*
X63489972Y-58597800D01*
X63489976Y-58597800D01*
X63632459Y-58584832D01*
X63663600Y-58581998D01*
X63670302Y-58579820D01*
X63670304Y-58579820D01*
X63829409Y-58528124D01*
X63829412Y-58528123D01*
X63836108Y-58525947D01*
X63986540Y-58436271D01*
X64051058Y-58418500D01*
X64223903Y-58418500D01*
X64292896Y-58439068D01*
X64355108Y-58479778D01*
X64403159Y-58511222D01*
X64409763Y-58513678D01*
X64409765Y-58513679D01*
X64566558Y-58571990D01*
X64566560Y-58571990D01*
X64573168Y-58574448D01*
X64656995Y-58585633D01*
X64745980Y-58597507D01*
X64745984Y-58597507D01*
X64752961Y-58598438D01*
X64759972Y-58597800D01*
X64759976Y-58597800D01*
X64902459Y-58584832D01*
X64933600Y-58581998D01*
X64940302Y-58579820D01*
X64940304Y-58579820D01*
X65099409Y-58528124D01*
X65099412Y-58528123D01*
X65106108Y-58525947D01*
X65261912Y-58433069D01*
X65393266Y-58307982D01*
X65493643Y-58156902D01*
X65558055Y-57987338D01*
X65559035Y-57980366D01*
X65582748Y-57811639D01*
X65582748Y-57811636D01*
X65583299Y-57807717D01*
X65583616Y-57785000D01*
X65563397Y-57604745D01*
X65561080Y-57598091D01*
X65506064Y-57440106D01*
X65506062Y-57440103D01*
X65503745Y-57433448D01*
X65407626Y-57279624D01*
X65382267Y-57254087D01*
X65284778Y-57155915D01*
X65284774Y-57155912D01*
X65279815Y-57150918D01*
X65268697Y-57143862D01*
X65220538Y-57113300D01*
X65126666Y-57053727D01*
X65097463Y-57043328D01*
X64962425Y-56995243D01*
X64962420Y-56995242D01*
X64955790Y-56992881D01*
X64948802Y-56992048D01*
X64948799Y-56992047D01*
X64825698Y-56977368D01*
X64775680Y-56971404D01*
X64768677Y-56972140D01*
X64768676Y-56972140D01*
X64602288Y-56989628D01*
X64602286Y-56989629D01*
X64595288Y-56990364D01*
X64423579Y-57048818D01*
X64287039Y-57132819D01*
X64221019Y-57151500D01*
X64047338Y-57151500D01*
X63979824Y-57131885D01*
X63946583Y-57110790D01*
X63856666Y-57053727D01*
X63827463Y-57043328D01*
X63692425Y-56995243D01*
X63692420Y-56995242D01*
X63685790Y-56992881D01*
X63678802Y-56992048D01*
X63678799Y-56992047D01*
X63555698Y-56977368D01*
X63505680Y-56971404D01*
X63498677Y-56972140D01*
X63498676Y-56972140D01*
X63332288Y-56989628D01*
X63332286Y-56989629D01*
X63325288Y-56990364D01*
X63153579Y-57048818D01*
X63147575Y-57052512D01*
X63005095Y-57140166D01*
X63005092Y-57140168D01*
X62999088Y-57143862D01*
X62994053Y-57148793D01*
X62994050Y-57148795D01*
X62874525Y-57265843D01*
X62869493Y-57270771D01*
X62771235Y-57423238D01*
X62768826Y-57429858D01*
X62768824Y-57429861D01*
X62731506Y-57532391D01*
X62709197Y-57593685D01*
X62686463Y-57773640D01*
X52728039Y-57773640D01*
X53014590Y-57260200D01*
X53018232Y-57254087D01*
X53083353Y-57151500D01*
X53384080Y-56677750D01*
X53388068Y-56671844D01*
X53785907Y-56117115D01*
X53790222Y-56111444D01*
X54218796Y-55580078D01*
X54223416Y-55574670D01*
X54473352Y-55298337D01*
X54681342Y-55068381D01*
X54686261Y-55063242D01*
X55172077Y-54583649D01*
X55177268Y-54578807D01*
X55689424Y-54127436D01*
X55694869Y-54122904D01*
X56231734Y-53701201D01*
X56237459Y-53696960D01*
X56765260Y-53328640D01*
X58241463Y-53328640D01*
X58259163Y-53509160D01*
X58316418Y-53681273D01*
X58320065Y-53687295D01*
X58320066Y-53687297D01*
X58385139Y-53794745D01*
X58410380Y-53836424D01*
X58536382Y-53966902D01*
X58688159Y-54066222D01*
X58694763Y-54068678D01*
X58694765Y-54068679D01*
X58851558Y-54126990D01*
X58851560Y-54126990D01*
X58858168Y-54129448D01*
X58941995Y-54140633D01*
X59030980Y-54152507D01*
X59030984Y-54152507D01*
X59037961Y-54153438D01*
X59044972Y-54152800D01*
X59044976Y-54152800D01*
X59187459Y-54139832D01*
X59218600Y-54136998D01*
X59225302Y-54134820D01*
X59225304Y-54134820D01*
X59384409Y-54083124D01*
X59384412Y-54083123D01*
X59391108Y-54080947D01*
X59546912Y-53988069D01*
X59552013Y-53983212D01*
X59557626Y-53978951D01*
X59558385Y-53979952D01*
X59615090Y-53950762D01*
X59638860Y-53948500D01*
X61925761Y-53948500D01*
X61993882Y-53968502D01*
X62014856Y-53985405D01*
X62025907Y-53996456D01*
X62059933Y-54058768D01*
X62062211Y-54073256D01*
X62062965Y-54080947D01*
X62069163Y-54144160D01*
X62126418Y-54316273D01*
X62130065Y-54322295D01*
X62130066Y-54322297D01*
X62140978Y-54340314D01*
X62220380Y-54471424D01*
X62346382Y-54601902D01*
X62498159Y-54701222D01*
X62504763Y-54703678D01*
X62504765Y-54703679D01*
X62661558Y-54761990D01*
X62661560Y-54761990D01*
X62668168Y-54764448D01*
X62751995Y-54775633D01*
X62840980Y-54787507D01*
X62840984Y-54787507D01*
X62847961Y-54788438D01*
X62854972Y-54787800D01*
X62854976Y-54787800D01*
X62997459Y-54774832D01*
X63028600Y-54771998D01*
X63035302Y-54769820D01*
X63035304Y-54769820D01*
X63194409Y-54718124D01*
X63194412Y-54718123D01*
X63201108Y-54715947D01*
X63356912Y-54623069D01*
X63488266Y-54497982D01*
X63588643Y-54346902D01*
X63653055Y-54177338D01*
X63656545Y-54152507D01*
X63677748Y-54001639D01*
X63677748Y-54001636D01*
X63678299Y-53997717D01*
X63678616Y-53975000D01*
X63658397Y-53794745D01*
X63656080Y-53788091D01*
X63601064Y-53630106D01*
X63601062Y-53630103D01*
X63598745Y-53623448D01*
X63502626Y-53469624D01*
X63497664Y-53464627D01*
X63379778Y-53345915D01*
X63379774Y-53345912D01*
X63374815Y-53340918D01*
X63362744Y-53333257D01*
X63314114Y-53302396D01*
X63221666Y-53243727D01*
X63192463Y-53233328D01*
X63057425Y-53185243D01*
X63057420Y-53185242D01*
X63050790Y-53182881D01*
X63043804Y-53182048D01*
X63043800Y-53182047D01*
X62960864Y-53172158D01*
X62895591Y-53144231D01*
X62886688Y-53136139D01*
X62694315Y-52943766D01*
X62683448Y-52931375D01*
X62669013Y-52912563D01*
X62663987Y-52906013D01*
X62632075Y-52881526D01*
X62632072Y-52881523D01*
X62536876Y-52808476D01*
X62388851Y-52747162D01*
X62380664Y-52746084D01*
X62380663Y-52746084D01*
X62369458Y-52744609D01*
X62338262Y-52740502D01*
X62269885Y-52731500D01*
X62269882Y-52731500D01*
X62269874Y-52731499D01*
X62238189Y-52727328D01*
X62230000Y-52726250D01*
X62198307Y-52730422D01*
X62181864Y-52731500D01*
X59639751Y-52731500D01*
X59571630Y-52711498D01*
X59567157Y-52708276D01*
X59564815Y-52705918D01*
X59553697Y-52698862D01*
X59505538Y-52668300D01*
X59411666Y-52608727D01*
X59382463Y-52598328D01*
X59247425Y-52550243D01*
X59247420Y-52550242D01*
X59240790Y-52547881D01*
X59233802Y-52547048D01*
X59233799Y-52547047D01*
X59110698Y-52532368D01*
X59060680Y-52526404D01*
X59053677Y-52527140D01*
X59053676Y-52527140D01*
X58887288Y-52544628D01*
X58887286Y-52544629D01*
X58880288Y-52545364D01*
X58708579Y-52603818D01*
X58694457Y-52612506D01*
X58560095Y-52695166D01*
X58560092Y-52695168D01*
X58554088Y-52698862D01*
X58549053Y-52703793D01*
X58549050Y-52703795D01*
X58429525Y-52820843D01*
X58424493Y-52825771D01*
X58326235Y-52978238D01*
X58264197Y-53148685D01*
X58241463Y-53328640D01*
X56765260Y-53328640D01*
X56797263Y-53306307D01*
X56803219Y-53302396D01*
X57384226Y-52944005D01*
X57390394Y-52940437D01*
X57990724Y-52615467D01*
X57997084Y-52612253D01*
X58004582Y-52608727D01*
X58614858Y-52321725D01*
X58621361Y-52318889D01*
X59254540Y-52063759D01*
X59261213Y-52061287D01*
X59907822Y-51842354D01*
X59914632Y-51840261D01*
X60572559Y-51658236D01*
X60579478Y-51656531D01*
X61246649Y-51511989D01*
X61253653Y-51510678D01*
X61927908Y-51404085D01*
X61934975Y-51403171D01*
X62355319Y-51360897D01*
X62614221Y-51334859D01*
X62621313Y-51334349D01*
X63050925Y-51315575D01*
X63303306Y-51304546D01*
X63310431Y-51304436D01*
X63559768Y-51307650D01*
G37*
%TD.AperFunction*%
%TD*%
M02*
