%TF.GenerationSoftware,KiCad,Pcbnew,6.0.11+dfsg-1*%
%TF.CreationDate,2023-06-10T11:59:29-05:00*%
%TF.ProjectId,watch,77617463-682e-46b6-9963-61645f706362,rev?*%
%TF.SameCoordinates,Original*%
%TF.FileFunction,Legend,Top*%
%TF.FilePolarity,Positive*%
%FSLAX46Y46*%
G04 Gerber Fmt 4.6, Leading zero omitted, Abs format (unit mm)*
G04 Created by KiCad (PCBNEW 6.0.11+dfsg-1) date 2023-06-10 11:59:29*
%MOMM*%
%LPD*%
G01*
G04 APERTURE LIST*
%ADD10C,0.150000*%
%ADD11C,0.120000*%
%ADD12C,0.152400*%
G04 APERTURE END LIST*
D10*
X66560000Y-73963571D02*
X66667142Y-73999285D01*
X66845714Y-73999285D01*
X66917142Y-73963571D01*
X66952857Y-73927857D01*
X66988571Y-73856428D01*
X66988571Y-73785000D01*
X66952857Y-73713571D01*
X66917142Y-73677857D01*
X66845714Y-73642142D01*
X66702857Y-73606428D01*
X66631428Y-73570714D01*
X66595714Y-73535000D01*
X66560000Y-73463571D01*
X66560000Y-73392142D01*
X66595714Y-73320714D01*
X66631428Y-73285000D01*
X66702857Y-73249285D01*
X66881428Y-73249285D01*
X66988571Y-73285000D01*
X67595714Y-73963571D02*
X67524285Y-73999285D01*
X67381428Y-73999285D01*
X67310000Y-73963571D01*
X67274285Y-73892142D01*
X67274285Y-73606428D01*
X67310000Y-73535000D01*
X67381428Y-73499285D01*
X67524285Y-73499285D01*
X67595714Y-73535000D01*
X67631428Y-73606428D01*
X67631428Y-73677857D01*
X67274285Y-73749285D01*
X67845714Y-73499285D02*
X68131428Y-73499285D01*
X67952857Y-73249285D02*
X67952857Y-73892142D01*
X67988571Y-73963571D01*
X68060000Y-73999285D01*
X68131428Y-73999285D01*
X58547142Y-73249285D02*
X58797142Y-73999285D01*
X59047142Y-73249285D01*
X59297142Y-73999285D02*
X59297142Y-73499285D01*
X59297142Y-73249285D02*
X59261428Y-73285000D01*
X59297142Y-73320714D01*
X59332857Y-73285000D01*
X59297142Y-73249285D01*
X59297142Y-73320714D01*
X59940000Y-73963571D02*
X59868571Y-73999285D01*
X59725714Y-73999285D01*
X59654285Y-73963571D01*
X59618571Y-73892142D01*
X59618571Y-73606428D01*
X59654285Y-73535000D01*
X59725714Y-73499285D01*
X59868571Y-73499285D01*
X59940000Y-73535000D01*
X59975714Y-73606428D01*
X59975714Y-73677857D01*
X59618571Y-73749285D01*
X60225714Y-73499285D02*
X60368571Y-73999285D01*
X60511428Y-73642142D01*
X60654285Y-73999285D01*
X60797142Y-73499285D01*
X54199285Y-67675000D02*
X54949285Y-67425000D01*
X54199285Y-67175000D01*
X54877857Y-66496428D02*
X54913571Y-66532142D01*
X54949285Y-66639285D01*
X54949285Y-66710714D01*
X54913571Y-66817857D01*
X54842142Y-66889285D01*
X54770714Y-66925000D01*
X54627857Y-66960714D01*
X54520714Y-66960714D01*
X54377857Y-66925000D01*
X54306428Y-66889285D01*
X54235000Y-66817857D01*
X54199285Y-66710714D01*
X54199285Y-66639285D01*
X54235000Y-66532142D01*
X54270714Y-66496428D01*
X54877857Y-65746428D02*
X54913571Y-65782142D01*
X54949285Y-65889285D01*
X54949285Y-65960714D01*
X54913571Y-66067857D01*
X54842142Y-66139285D01*
X54770714Y-66175000D01*
X54627857Y-66210714D01*
X54520714Y-66210714D01*
X54377857Y-66175000D01*
X54306428Y-66139285D01*
X54235000Y-66067857D01*
X54199285Y-65960714D01*
X54199285Y-65889285D01*
X54235000Y-65782142D01*
X54270714Y-65746428D01*
X54235000Y-64071428D02*
X54199285Y-64142857D01*
X54199285Y-64250000D01*
X54235000Y-64357142D01*
X54306428Y-64428571D01*
X54377857Y-64464285D01*
X54520714Y-64500000D01*
X54627857Y-64500000D01*
X54770714Y-64464285D01*
X54842142Y-64428571D01*
X54913571Y-64357142D01*
X54949285Y-64250000D01*
X54949285Y-64178571D01*
X54913571Y-64071428D01*
X54877857Y-64035714D01*
X54627857Y-64035714D01*
X54627857Y-64178571D01*
X54949285Y-63714285D02*
X54199285Y-63714285D01*
X54949285Y-63285714D01*
X54199285Y-63285714D01*
X54949285Y-62928571D02*
X54199285Y-62928571D01*
X54199285Y-62750000D01*
X54235000Y-62642857D01*
X54306428Y-62571428D01*
X54377857Y-62535714D01*
X54520714Y-62500000D01*
X54627857Y-62500000D01*
X54770714Y-62535714D01*
X54842142Y-62571428D01*
X54913571Y-62642857D01*
X54949285Y-62750000D01*
X54949285Y-62928571D01*
X54199285Y-61467857D02*
X54806428Y-61467857D01*
X54877857Y-61432142D01*
X54913571Y-61396428D01*
X54949285Y-61325000D01*
X54949285Y-61182142D01*
X54913571Y-61110714D01*
X54877857Y-61075000D01*
X54806428Y-61039285D01*
X54199285Y-61039285D01*
X54949285Y-60682142D02*
X54199285Y-60682142D01*
X54199285Y-60396428D01*
X54235000Y-60325000D01*
X54270714Y-60289285D01*
X54342142Y-60253571D01*
X54449285Y-60253571D01*
X54520714Y-60289285D01*
X54556428Y-60325000D01*
X54592142Y-60396428D01*
X54592142Y-60682142D01*
X54949285Y-59932142D02*
X54199285Y-59932142D01*
X54199285Y-59753571D01*
X54235000Y-59646428D01*
X54306428Y-59575000D01*
X54377857Y-59539285D01*
X54520714Y-59503571D01*
X54627857Y-59503571D01*
X54770714Y-59539285D01*
X54842142Y-59575000D01*
X54913571Y-59646428D01*
X54949285Y-59753571D01*
X54949285Y-59932142D01*
X54949285Y-59182142D02*
X54199285Y-59182142D01*
%TO.C,SW1*%
X58356666Y-71524761D02*
X58499523Y-71572380D01*
X58737619Y-71572380D01*
X58832857Y-71524761D01*
X58880476Y-71477142D01*
X58928095Y-71381904D01*
X58928095Y-71286666D01*
X58880476Y-71191428D01*
X58832857Y-71143809D01*
X58737619Y-71096190D01*
X58547142Y-71048571D01*
X58451904Y-71000952D01*
X58404285Y-70953333D01*
X58356666Y-70858095D01*
X58356666Y-70762857D01*
X58404285Y-70667619D01*
X58451904Y-70620000D01*
X58547142Y-70572380D01*
X58785238Y-70572380D01*
X58928095Y-70620000D01*
X59261428Y-70572380D02*
X59499523Y-71572380D01*
X59690000Y-70858095D01*
X59880476Y-71572380D01*
X60118571Y-70572380D01*
X61023333Y-71572380D02*
X60451904Y-71572380D01*
X60737619Y-71572380D02*
X60737619Y-70572380D01*
X60642380Y-70715238D01*
X60547142Y-70810476D01*
X60451904Y-70858095D01*
%TO.C,SW2*%
X65976666Y-71524761D02*
X66119523Y-71572380D01*
X66357619Y-71572380D01*
X66452857Y-71524761D01*
X66500476Y-71477142D01*
X66548095Y-71381904D01*
X66548095Y-71286666D01*
X66500476Y-71191428D01*
X66452857Y-71143809D01*
X66357619Y-71096190D01*
X66167142Y-71048571D01*
X66071904Y-71000952D01*
X66024285Y-70953333D01*
X65976666Y-70858095D01*
X65976666Y-70762857D01*
X66024285Y-70667619D01*
X66071904Y-70620000D01*
X66167142Y-70572380D01*
X66405238Y-70572380D01*
X66548095Y-70620000D01*
X66881428Y-70572380D02*
X67119523Y-71572380D01*
X67310000Y-70858095D01*
X67500476Y-71572380D01*
X67738571Y-70572380D01*
X68071904Y-70667619D02*
X68119523Y-70620000D01*
X68214761Y-70572380D01*
X68452857Y-70572380D01*
X68548095Y-70620000D01*
X68595714Y-70667619D01*
X68643333Y-70762857D01*
X68643333Y-70858095D01*
X68595714Y-71000952D01*
X68024285Y-71572380D01*
X68643333Y-71572380D01*
D11*
%TO.C,R7*%
X57262500Y-55007742D02*
X57262500Y-55482258D01*
X58307500Y-55007742D02*
X58307500Y-55482258D01*
%TO.C,D4*%
X66890000Y-64035000D02*
X64605000Y-64035000D01*
X66890000Y-65505000D02*
X66890000Y-64035000D01*
X64605000Y-65505000D02*
X66890000Y-65505000D01*
%TO.C,R5*%
X64022500Y-70532258D02*
X64022500Y-70057742D01*
X62977500Y-70532258D02*
X62977500Y-70057742D01*
%TO.C,D7*%
X70015000Y-58955000D02*
X67730000Y-58955000D01*
X67730000Y-58955000D02*
X67730000Y-60425000D01*
X67730000Y-60425000D02*
X70015000Y-60425000D01*
%TO.C,D9*%
X59270000Y-66575000D02*
X56985000Y-66575000D01*
X56985000Y-68045000D02*
X59270000Y-68045000D01*
X59270000Y-68045000D02*
X59270000Y-66575000D01*
%TO.C,R2*%
X57547742Y-61707500D02*
X58022258Y-61707500D01*
X57547742Y-62752500D02*
X58022258Y-62752500D01*
%TO.C,U1*%
X63500000Y-57170000D02*
X66950000Y-57170000D01*
X63500000Y-52050000D02*
X65450000Y-52050000D01*
X63500000Y-57170000D02*
X61550000Y-57170000D01*
X63500000Y-52050000D02*
X61550000Y-52050000D01*
%TO.C,D10*%
X63080000Y-68045000D02*
X63080000Y-66575000D01*
X63080000Y-66575000D02*
X60795000Y-66575000D01*
X60795000Y-68045000D02*
X63080000Y-68045000D01*
%TO.C,D12*%
X70700000Y-64035000D02*
X68415000Y-64035000D01*
X68415000Y-65505000D02*
X70700000Y-65505000D01*
X70700000Y-65505000D02*
X70700000Y-64035000D01*
%TO.C,D5*%
X60110000Y-60425000D02*
X62395000Y-60425000D01*
X60110000Y-58955000D02*
X60110000Y-60425000D01*
X62395000Y-58955000D02*
X60110000Y-58955000D01*
D12*
%TO.C,SW1*%
X58776459Y-72694800D02*
X60603541Y-72694800D01*
X61569600Y-71502460D02*
X61569600Y-70737540D01*
X60603541Y-69545200D02*
X58776459Y-69545200D01*
X57810400Y-70737540D02*
X57810400Y-71502460D01*
D11*
%TO.C,D11*%
X70015000Y-61495000D02*
X67730000Y-61495000D01*
X67730000Y-61495000D02*
X67730000Y-62965000D01*
X67730000Y-62965000D02*
X70015000Y-62965000D01*
%TO.C,D1*%
X64605000Y-68045000D02*
X66890000Y-68045000D01*
X66890000Y-68045000D02*
X66890000Y-66575000D01*
X66890000Y-66575000D02*
X64605000Y-66575000D01*
%TO.C,TP3*%
X53405000Y-66740000D02*
X52005000Y-66740000D01*
X53405000Y-65340000D02*
X53405000Y-66740000D01*
X52005000Y-65340000D02*
X53405000Y-65340000D01*
X52005000Y-66740000D02*
X52005000Y-65340000D01*
%TO.C,D6*%
X63920000Y-61495000D02*
X63920000Y-62965000D01*
X66205000Y-61495000D02*
X63920000Y-61495000D01*
X63920000Y-62965000D02*
X66205000Y-62965000D01*
D12*
%TO.C,SW2*%
X69189600Y-71502460D02*
X69189600Y-70737540D01*
X68223541Y-69545200D02*
X66396459Y-69545200D01*
X66396459Y-72694800D02*
X68223541Y-72694800D01*
X65430400Y-70737540D02*
X65430400Y-71502460D01*
D11*
%TO.C,D8*%
X62395000Y-64035000D02*
X60110000Y-64035000D01*
X60110000Y-64035000D02*
X60110000Y-65505000D01*
X60110000Y-65505000D02*
X62395000Y-65505000D01*
%TO.C,R4*%
X57547742Y-59167500D02*
X58022258Y-59167500D01*
X57547742Y-60212500D02*
X58022258Y-60212500D01*
%TO.C,TP2*%
X52005000Y-64200000D02*
X52005000Y-62800000D01*
X53405000Y-62800000D02*
X53405000Y-64200000D01*
X52005000Y-62800000D02*
X53405000Y-62800000D01*
X53405000Y-64200000D02*
X52005000Y-64200000D01*
%TO.C,D2*%
X70700000Y-68045000D02*
X70700000Y-66575000D01*
X68415000Y-68045000D02*
X70700000Y-68045000D01*
X70700000Y-66575000D02*
X68415000Y-66575000D01*
%TO.C,R6*%
X62977500Y-73897258D02*
X62977500Y-73422742D01*
X64022500Y-73897258D02*
X64022500Y-73422742D01*
%TO.C,R1*%
X57547742Y-64247500D02*
X58022258Y-64247500D01*
X57547742Y-65292500D02*
X58022258Y-65292500D01*
%TO.C,D3*%
X63080000Y-61495000D02*
X60795000Y-61495000D01*
X63080000Y-62965000D02*
X63080000Y-61495000D01*
X60795000Y-62965000D02*
X63080000Y-62965000D01*
%TO.C,R3*%
X65167742Y-60212500D02*
X65642258Y-60212500D01*
X65167742Y-59167500D02*
X65642258Y-59167500D01*
%TO.C,TP1*%
X53405000Y-60960000D02*
G75*
G03*
X53405000Y-60960000I-700000J0D01*
G01*
%TD*%
M02*
