%TF.GenerationSoftware,KiCad,Pcbnew,6.0.11+dfsg-1*%
%TF.CreationDate,2023-06-10T11:59:29-05:00*%
%TF.ProjectId,watch,77617463-682e-46b6-9963-61645f706362,rev?*%
%TF.SameCoordinates,Original*%
%TF.FileFunction,Soldermask,Top*%
%TF.FilePolarity,Negative*%
%FSLAX46Y46*%
G04 Gerber Fmt 4.6, Leading zero omitted, Abs format (unit mm)*
G04 Created by KiCad (PCBNEW 6.0.11+dfsg-1) date 2023-06-10 11:59:29*
%MOMM*%
%LPD*%
G01*
G04 APERTURE LIST*
G04 Aperture macros list*
%AMRoundRect*
0 Rectangle with rounded corners*
0 $1 Rounding radius*
0 $2 $3 $4 $5 $6 $7 $8 $9 X,Y pos of 4 corners*
0 Add a 4 corners polygon primitive as box body*
4,1,4,$2,$3,$4,$5,$6,$7,$8,$9,$2,$3,0*
0 Add four circle primitives for the rounded corners*
1,1,$1+$1,$2,$3*
1,1,$1+$1,$4,$5*
1,1,$1+$1,$6,$7*
1,1,$1+$1,$8,$9*
0 Add four rect primitives between the rounded corners*
20,1,$1+$1,$2,$3,$4,$5,0*
20,1,$1+$1,$4,$5,$6,$7,0*
20,1,$1+$1,$6,$7,$8,$9,0*
20,1,$1+$1,$8,$9,$2,$3,0*%
G04 Aperture macros list end*
%ADD10RoundRect,0.200000X-0.275000X0.200000X-0.275000X-0.200000X0.275000X-0.200000X0.275000X0.200000X0*%
%ADD11RoundRect,0.218750X0.218750X0.256250X-0.218750X0.256250X-0.218750X-0.256250X0.218750X-0.256250X0*%
%ADD12RoundRect,0.200000X0.275000X-0.200000X0.275000X0.200000X-0.275000X0.200000X-0.275000X-0.200000X0*%
%ADD13RoundRect,0.218750X-0.218750X-0.256250X0.218750X-0.256250X0.218750X0.256250X-0.218750X0.256250X0*%
%ADD14RoundRect,0.200000X-0.200000X-0.275000X0.200000X-0.275000X0.200000X0.275000X-0.200000X0.275000X0*%
%ADD15RoundRect,0.150000X0.825000X0.150000X-0.825000X0.150000X-0.825000X-0.150000X0.825000X-0.150000X0*%
%ADD16R,1.309599X0.669600*%
%ADD17R,1.000000X1.000000*%
%ADD18C,1.000000*%
G04 APERTURE END LIST*
D10*
%TO.C,R7*%
X57785000Y-54420000D03*
X57785000Y-56070000D03*
%TD*%
D11*
%TO.C,D4*%
X66192500Y-64770000D03*
X64617500Y-64770000D03*
%TD*%
D12*
%TO.C,R5*%
X63500000Y-71120000D03*
X63500000Y-69470000D03*
%TD*%
D13*
%TO.C,D7*%
X68427500Y-59690000D03*
X70002500Y-59690000D03*
%TD*%
D11*
%TO.C,D9*%
X58572500Y-67310000D03*
X56997500Y-67310000D03*
%TD*%
D14*
%TO.C,R2*%
X56960000Y-62230000D03*
X58610000Y-62230000D03*
%TD*%
D15*
%TO.C,U1*%
X65975000Y-56515000D03*
X65975000Y-55245000D03*
X65975000Y-53975000D03*
X65975000Y-52705000D03*
X61025000Y-52705000D03*
X61025000Y-53975000D03*
X61025000Y-55245000D03*
X61025000Y-56515000D03*
%TD*%
D11*
%TO.C,D10*%
X62382500Y-67310000D03*
X60807500Y-67310000D03*
%TD*%
%TO.C,D12*%
X70002500Y-64770000D03*
X68427500Y-64770000D03*
%TD*%
D13*
%TO.C,D5*%
X60807500Y-59690000D03*
X62382500Y-59690000D03*
%TD*%
D16*
%TO.C,SW1*%
X57848500Y-70070000D03*
X57848500Y-72170000D03*
X61531500Y-72170000D03*
X61531500Y-70070000D03*
%TD*%
D13*
%TO.C,D11*%
X68427500Y-62230000D03*
X70002500Y-62230000D03*
%TD*%
D11*
%TO.C,D1*%
X66192500Y-67310000D03*
X64617500Y-67310000D03*
%TD*%
D17*
%TO.C,TP3*%
X52705000Y-66040000D03*
%TD*%
D13*
%TO.C,D6*%
X64617500Y-62230000D03*
X66192500Y-62230000D03*
%TD*%
D16*
%TO.C,SW2*%
X65468500Y-70070000D03*
X65468500Y-72170000D03*
X69151500Y-72170000D03*
X69151500Y-70070000D03*
%TD*%
D13*
%TO.C,D8*%
X60807500Y-64770000D03*
X62382500Y-64770000D03*
%TD*%
D14*
%TO.C,R4*%
X56960000Y-59690000D03*
X58610000Y-59690000D03*
%TD*%
D17*
%TO.C,TP2*%
X52705000Y-63500000D03*
%TD*%
D11*
%TO.C,D2*%
X70002500Y-67310000D03*
X68427500Y-67310000D03*
%TD*%
D12*
%TO.C,R6*%
X63500000Y-74485000D03*
X63500000Y-72835000D03*
%TD*%
D14*
%TO.C,R1*%
X56960000Y-64770000D03*
X58610000Y-64770000D03*
%TD*%
D11*
%TO.C,D3*%
X62382500Y-62230000D03*
X60807500Y-62230000D03*
%TD*%
D14*
%TO.C,R3*%
X64580000Y-59690000D03*
X66230000Y-59690000D03*
%TD*%
D18*
%TO.C,TP1*%
X52705000Y-60960000D03*
%TD*%
M02*
