%TF.GenerationSoftware,KiCad,Pcbnew,6.0.11+dfsg-1*%
%TF.CreationDate,2023-05-20T19:05:26-05:00*%
%TF.ProjectId,watch,77617463-682e-46b6-9963-61645f706362,rev?*%
%TF.SameCoordinates,Original*%
%TF.FileFunction,Paste,Top*%
%TF.FilePolarity,Positive*%
%FSLAX46Y46*%
G04 Gerber Fmt 4.6, Leading zero omitted, Abs format (unit mm)*
G04 Created by KiCad (PCBNEW 6.0.11+dfsg-1) date 2023-05-20 19:05:26*
%MOMM*%
%LPD*%
G01*
G04 APERTURE LIST*
G04 Aperture macros list*
%AMRoundRect*
0 Rectangle with rounded corners*
0 $1 Rounding radius*
0 $2 $3 $4 $5 $6 $7 $8 $9 X,Y pos of 4 corners*
0 Add a 4 corners polygon primitive as box body*
4,1,4,$2,$3,$4,$5,$6,$7,$8,$9,$2,$3,0*
0 Add four circle primitives for the rounded corners*
1,1,$1+$1,$2,$3*
1,1,$1+$1,$4,$5*
1,1,$1+$1,$6,$7*
1,1,$1+$1,$8,$9*
0 Add four rect primitives between the rounded corners*
20,1,$1+$1,$2,$3,$4,$5,0*
20,1,$1+$1,$4,$5,$6,$7,0*
20,1,$1+$1,$6,$7,$8,$9,0*
20,1,$1+$1,$8,$9,$2,$3,0*%
G04 Aperture macros list end*
%ADD10RoundRect,0.150000X0.825000X0.150000X-0.825000X0.150000X-0.825000X-0.150000X0.825000X-0.150000X0*%
%ADD11R,1.309599X0.669600*%
%ADD12RoundRect,0.200000X0.275000X-0.200000X0.275000X0.200000X-0.275000X0.200000X-0.275000X-0.200000X0*%
%ADD13RoundRect,0.200000X-0.275000X0.200000X-0.275000X-0.200000X0.275000X-0.200000X0.275000X0.200000X0*%
%ADD14RoundRect,0.200000X-0.200000X-0.275000X0.200000X-0.275000X0.200000X0.275000X-0.200000X0.275000X0*%
%ADD15RoundRect,0.218750X0.218750X0.256250X-0.218750X0.256250X-0.218750X-0.256250X0.218750X-0.256250X0*%
%ADD16RoundRect,0.218750X-0.218750X-0.256250X0.218750X-0.256250X0.218750X0.256250X-0.218750X0.256250X0*%
G04 APERTURE END LIST*
D10*
%TO.C,U1*%
X37400000Y-27305000D03*
X37400000Y-26035000D03*
X37400000Y-24765000D03*
X37400000Y-23495000D03*
X32450000Y-23495000D03*
X32450000Y-24765000D03*
X32450000Y-26035000D03*
X32450000Y-27305000D03*
%TD*%
D11*
%TO.C,SW2*%
X36893500Y-40860000D03*
X36893500Y-42960000D03*
X40576500Y-42960000D03*
X40576500Y-40860000D03*
%TD*%
%TO.C,SW1*%
X32956500Y-40860000D03*
X32956500Y-42960000D03*
X29273500Y-42960000D03*
X29273500Y-40860000D03*
%TD*%
D12*
%TO.C,R7*%
X29210000Y-25210000D03*
X29210000Y-26860000D03*
%TD*%
D13*
%TO.C,R6*%
X34925000Y-43625000D03*
X34925000Y-45275000D03*
%TD*%
%TO.C,R5*%
X34925000Y-40260000D03*
X34925000Y-41910000D03*
%TD*%
D14*
%TO.C,R4*%
X28385000Y-30480000D03*
X30035000Y-30480000D03*
%TD*%
%TO.C,R3*%
X37655000Y-30480000D03*
X36005000Y-30480000D03*
%TD*%
%TO.C,R2*%
X28385000Y-33020000D03*
X30035000Y-33020000D03*
%TD*%
%TO.C,R1*%
X28385000Y-35560000D03*
X30035000Y-35560000D03*
%TD*%
D15*
%TO.C,D12*%
X41427500Y-35560000D03*
X39852500Y-35560000D03*
%TD*%
D16*
%TO.C,D11*%
X39852500Y-33020000D03*
X41427500Y-33020000D03*
%TD*%
D15*
%TO.C,D10*%
X33807500Y-38100000D03*
X32232500Y-38100000D03*
%TD*%
%TO.C,D9*%
X29997500Y-38100000D03*
X28422500Y-38100000D03*
%TD*%
D16*
%TO.C,D8*%
X32232500Y-35560000D03*
X33807500Y-35560000D03*
%TD*%
%TO.C,D7*%
X39852500Y-30480000D03*
X41427500Y-30480000D03*
%TD*%
%TO.C,D6*%
X36042500Y-33020000D03*
X37617500Y-33020000D03*
%TD*%
%TO.C,D5*%
X32232500Y-30480000D03*
X33807500Y-30480000D03*
%TD*%
D15*
%TO.C,D4*%
X37617500Y-35560000D03*
X36042500Y-35560000D03*
%TD*%
%TO.C,D3*%
X33807500Y-33020000D03*
X32232500Y-33020000D03*
%TD*%
%TO.C,D2*%
X41427500Y-38100000D03*
X39852500Y-38100000D03*
%TD*%
%TO.C,D1*%
X37617500Y-38100000D03*
X36042500Y-38100000D03*
%TD*%
M02*
