%TF.GenerationSoftware,KiCad,Pcbnew,6.0.11+dfsg-1*%
%TF.CreationDate,2023-06-01T03:10:45-05:00*%
%TF.ProjectId,watch,77617463-682e-46b6-9963-61645f706362,rev?*%
%TF.SameCoordinates,Original*%
%TF.FileFunction,Copper,L1,Top*%
%TF.FilePolarity,Positive*%
%FSLAX46Y46*%
G04 Gerber Fmt 4.6, Leading zero omitted, Abs format (unit mm)*
G04 Created by KiCad (PCBNEW 6.0.11+dfsg-1) date 2023-06-01 03:10:45*
%MOMM*%
%LPD*%
G01*
G04 APERTURE LIST*
G04 Aperture macros list*
%AMRoundRect*
0 Rectangle with rounded corners*
0 $1 Rounding radius*
0 $2 $3 $4 $5 $6 $7 $8 $9 X,Y pos of 4 corners*
0 Add a 4 corners polygon primitive as box body*
4,1,4,$2,$3,$4,$5,$6,$7,$8,$9,$2,$3,0*
0 Add four circle primitives for the rounded corners*
1,1,$1+$1,$2,$3*
1,1,$1+$1,$4,$5*
1,1,$1+$1,$6,$7*
1,1,$1+$1,$8,$9*
0 Add four rect primitives between the rounded corners*
20,1,$1+$1,$2,$3,$4,$5,0*
20,1,$1+$1,$4,$5,$6,$7,0*
20,1,$1+$1,$6,$7,$8,$9,0*
20,1,$1+$1,$8,$9,$2,$3,0*%
G04 Aperture macros list end*
%TA.AperFunction,SMDPad,CuDef*%
%ADD10RoundRect,0.200000X-0.275000X0.200000X-0.275000X-0.200000X0.275000X-0.200000X0.275000X0.200000X0*%
%TD*%
%TA.AperFunction,SMDPad,CuDef*%
%ADD11RoundRect,0.218750X0.218750X0.256250X-0.218750X0.256250X-0.218750X-0.256250X0.218750X-0.256250X0*%
%TD*%
%TA.AperFunction,SMDPad,CuDef*%
%ADD12RoundRect,0.200000X0.275000X-0.200000X0.275000X0.200000X-0.275000X0.200000X-0.275000X-0.200000X0*%
%TD*%
%TA.AperFunction,SMDPad,CuDef*%
%ADD13RoundRect,0.218750X-0.218750X-0.256250X0.218750X-0.256250X0.218750X0.256250X-0.218750X0.256250X0*%
%TD*%
%TA.AperFunction,SMDPad,CuDef*%
%ADD14RoundRect,0.200000X-0.200000X-0.275000X0.200000X-0.275000X0.200000X0.275000X-0.200000X0.275000X0*%
%TD*%
%TA.AperFunction,SMDPad,CuDef*%
%ADD15RoundRect,0.150000X0.825000X0.150000X-0.825000X0.150000X-0.825000X-0.150000X0.825000X-0.150000X0*%
%TD*%
%TA.AperFunction,SMDPad,CuDef*%
%ADD16R,1.309599X0.669600*%
%TD*%
%TA.AperFunction,SMDPad,CuDef*%
%ADD17R,1.000000X1.000000*%
%TD*%
%TA.AperFunction,SMDPad,CuDef*%
%ADD18C,1.000000*%
%TD*%
%TA.AperFunction,ViaPad*%
%ADD19C,0.600000*%
%TD*%
%TA.AperFunction,Conductor*%
%ADD20C,0.200000*%
%TD*%
%TA.AperFunction,Conductor*%
%ADD21C,0.250000*%
%TD*%
G04 APERTURE END LIST*
D10*
%TO.P,R7,1*%
%TO.N,Net-(R7-Pad1)*%
X57785000Y-54420000D03*
%TO.P,R7,2*%
%TO.N,Net-(TP1-Pad1)*%
X57785000Y-56070000D03*
%TD*%
D11*
%TO.P,D4,1,K*%
%TO.N,Net-(R2-Pad2)*%
X66192500Y-64770000D03*
%TO.P,D4,2,A*%
%TO.N,Net-(R3-Pad2)*%
X64617500Y-64770000D03*
%TD*%
D12*
%TO.P,R5,1*%
%TO.N,+3.3V*%
X63500000Y-71120000D03*
%TO.P,R5,2*%
%TO.N,Net-(SW1-Pad4)*%
X63500000Y-69470000D03*
%TD*%
D13*
%TO.P,D7,1,K*%
%TO.N,Net-(R3-Pad2)*%
X68427500Y-59690000D03*
%TO.P,D7,2,A*%
%TO.N,Net-(R1-Pad2)*%
X70002500Y-59690000D03*
%TD*%
D11*
%TO.P,D9,1,K*%
%TO.N,Net-(R4-Pad2)*%
X58572500Y-67310000D03*
%TO.P,D9,2,A*%
%TO.N,Net-(R2-Pad2)*%
X56997500Y-67310000D03*
%TD*%
D14*
%TO.P,R2,1*%
%TO.N,Net-(R2-Pad1)*%
X56960000Y-62230000D03*
%TO.P,R2,2*%
%TO.N,Net-(R2-Pad2)*%
X58610000Y-62230000D03*
%TD*%
D15*
%TO.P,U1,1,VCC*%
%TO.N,+3.3V*%
X65975000Y-56515000D03*
%TO.P,U1,2,PA6*%
%TO.N,Net-(R3-Pad1)*%
X65975000Y-55245000D03*
%TO.P,U1,3,PA7*%
%TO.N,Net-(R4-Pad1)*%
X65975000Y-53975000D03*
%TO.P,U1,4,PA1*%
%TO.N,Net-(SW1-Pad4)*%
X65975000Y-52705000D03*
%TO.P,U1,5,PA2*%
%TO.N,Net-(R1-Pad1)*%
X61025000Y-52705000D03*
%TO.P,U1,6,~{RESET}/PA0*%
%TO.N,Net-(R7-Pad1)*%
X61025000Y-53975000D03*
%TO.P,U1,7,PA3*%
%TO.N,Net-(R2-Pad1)*%
X61025000Y-55245000D03*
%TO.P,U1,8,GND*%
%TO.N,GND*%
X61025000Y-56515000D03*
%TD*%
D11*
%TO.P,D10,1,K*%
%TO.N,Net-(R2-Pad2)*%
X62382500Y-67310000D03*
%TO.P,D10,2,A*%
%TO.N,Net-(R4-Pad2)*%
X60807500Y-67310000D03*
%TD*%
%TO.P,D12,1,K*%
%TO.N,Net-(R1-Pad2)*%
X70002500Y-64770000D03*
%TO.P,D12,2,A*%
%TO.N,Net-(R4-Pad2)*%
X68427500Y-64770000D03*
%TD*%
D13*
%TO.P,D5,1,K*%
%TO.N,Net-(R4-Pad2)*%
X60807500Y-59690000D03*
%TO.P,D5,2,A*%
%TO.N,Net-(R3-Pad2)*%
X62382500Y-59690000D03*
%TD*%
D16*
%TO.P,SW1,1,1*%
%TO.N,Net-(SW1-Pad4)*%
X57848500Y-70070000D03*
%TO.P,SW1,2,2*%
%TO.N,GND*%
X57848500Y-72170000D03*
%TO.P,SW1,3,3*%
X61531500Y-72170000D03*
%TO.P,SW1,4,4*%
%TO.N,Net-(SW1-Pad4)*%
X61531500Y-70070000D03*
%TD*%
D13*
%TO.P,D11,1,K*%
%TO.N,Net-(R4-Pad2)*%
X68427500Y-62230000D03*
%TO.P,D11,2,A*%
%TO.N,Net-(R1-Pad2)*%
X70002500Y-62230000D03*
%TD*%
D11*
%TO.P,D1,1,K*%
%TO.N,Net-(R2-Pad2)*%
X66192500Y-67310000D03*
%TO.P,D1,2,A*%
%TO.N,Net-(R1-Pad2)*%
X64617500Y-67310000D03*
%TD*%
D17*
%TO.P,TP3,1,1*%
%TO.N,+3.3V*%
X52705000Y-66040000D03*
%TD*%
D13*
%TO.P,D6,1,K*%
%TO.N,Net-(R3-Pad2)*%
X64617500Y-62230000D03*
%TO.P,D6,2,A*%
%TO.N,Net-(R4-Pad2)*%
X66192500Y-62230000D03*
%TD*%
D16*
%TO.P,SW2,1,1*%
%TO.N,Net-(SW1-Pad4)*%
X65468500Y-70070000D03*
%TO.P,SW2,2,2*%
%TO.N,Net-(SW2-Pad2)*%
X65468500Y-72170000D03*
%TO.P,SW2,3,3*%
X69151500Y-72170000D03*
%TO.P,SW2,4,4*%
%TO.N,Net-(SW1-Pad4)*%
X69151500Y-70070000D03*
%TD*%
D13*
%TO.P,D8,1,K*%
%TO.N,Net-(R1-Pad2)*%
X60807500Y-64770000D03*
%TO.P,D8,2,A*%
%TO.N,Net-(R3-Pad2)*%
X62382500Y-64770000D03*
%TD*%
D14*
%TO.P,R4,1*%
%TO.N,Net-(R4-Pad1)*%
X56960000Y-59690000D03*
%TO.P,R4,2*%
%TO.N,Net-(R4-Pad2)*%
X58610000Y-59690000D03*
%TD*%
D17*
%TO.P,TP2,1,1*%
%TO.N,GND*%
X52705000Y-63500000D03*
%TD*%
D11*
%TO.P,D2,1,K*%
%TO.N,Net-(R1-Pad2)*%
X70002500Y-67310000D03*
%TO.P,D2,2,A*%
%TO.N,Net-(R2-Pad2)*%
X68427500Y-67310000D03*
%TD*%
D12*
%TO.P,R6,1*%
%TO.N,Net-(SW2-Pad2)*%
X63500000Y-74485000D03*
%TO.P,R6,2*%
%TO.N,GND*%
X63500000Y-72835000D03*
%TD*%
D14*
%TO.P,R1,1*%
%TO.N,Net-(R1-Pad1)*%
X56960000Y-64770000D03*
%TO.P,R1,2*%
%TO.N,Net-(R1-Pad2)*%
X58610000Y-64770000D03*
%TD*%
D11*
%TO.P,D3,1,K*%
%TO.N,Net-(R3-Pad2)*%
X62382500Y-62230000D03*
%TO.P,D3,2,A*%
%TO.N,Net-(R2-Pad2)*%
X60807500Y-62230000D03*
%TD*%
D14*
%TO.P,R3,1*%
%TO.N,Net-(R3-Pad1)*%
X64580000Y-59690000D03*
%TO.P,R3,2*%
%TO.N,Net-(R3-Pad2)*%
X66230000Y-59690000D03*
%TD*%
D18*
%TO.P,TP1,1,1*%
%TO.N,Net-(TP1-Pad1)*%
X52705000Y-60960000D03*
%TD*%
D19*
%TO.N,+3.3V*%
X71120000Y-57785000D03*
X53340000Y-67310000D03*
X64135000Y-71755000D03*
%TO.N,GND*%
X62865000Y-55245000D03*
X55245000Y-67310000D03*
%TO.N,Net-(R7-Pad1)*%
X62865000Y-53975000D03*
X59055000Y-53340000D03*
%TO.N,Net-(R2-Pad2)*%
X64770000Y-57785000D03*
X63500000Y-57785000D03*
%TO.N,Net-(R1-Pad2)*%
X69215000Y-68580000D03*
X66675000Y-68580000D03*
X59690000Y-67945000D03*
%TD*%
D20*
%TO.N,Net-(R2-Pad1)*%
X55880000Y-61150000D02*
X56960000Y-62230000D01*
X55880000Y-59055000D02*
X55880000Y-61150000D01*
X59690000Y-56238604D02*
X59690000Y-57785000D01*
X59455000Y-58020000D02*
X56915000Y-58020000D01*
X59690000Y-57785000D02*
X59455000Y-58020000D01*
X59690000Y-56238604D02*
X60683604Y-55245000D01*
X56915000Y-58020000D02*
X55880000Y-59055000D01*
X60683604Y-55245000D02*
X61025000Y-55245000D01*
%TO.N,Net-(R3-Pad1)*%
X65405000Y-55245000D02*
X65975000Y-55245000D01*
X64580000Y-59690000D02*
X64135000Y-59245000D01*
X64135000Y-56515000D02*
X65405000Y-55245000D01*
X64135000Y-59245000D02*
X64135000Y-56515000D01*
%TO.N,Net-(R4-Pad1)*%
X60960000Y-58420000D02*
X58230000Y-58420000D01*
X65405000Y-53975000D02*
X60960000Y-58420000D01*
X65975000Y-53975000D02*
X65405000Y-53975000D01*
X58230000Y-58420000D02*
X56960000Y-59690000D01*
%TO.N,+3.3V*%
X52705000Y-66675000D02*
X52705000Y-66040000D01*
X65975000Y-56515000D02*
X69850000Y-56515000D01*
X64135000Y-71755000D02*
X63500000Y-71120000D01*
X69850000Y-56515000D02*
X71120000Y-57785000D01*
X53340000Y-67310000D02*
X52705000Y-66675000D01*
%TO.N,GND*%
X62835000Y-72170000D02*
X63500000Y-72835000D01*
X55245000Y-66040000D02*
X55245000Y-67310000D01*
X52705000Y-63500000D02*
X55245000Y-66040000D01*
X55245000Y-69566500D02*
X55245000Y-67310000D01*
X61531500Y-72170000D02*
X62835000Y-72170000D01*
X61025000Y-56515000D02*
X61595000Y-56515000D01*
X57848500Y-72170000D02*
X55245000Y-69566500D01*
X57848500Y-72170000D02*
X61531500Y-72170000D01*
X61595000Y-56515000D02*
X62865000Y-55245000D01*
D21*
%TO.N,Net-(SW2-Pad2)*%
X65468500Y-72170000D02*
X69151500Y-72170000D01*
X65468500Y-72170000D02*
X65468500Y-72516500D01*
X65468500Y-72516500D02*
X63500000Y-74485000D01*
%TO.N,Net-(R7-Pad1)*%
X61025000Y-53975000D02*
X62865000Y-53975000D01*
D20*
X59055000Y-53340000D02*
X58865000Y-53340000D01*
X58865000Y-53340000D02*
X57785000Y-54420000D01*
D21*
%TO.N,Net-(R2-Pad2)*%
X69850000Y-69215000D02*
X67310000Y-69215000D01*
X64693750Y-68656250D02*
X63347500Y-67310000D01*
D20*
X67945000Y-68580000D02*
X67310000Y-69215000D01*
D21*
X61595000Y-61442500D02*
X60807500Y-62230000D01*
X63347500Y-67310000D02*
X62382500Y-67310000D01*
X71120000Y-59055000D02*
X71120000Y-67945000D01*
D20*
X66192500Y-64770000D02*
X66192500Y-67310000D01*
X67945000Y-68580000D02*
X67945000Y-67792500D01*
X67945000Y-67792500D02*
X67462500Y-67310000D01*
X67462500Y-67310000D02*
X66192500Y-67310000D01*
D21*
X61595000Y-59233521D02*
X61595000Y-61442500D01*
D20*
X67945000Y-67792500D02*
X68427500Y-67310000D01*
D21*
X64770000Y-57785000D02*
X69850000Y-57785000D01*
X58610000Y-62230000D02*
X60807500Y-62230000D01*
X65252500Y-69215000D02*
X64693750Y-68656250D01*
X63043521Y-57785000D02*
X61595000Y-59233521D01*
D20*
X64617500Y-68580000D02*
X62865000Y-68580000D01*
X56997500Y-68410520D02*
X56997500Y-67310000D01*
D21*
X63500000Y-57785000D02*
X63043521Y-57785000D01*
D20*
X62230000Y-69215000D02*
X57801980Y-69215000D01*
X64693750Y-68656250D02*
X64617500Y-68580000D01*
D21*
X67310000Y-69215000D02*
X65252500Y-69215000D01*
X69850000Y-57785000D02*
X71120000Y-59055000D01*
D20*
X57801980Y-69215000D02*
X56997500Y-68410520D01*
X62865000Y-68580000D02*
X62230000Y-69215000D01*
D21*
X71120000Y-67945000D02*
X69850000Y-69215000D01*
%TO.N,Net-(R1-Pad2)*%
X60807500Y-64922500D02*
X60807500Y-64770000D01*
X70002500Y-67310000D02*
X70002500Y-59690000D01*
D20*
X70002500Y-67792500D02*
X70002500Y-67310000D01*
D21*
X59690000Y-66040000D02*
X58610000Y-64960000D01*
D20*
X64617500Y-67792500D02*
X65405000Y-68580000D01*
X65405000Y-68580000D02*
X66675000Y-68580000D01*
D21*
X59690000Y-67945000D02*
X59690000Y-66040000D01*
X59690000Y-66040000D02*
X60807500Y-64922500D01*
D20*
X64617500Y-67310000D02*
X64617500Y-67792500D01*
X69215000Y-68580000D02*
X70002500Y-67792500D01*
D21*
X58610000Y-64960000D02*
X58610000Y-64770000D01*
%TO.N,Net-(R3-Pad2)*%
X66230000Y-59690000D02*
X68427500Y-59690000D01*
X62382500Y-62230000D02*
X64617500Y-62230000D01*
X64770000Y-62230000D02*
X66230000Y-60770000D01*
X62382500Y-59690000D02*
X62382500Y-62230000D01*
X66230000Y-60770000D02*
X66230000Y-59690000D01*
X64617500Y-62230000D02*
X64770000Y-62230000D01*
X62382500Y-64770000D02*
X64617500Y-64770000D01*
X64617500Y-64770000D02*
X64617500Y-62230000D01*
%TO.N,Net-(R4-Pad2)*%
X58572500Y-67711384D02*
X59441116Y-68580000D01*
X66192500Y-62230000D02*
X68427500Y-62230000D01*
X59441116Y-68580000D02*
X59938884Y-68580000D01*
X65405000Y-65226479D02*
X65405000Y-63017500D01*
X61595000Y-66040000D02*
X64591479Y-66040000D01*
X57785000Y-66522500D02*
X57785000Y-60515000D01*
X58572500Y-67310000D02*
X57785000Y-66522500D01*
X59938884Y-68580000D02*
X60807500Y-67711384D01*
X57785000Y-60515000D02*
X58610000Y-59690000D01*
X65405000Y-63017500D02*
X66192500Y-62230000D01*
X68427500Y-62230000D02*
X68427500Y-64770000D01*
X64591479Y-66040000D02*
X65405000Y-65226479D01*
X60807500Y-66827500D02*
X61595000Y-66040000D01*
X60807500Y-67310000D02*
X60807500Y-66827500D01*
X58572500Y-67310000D02*
X58572500Y-67711384D01*
X60807500Y-67711384D02*
X60807500Y-67310000D01*
X58610000Y-59690000D02*
X60807500Y-59690000D01*
D20*
%TO.N,Net-(R1-Pad1)*%
X59290000Y-54098604D02*
X59290000Y-57150000D01*
X56960000Y-64580000D02*
X56960000Y-64770000D01*
X59290000Y-57150000D02*
X58820000Y-57620000D01*
X61025000Y-52705000D02*
X60683604Y-52705000D01*
X58820000Y-57620000D02*
X56749314Y-57620000D01*
X55480000Y-58889315D02*
X55480000Y-63100000D01*
X60683604Y-52705000D02*
X59290000Y-54098604D01*
X56749314Y-57620000D02*
X55480000Y-58889315D01*
X55480000Y-63100000D02*
X56960000Y-64580000D01*
%TO.N,Net-(SW1-Pad4)*%
X61531500Y-70070000D02*
X62900000Y-70070000D01*
X71755000Y-57150000D02*
X67310000Y-52705000D01*
X63500000Y-69470000D02*
X64100000Y-70070000D01*
X70265000Y-70070000D02*
X71755000Y-68580000D01*
X71755000Y-68580000D02*
X71755000Y-57150000D01*
X61531500Y-70070000D02*
X57848500Y-70070000D01*
X62900000Y-70070000D02*
X63500000Y-69470000D01*
X69151500Y-70070000D02*
X70265000Y-70070000D01*
X64100000Y-70070000D02*
X65468500Y-70070000D01*
X65468500Y-70070000D02*
X69151500Y-70070000D01*
X67310000Y-52705000D02*
X65975000Y-52705000D01*
%TO.N,Net-(TP1-Pad1)*%
X57785000Y-56070000D02*
X57595000Y-56070000D01*
X57595000Y-56070000D02*
X52705000Y-60960000D01*
%TD*%
%TA.AperFunction,Conductor*%
%TO.N,GND*%
G36*
X67955419Y-52149945D02*
G01*
X68021395Y-52174197D01*
X68028010Y-52176843D01*
X68300733Y-52294991D01*
X68654400Y-52448206D01*
X68660836Y-52451212D01*
X69163834Y-52703795D01*
X69270911Y-52757564D01*
X69277186Y-52760941D01*
X69868940Y-53101275D01*
X69875014Y-53105001D01*
X70446589Y-53478246D01*
X70452441Y-53482308D01*
X71002000Y-53887266D01*
X71007592Y-53891635D01*
X71533409Y-54327036D01*
X71538745Y-54331715D01*
X71921761Y-54687225D01*
X72039104Y-54796141D01*
X72044187Y-54801135D01*
X72080627Y-54839012D01*
X72298761Y-55065747D01*
X72517455Y-55293065D01*
X72522243Y-55298331D01*
X72966982Y-55816270D01*
X72971446Y-55821776D01*
X73363852Y-56334818D01*
X73386181Y-56364012D01*
X73390348Y-56369791D01*
X73773766Y-56934602D01*
X73777600Y-56940609D01*
X74128468Y-57526178D01*
X74131956Y-57532391D01*
X74449168Y-58136872D01*
X74452299Y-58143273D01*
X74734820Y-58764692D01*
X74737585Y-58771259D01*
X74984544Y-59407702D01*
X74986932Y-59414416D01*
X75197499Y-60063744D01*
X75199505Y-60070581D01*
X75286366Y-60401055D01*
X75367675Y-60710405D01*
X75373038Y-60730811D01*
X75374654Y-60737749D01*
X75383679Y-60782165D01*
X75510586Y-61406732D01*
X75511807Y-61413753D01*
X75513431Y-61424960D01*
X75592763Y-61972429D01*
X75609704Y-62089342D01*
X75610526Y-62096419D01*
X75625349Y-62265693D01*
X75611365Y-62335299D01*
X75566761Y-62383438D01*
X75440032Y-62462895D01*
X75397010Y-62489869D01*
X75238387Y-62631392D01*
X75235070Y-62635546D01*
X75235069Y-62635547D01*
X75109052Y-62793357D01*
X75109048Y-62793362D01*
X75105738Y-62797508D01*
X75002818Y-62983512D01*
X74932543Y-63184140D01*
X74931652Y-63189376D01*
X74931652Y-63189378D01*
X74899738Y-63377026D01*
X74896900Y-63393710D01*
X74896900Y-63606290D01*
X74897790Y-63611521D01*
X74897790Y-63611525D01*
X74929218Y-63796311D01*
X74932543Y-63815860D01*
X75002818Y-64016488D01*
X75105738Y-64202492D01*
X75109048Y-64206638D01*
X75109052Y-64206643D01*
X75230505Y-64358738D01*
X75238387Y-64368608D01*
X75397010Y-64510131D01*
X75401507Y-64512951D01*
X75401509Y-64512952D01*
X75566760Y-64616561D01*
X75613849Y-64669694D01*
X75625348Y-64734305D01*
X75610526Y-64903579D01*
X75609704Y-64910657D01*
X75511807Y-65586247D01*
X75510586Y-65593268D01*
X75480553Y-65741072D01*
X75395740Y-66158478D01*
X75374654Y-66262249D01*
X75373038Y-66269189D01*
X75199505Y-66929419D01*
X75197499Y-66936256D01*
X74986932Y-67585584D01*
X74984544Y-67592298D01*
X74737585Y-68228741D01*
X74734820Y-68235308D01*
X74452299Y-68856727D01*
X74449168Y-68863128D01*
X74131956Y-69467609D01*
X74128468Y-69473822D01*
X73777600Y-70059391D01*
X73773766Y-70065398D01*
X73409821Y-70601524D01*
X73390348Y-70630209D01*
X73386183Y-70635985D01*
X72971446Y-71178224D01*
X72966982Y-71183730D01*
X72597780Y-71613699D01*
X72522248Y-71701663D01*
X72517461Y-71706928D01*
X72296351Y-71936758D01*
X72044187Y-72198865D01*
X72039104Y-72203859D01*
X71538745Y-72668285D01*
X71533409Y-72672964D01*
X71007592Y-73108365D01*
X71002000Y-73112734D01*
X70452442Y-73517691D01*
X70446589Y-73521754D01*
X69875014Y-73894999D01*
X69868940Y-73898725D01*
X69277186Y-74239059D01*
X69270915Y-74242434D01*
X68660836Y-74548788D01*
X68654400Y-74551794D01*
X68362457Y-74678269D01*
X68028010Y-74823157D01*
X68021394Y-74825804D01*
X67380650Y-75061328D01*
X67373895Y-75063596D01*
X66720884Y-75262516D01*
X66714012Y-75264399D01*
X66050779Y-75426091D01*
X66043811Y-75427582D01*
X65372515Y-75551520D01*
X65365474Y-75552615D01*
X65251715Y-75567026D01*
X64688224Y-75638409D01*
X64681153Y-75639102D01*
X64000151Y-75686472D01*
X63993050Y-75686766D01*
X63559768Y-75692350D01*
X63310431Y-75695564D01*
X63303306Y-75695454D01*
X63050925Y-75684425D01*
X62621313Y-75665651D01*
X62614221Y-75665141D01*
X62335665Y-75637126D01*
X61934975Y-75596829D01*
X61927908Y-75595915D01*
X61253653Y-75489322D01*
X61246649Y-75488011D01*
X60579478Y-75343469D01*
X60572559Y-75341764D01*
X59914632Y-75159739D01*
X59907822Y-75157646D01*
X59261213Y-74938713D01*
X59254540Y-74936241D01*
X58621361Y-74681111D01*
X58614858Y-74678275D01*
X57997078Y-74387744D01*
X57990724Y-74384533D01*
X57390394Y-74059563D01*
X57384226Y-74055995D01*
X56803219Y-73697604D01*
X56797263Y-73693693D01*
X56237459Y-73303040D01*
X56231733Y-73298799D01*
X55994868Y-73112743D01*
X55694869Y-72877096D01*
X55689424Y-72872564D01*
X55177268Y-72421193D01*
X55172077Y-72416351D01*
X54686252Y-71936749D01*
X54681333Y-71931610D01*
X54639697Y-71885576D01*
X54223409Y-71425321D01*
X54218788Y-71419913D01*
X54194639Y-71389971D01*
X53790216Y-70888548D01*
X53785907Y-70882885D01*
X53771909Y-70863366D01*
X53491283Y-70472074D01*
X53388068Y-70328156D01*
X53384080Y-70322250D01*
X53018232Y-69745913D01*
X53014585Y-69739792D01*
X52983263Y-69683669D01*
X52681892Y-69143674D01*
X52678613Y-69137388D01*
X52380150Y-68523416D01*
X52377223Y-68516936D01*
X52349414Y-68450405D01*
X52113951Y-67887088D01*
X52111391Y-67880441D01*
X52107672Y-67869906D01*
X51884149Y-67236727D01*
X51881970Y-67229949D01*
X51864730Y-67170620D01*
X51864929Y-67099624D01*
X51903480Y-67040006D01*
X51968143Y-67010694D01*
X52029954Y-67017479D01*
X52094684Y-67041745D01*
X52156866Y-67048500D01*
X52162464Y-67048500D01*
X52162957Y-67048645D01*
X52163680Y-67048684D01*
X52163671Y-67048854D01*
X52230585Y-67068502D01*
X52262426Y-67097796D01*
X52271013Y-67108987D01*
X52277568Y-67114017D01*
X52296379Y-67128452D01*
X52308770Y-67139319D01*
X52500907Y-67331456D01*
X52534933Y-67393768D01*
X52537211Y-67408256D01*
X52544163Y-67479160D01*
X52601418Y-67651273D01*
X52605065Y-67657295D01*
X52605066Y-67657297D01*
X52644568Y-67722522D01*
X52695380Y-67806424D01*
X52821382Y-67936902D01*
X52827278Y-67940760D01*
X52957572Y-68026022D01*
X52973159Y-68036222D01*
X52979763Y-68038678D01*
X52979765Y-68038679D01*
X53136558Y-68096990D01*
X53136560Y-68096990D01*
X53143168Y-68099448D01*
X53226995Y-68110633D01*
X53315980Y-68122507D01*
X53315984Y-68122507D01*
X53322961Y-68123438D01*
X53329972Y-68122800D01*
X53329976Y-68122800D01*
X53472459Y-68109832D01*
X53503600Y-68106998D01*
X53510302Y-68104820D01*
X53510304Y-68104820D01*
X53669409Y-68053124D01*
X53669412Y-68053123D01*
X53676108Y-68050947D01*
X53831912Y-67958069D01*
X53963266Y-67832982D01*
X54063643Y-67681902D01*
X54128055Y-67512338D01*
X54129035Y-67505366D01*
X54152748Y-67336639D01*
X54152748Y-67336636D01*
X54153299Y-67332717D01*
X54153616Y-67310000D01*
X54133397Y-67129745D01*
X54122272Y-67097797D01*
X54076064Y-66965106D01*
X54076062Y-66965103D01*
X54073745Y-66958448D01*
X53977626Y-66804624D01*
X53849815Y-66675918D01*
X53843865Y-66672142D01*
X53771987Y-66626527D01*
X53725188Y-66573138D01*
X53713500Y-66520141D01*
X53713500Y-65491866D01*
X53706745Y-65429684D01*
X53655615Y-65293295D01*
X53568261Y-65176739D01*
X53451705Y-65089385D01*
X53315316Y-65038255D01*
X53253134Y-65031500D01*
X52156866Y-65031500D01*
X52094684Y-65038255D01*
X51958295Y-65089385D01*
X51841739Y-65176739D01*
X51754385Y-65293295D01*
X51703255Y-65429684D01*
X51702402Y-65437535D01*
X51702257Y-65438145D01*
X51667039Y-65499790D01*
X51604083Y-65532609D01*
X51533378Y-65526182D01*
X51477372Y-65482549D01*
X51455486Y-65430275D01*
X51419878Y-65222440D01*
X51418875Y-65215401D01*
X51414293Y-65175062D01*
X51364221Y-64734305D01*
X51341818Y-64537105D01*
X51341214Y-64530005D01*
X51302623Y-63848438D01*
X51302422Y-63841315D01*
X51302422Y-63158685D01*
X51302623Y-63151562D01*
X51341214Y-62469995D01*
X51341818Y-62462895D01*
X51400032Y-61950469D01*
X51418877Y-61784584D01*
X51419877Y-61777565D01*
X51499958Y-61310151D01*
X51502611Y-61294668D01*
X51533829Y-61230904D01*
X51594565Y-61194139D01*
X51665536Y-61196048D01*
X51724209Y-61236023D01*
X51747920Y-61281215D01*
X51762783Y-61333050D01*
X51785100Y-61376474D01*
X51799816Y-61405107D01*
X51853187Y-61508956D01*
X51976035Y-61663953D01*
X52126650Y-61792136D01*
X52299294Y-61888624D01*
X52487392Y-61949740D01*
X52683777Y-61973158D01*
X52689912Y-61972686D01*
X52689914Y-61972686D01*
X52874830Y-61958457D01*
X52874834Y-61958456D01*
X52880972Y-61957984D01*
X53071463Y-61904798D01*
X53076967Y-61902018D01*
X53076969Y-61902017D01*
X53242495Y-61818404D01*
X53242497Y-61818403D01*
X53247996Y-61815625D01*
X53403847Y-61693861D01*
X53533078Y-61544145D01*
X53630769Y-61372179D01*
X53693197Y-61184513D01*
X53717985Y-60988295D01*
X53718380Y-60960000D01*
X53710545Y-60880090D01*
X53723805Y-60810343D01*
X53746849Y-60778700D01*
X54656405Y-59869144D01*
X54718717Y-59835118D01*
X54789532Y-59840183D01*
X54846368Y-59882730D01*
X54871179Y-59949250D01*
X54871500Y-59958239D01*
X54871500Y-63051864D01*
X54870422Y-63068307D01*
X54866250Y-63100000D01*
X54871500Y-63139880D01*
X54871500Y-63139885D01*
X54881158Y-63213236D01*
X54881192Y-63213498D01*
X54881192Y-63213500D01*
X54885823Y-63248676D01*
X54887162Y-63258851D01*
X54948476Y-63406876D01*
X54953503Y-63413427D01*
X54953504Y-63413429D01*
X55021520Y-63502069D01*
X55021526Y-63502075D01*
X55046013Y-63533987D01*
X55052568Y-63539017D01*
X55071379Y-63553452D01*
X55083770Y-63564319D01*
X56014595Y-64495144D01*
X56048621Y-64557456D01*
X56051500Y-64584239D01*
X56051501Y-65101634D01*
X56058247Y-65175062D01*
X56060246Y-65181440D01*
X56060246Y-65181441D01*
X56071994Y-65218927D01*
X56109528Y-65338699D01*
X56198361Y-65485381D01*
X56319619Y-65606639D01*
X56466301Y-65695472D01*
X56473548Y-65697743D01*
X56473550Y-65697744D01*
X56514357Y-65710532D01*
X56629938Y-65746753D01*
X56703365Y-65753500D01*
X56713440Y-65753500D01*
X57025501Y-65753499D01*
X57093620Y-65773501D01*
X57140113Y-65827156D01*
X57151500Y-65879499D01*
X57151500Y-66200500D01*
X57131498Y-66268621D01*
X57077842Y-66315114D01*
X57025500Y-66326500D01*
X56730428Y-66326500D01*
X56727182Y-66326837D01*
X56727178Y-66326837D01*
X56695799Y-66330093D01*
X56629018Y-66337022D01*
X56468151Y-66390692D01*
X56323945Y-66479929D01*
X56204136Y-66599947D01*
X56115151Y-66744308D01*
X56061762Y-66905269D01*
X56051500Y-67005428D01*
X56051500Y-67614572D01*
X56062022Y-67715982D01*
X56115692Y-67876849D01*
X56204929Y-68021055D01*
X56324947Y-68140864D01*
X56331178Y-68144705D01*
X56336923Y-68149242D01*
X56335718Y-68150768D01*
X56376611Y-68196210D01*
X56389000Y-68250694D01*
X56389000Y-68362384D01*
X56387922Y-68378827D01*
X56383750Y-68410520D01*
X56389000Y-68450400D01*
X56389000Y-68450405D01*
X56395187Y-68497399D01*
X56404662Y-68569371D01*
X56465976Y-68717396D01*
X56471003Y-68723947D01*
X56471004Y-68723949D01*
X56539020Y-68812589D01*
X56539026Y-68812595D01*
X56563513Y-68844507D01*
X56570068Y-68849537D01*
X56588879Y-68863972D01*
X56601270Y-68874839D01*
X56880827Y-69154396D01*
X56914853Y-69216708D01*
X56909788Y-69287523D01*
X56867298Y-69344316D01*
X56830440Y-69371939D01*
X56743086Y-69488495D01*
X56691956Y-69624884D01*
X56685201Y-69687066D01*
X56685201Y-70452934D01*
X56691956Y-70515116D01*
X56743086Y-70651505D01*
X56830440Y-70768061D01*
X56946996Y-70855415D01*
X57083385Y-70906545D01*
X57145567Y-70913300D01*
X58551433Y-70913300D01*
X58613615Y-70906545D01*
X58750004Y-70855415D01*
X58866560Y-70768061D01*
X58895885Y-70728933D01*
X58952742Y-70686420D01*
X58996709Y-70678500D01*
X60383291Y-70678500D01*
X60451412Y-70698502D01*
X60484114Y-70728931D01*
X60513440Y-70768061D01*
X60629996Y-70855415D01*
X60766385Y-70906545D01*
X60828567Y-70913300D01*
X62234433Y-70913300D01*
X62296615Y-70906545D01*
X62346271Y-70887930D01*
X62417077Y-70882747D01*
X62479446Y-70916668D01*
X62513576Y-70978923D01*
X62516500Y-71005912D01*
X62516501Y-71244627D01*
X62516501Y-71376634D01*
X62523247Y-71450062D01*
X62525246Y-71456440D01*
X62525246Y-71456441D01*
X62566630Y-71588495D01*
X62574528Y-71613699D01*
X62663361Y-71760381D01*
X62784619Y-71881639D01*
X62931301Y-71970472D01*
X62938548Y-71972743D01*
X62938550Y-71972744D01*
X63004836Y-71993517D01*
X63094938Y-72021753D01*
X63168365Y-72028500D01*
X63285387Y-72028500D01*
X63353508Y-72048502D01*
X63395548Y-72096800D01*
X63396418Y-72096273D01*
X63490380Y-72251424D01*
X63616382Y-72381902D01*
X63768159Y-72481222D01*
X63774763Y-72483678D01*
X63774765Y-72483679D01*
X63931558Y-72541990D01*
X63931560Y-72541990D01*
X63938168Y-72544448D01*
X64021995Y-72555633D01*
X64110980Y-72567507D01*
X64110984Y-72567507D01*
X64117961Y-72568438D01*
X64124972Y-72567800D01*
X64124976Y-72567800D01*
X64192956Y-72561613D01*
X64262610Y-72575358D01*
X64313774Y-72624580D01*
X64322355Y-72642857D01*
X64327655Y-72656992D01*
X64332843Y-72727799D01*
X64298771Y-72790324D01*
X63549500Y-73539595D01*
X63487188Y-73573621D01*
X63460405Y-73576500D01*
X63186386Y-73576501D01*
X63168366Y-73576501D01*
X63165508Y-73576764D01*
X63165499Y-73576764D01*
X63129996Y-73580026D01*
X63094938Y-73583247D01*
X63088560Y-73585246D01*
X63088559Y-73585246D01*
X62938550Y-73632256D01*
X62938548Y-73632257D01*
X62931301Y-73634528D01*
X62784619Y-73723361D01*
X62663361Y-73844619D01*
X62574528Y-73991301D01*
X62523247Y-74154938D01*
X62516500Y-74228365D01*
X62516501Y-74741634D01*
X62516764Y-74744492D01*
X62516764Y-74744501D01*
X62520026Y-74780004D01*
X62523247Y-74815062D01*
X62574528Y-74978699D01*
X62663361Y-75125381D01*
X62784619Y-75246639D01*
X62931301Y-75335472D01*
X62938548Y-75337743D01*
X62938550Y-75337744D01*
X62956819Y-75343469D01*
X63094938Y-75386753D01*
X63168365Y-75393500D01*
X63171263Y-75393500D01*
X63500860Y-75393499D01*
X63831634Y-75393499D01*
X63834492Y-75393236D01*
X63834501Y-75393236D01*
X63870004Y-75389974D01*
X63905062Y-75386753D01*
X63911447Y-75384752D01*
X64061450Y-75337744D01*
X64061452Y-75337743D01*
X64068699Y-75335472D01*
X64215381Y-75246639D01*
X64336639Y-75125381D01*
X64425472Y-74978699D01*
X64476753Y-74815062D01*
X64483500Y-74741635D01*
X64483499Y-74449594D01*
X64503501Y-74381475D01*
X64520404Y-74360500D01*
X65830699Y-73050205D01*
X65893011Y-73016179D01*
X65919794Y-73013300D01*
X66171433Y-73013300D01*
X66233615Y-73006545D01*
X66370004Y-72955415D01*
X66486560Y-72868061D01*
X66497148Y-72853933D01*
X66554007Y-72811420D01*
X66597973Y-72803500D01*
X68022027Y-72803500D01*
X68090148Y-72823502D01*
X68122851Y-72853932D01*
X68133440Y-72868061D01*
X68249996Y-72955415D01*
X68386385Y-73006545D01*
X68448567Y-73013300D01*
X69854433Y-73013300D01*
X69916615Y-73006545D01*
X70053004Y-72955415D01*
X70169560Y-72868061D01*
X70256914Y-72751505D01*
X70308044Y-72615116D01*
X70314799Y-72552934D01*
X70314799Y-71787066D01*
X70308044Y-71724884D01*
X70256914Y-71588495D01*
X70169560Y-71471939D01*
X70053004Y-71384585D01*
X69916615Y-71333455D01*
X69854433Y-71326700D01*
X68448567Y-71326700D01*
X68386385Y-71333455D01*
X68249996Y-71384585D01*
X68133440Y-71471939D01*
X68122852Y-71486067D01*
X68065993Y-71528580D01*
X68022027Y-71536500D01*
X66597973Y-71536500D01*
X66529852Y-71516498D01*
X66497149Y-71486068D01*
X66486560Y-71471939D01*
X66370004Y-71384585D01*
X66233615Y-71333455D01*
X66171433Y-71326700D01*
X64890631Y-71326700D01*
X64822510Y-71306698D01*
X64783780Y-71267474D01*
X64772626Y-71249624D01*
X64649826Y-71125964D01*
X64616019Y-71063533D01*
X64621331Y-70992736D01*
X64664075Y-70936049D01*
X64730682Y-70911470D01*
X64752834Y-70911917D01*
X64765567Y-70913300D01*
X66171433Y-70913300D01*
X66233615Y-70906545D01*
X66370004Y-70855415D01*
X66486560Y-70768061D01*
X66515885Y-70728933D01*
X66572742Y-70686420D01*
X66616709Y-70678500D01*
X68003291Y-70678500D01*
X68071412Y-70698502D01*
X68104114Y-70728931D01*
X68133440Y-70768061D01*
X68249996Y-70855415D01*
X68386385Y-70906545D01*
X68448567Y-70913300D01*
X69854433Y-70913300D01*
X69916615Y-70906545D01*
X70053004Y-70855415D01*
X70169560Y-70768061D01*
X70197414Y-70730896D01*
X70254271Y-70688381D01*
X70281796Y-70681539D01*
X70304876Y-70678501D01*
X70304884Y-70678500D01*
X70304885Y-70678500D01*
X70406046Y-70665182D01*
X70423851Y-70662838D01*
X70571876Y-70601524D01*
X70667072Y-70528477D01*
X70667075Y-70528474D01*
X70698987Y-70503987D01*
X70704017Y-70497432D01*
X70718452Y-70478621D01*
X70729319Y-70466230D01*
X72151234Y-69044315D01*
X72163625Y-69033448D01*
X72182437Y-69019013D01*
X72188987Y-69013987D01*
X72213474Y-68982075D01*
X72213480Y-68982069D01*
X72281496Y-68893429D01*
X72281497Y-68893427D01*
X72286524Y-68886876D01*
X72317293Y-68812592D01*
X72347838Y-68738850D01*
X72363500Y-68619885D01*
X72363500Y-68619878D01*
X72368750Y-68580000D01*
X72364578Y-68548307D01*
X72363500Y-68531864D01*
X72363500Y-57198136D01*
X72364578Y-57181690D01*
X72367672Y-57158188D01*
X72368750Y-57150000D01*
X72363500Y-57110122D01*
X72363500Y-57110115D01*
X72347838Y-56991150D01*
X72339804Y-56971753D01*
X72289685Y-56850757D01*
X72286524Y-56843125D01*
X72281497Y-56836574D01*
X72281495Y-56836570D01*
X72266722Y-56817318D01*
X72213483Y-56747936D01*
X72213477Y-56747928D01*
X72213474Y-56747925D01*
X72188987Y-56716013D01*
X72182432Y-56710983D01*
X72163621Y-56696548D01*
X72151230Y-56685681D01*
X67822852Y-52357303D01*
X67788826Y-52294991D01*
X67793891Y-52224176D01*
X67836438Y-52167340D01*
X67902958Y-52142529D01*
X67955419Y-52149945D01*
G37*
%TD.AperFunction*%
%TA.AperFunction,Conductor*%
G36*
X63559768Y-51307650D02*
G01*
X63993050Y-51313234D01*
X64000151Y-51313528D01*
X64681153Y-51360898D01*
X64688224Y-51361591D01*
X65244003Y-51431997D01*
X65365474Y-51447385D01*
X65372515Y-51448480D01*
X66043811Y-51572418D01*
X66050779Y-51573909D01*
X66355037Y-51648085D01*
X66416482Y-51683653D01*
X66448943Y-51746794D01*
X66442114Y-51817461D01*
X66398164Y-51873219D01*
X66325193Y-51896500D01*
X65083498Y-51896500D01*
X65081050Y-51896693D01*
X65081042Y-51896693D01*
X65052579Y-51898933D01*
X65052574Y-51898934D01*
X65046169Y-51899438D01*
X64946231Y-51928472D01*
X64894012Y-51943643D01*
X64894010Y-51943644D01*
X64886399Y-51945855D01*
X64879572Y-51949892D01*
X64879573Y-51949892D01*
X64750020Y-52026509D01*
X64750017Y-52026511D01*
X64743193Y-52030547D01*
X64625547Y-52148193D01*
X64621511Y-52155017D01*
X64621509Y-52155020D01*
X64567395Y-52246523D01*
X64540855Y-52291399D01*
X64494438Y-52451169D01*
X64491500Y-52488498D01*
X64491500Y-52921502D01*
X64491693Y-52923950D01*
X64491693Y-52923958D01*
X64493124Y-52942133D01*
X64494438Y-52958831D01*
X64540855Y-53118601D01*
X64625547Y-53261807D01*
X64628229Y-53264489D01*
X64653502Y-53328861D01*
X64639600Y-53398484D01*
X64629428Y-53414312D01*
X64625547Y-53418193D01*
X64540855Y-53561399D01*
X64494438Y-53721169D01*
X64491500Y-53758498D01*
X64491500Y-53975761D01*
X64471498Y-54043882D01*
X64454595Y-54064856D01*
X62582988Y-55936463D01*
X62520676Y-55970489D01*
X62449861Y-55965424D01*
X62393025Y-55922877D01*
X62368214Y-55856357D01*
X62385440Y-55783229D01*
X62455108Y-55665427D01*
X62459145Y-55658601D01*
X62505562Y-55498831D01*
X62508500Y-55461502D01*
X62508500Y-55028498D01*
X62505562Y-54991169D01*
X62503769Y-54984997D01*
X62503768Y-54984992D01*
X62489847Y-54937077D01*
X62481911Y-54909761D01*
X62482114Y-54838766D01*
X62520668Y-54779149D01*
X62585332Y-54749841D01*
X62646826Y-54756511D01*
X62668168Y-54764448D01*
X62751995Y-54775633D01*
X62840980Y-54787507D01*
X62840984Y-54787507D01*
X62847961Y-54788438D01*
X62854972Y-54787800D01*
X62854976Y-54787800D01*
X62997459Y-54774832D01*
X63028600Y-54771998D01*
X63035302Y-54769820D01*
X63035304Y-54769820D01*
X63194409Y-54718124D01*
X63194412Y-54718123D01*
X63201108Y-54715947D01*
X63356912Y-54623069D01*
X63488266Y-54497982D01*
X63588643Y-54346902D01*
X63647675Y-54191502D01*
X63650555Y-54183920D01*
X63650556Y-54183918D01*
X63653055Y-54177338D01*
X63654035Y-54170366D01*
X63677748Y-54001639D01*
X63677748Y-54001636D01*
X63678299Y-53997717D01*
X63678616Y-53975000D01*
X63658397Y-53794745D01*
X63656080Y-53788091D01*
X63601064Y-53630106D01*
X63601062Y-53630103D01*
X63598745Y-53623448D01*
X63502626Y-53469624D01*
X63497664Y-53464627D01*
X63379778Y-53345915D01*
X63379774Y-53345912D01*
X63374815Y-53340918D01*
X63363697Y-53333862D01*
X63314114Y-53302396D01*
X63221666Y-53243727D01*
X63192463Y-53233328D01*
X63057425Y-53185243D01*
X63057420Y-53185242D01*
X63050790Y-53182881D01*
X63043802Y-53182048D01*
X63043799Y-53182047D01*
X62920698Y-53167368D01*
X62870680Y-53161404D01*
X62863677Y-53162140D01*
X62863676Y-53162140D01*
X62697288Y-53179628D01*
X62697286Y-53179629D01*
X62690288Y-53180364D01*
X62642991Y-53196465D01*
X62572060Y-53199483D01*
X62510756Y-53163673D01*
X62478545Y-53100404D01*
X62481390Y-53042035D01*
X62503767Y-52965011D01*
X62503768Y-52965007D01*
X62505562Y-52958831D01*
X62506877Y-52942133D01*
X62508307Y-52923958D01*
X62508307Y-52923950D01*
X62508500Y-52921502D01*
X62508500Y-52488498D01*
X62505562Y-52451169D01*
X62459145Y-52291399D01*
X62432605Y-52246523D01*
X62378491Y-52155020D01*
X62378489Y-52155017D01*
X62374453Y-52148193D01*
X62256807Y-52030547D01*
X62249983Y-52026511D01*
X62249980Y-52026509D01*
X62120427Y-51949892D01*
X62120428Y-51949892D01*
X62113601Y-51945855D01*
X62105990Y-51943644D01*
X62105988Y-51943643D01*
X62053769Y-51928472D01*
X61953831Y-51899438D01*
X61947426Y-51898934D01*
X61947421Y-51898933D01*
X61918958Y-51896693D01*
X61918950Y-51896693D01*
X61916502Y-51896500D01*
X60648501Y-51896500D01*
X60580380Y-51876498D01*
X60533887Y-51822842D01*
X60523783Y-51752568D01*
X60553277Y-51687988D01*
X60613003Y-51649604D01*
X60621822Y-51647357D01*
X61246649Y-51511989D01*
X61253653Y-51510678D01*
X61927908Y-51404085D01*
X61934975Y-51403171D01*
X62355319Y-51360897D01*
X62614221Y-51334859D01*
X62621313Y-51334349D01*
X63050925Y-51315575D01*
X63303306Y-51304546D01*
X63310431Y-51304436D01*
X63559768Y-51307650D01*
G37*
%TD.AperFunction*%
%TA.AperFunction,Conductor*%
G36*
X67667012Y-53923015D02*
G01*
X67673595Y-53929144D01*
X69435856Y-55691405D01*
X69469882Y-55753717D01*
X69464817Y-55824532D01*
X69422270Y-55881368D01*
X69355750Y-55906179D01*
X69346761Y-55906500D01*
X67483439Y-55906500D01*
X67415318Y-55886498D01*
X67368825Y-55832842D01*
X67358721Y-55762568D01*
X67374984Y-55716364D01*
X67409145Y-55658601D01*
X67455562Y-55498831D01*
X67458500Y-55461502D01*
X67458500Y-55028498D01*
X67455562Y-54991169D01*
X67426528Y-54891231D01*
X67411357Y-54839012D01*
X67411356Y-54839010D01*
X67409145Y-54831399D01*
X67324453Y-54688193D01*
X67321771Y-54685511D01*
X67296498Y-54621139D01*
X67310400Y-54551516D01*
X67320572Y-54535688D01*
X67324453Y-54531807D01*
X67409145Y-54388601D01*
X67455562Y-54228831D01*
X67458500Y-54191502D01*
X67458500Y-54018239D01*
X67478502Y-53950118D01*
X67532158Y-53903625D01*
X67602432Y-53893521D01*
X67667012Y-53923015D01*
G37*
%TD.AperFunction*%
%TD*%
%TA.AperFunction,NonConductor*%
G36*
X62374376Y-55935497D02*
G01*
X62418845Y-55990841D01*
X62426334Y-56061442D01*
X62391463Y-56127988D01*
X60744856Y-57774595D01*
X60682544Y-57808621D01*
X60655761Y-57811500D01*
X60424500Y-57811500D01*
X60356379Y-57791498D01*
X60309886Y-57737842D01*
X60298500Y-57685500D01*
X60298500Y-56542843D01*
X60318502Y-56474722D01*
X60335405Y-56453748D01*
X60698748Y-56090405D01*
X60761060Y-56056379D01*
X60787843Y-56053500D01*
X61916502Y-56053500D01*
X61918950Y-56053307D01*
X61918958Y-56053307D01*
X61947421Y-56051067D01*
X61947426Y-56051066D01*
X61953831Y-56050562D01*
X62053769Y-56021528D01*
X62105988Y-56006357D01*
X62105990Y-56006356D01*
X62113601Y-56004145D01*
X62238229Y-55930440D01*
X62307045Y-55912980D01*
X62374376Y-55935497D01*
G37*
%TD.AperFunction*%
%TA.AperFunction,NonConductor*%
G36*
X69603527Y-58438502D02*
G01*
X69624501Y-58455405D01*
X69678935Y-58509839D01*
X69712961Y-58572151D01*
X69707896Y-58642966D01*
X69665349Y-58699802D01*
X69629717Y-58718457D01*
X69473151Y-58770692D01*
X69328945Y-58859929D01*
X69304113Y-58884805D01*
X69241832Y-58918884D01*
X69171012Y-58913882D01*
X69125922Y-58884960D01*
X69105233Y-58864307D01*
X69100053Y-58859136D01*
X68955692Y-58770151D01*
X68939234Y-58764692D01*
X68801262Y-58718928D01*
X68801260Y-58718928D01*
X68794731Y-58716762D01*
X68694572Y-58706500D01*
X68160428Y-58706500D01*
X68157182Y-58706837D01*
X68157178Y-58706837D01*
X68123397Y-58710342D01*
X68059018Y-58717022D01*
X67898151Y-58770692D01*
X67753945Y-58859929D01*
X67634136Y-58979947D01*
X67630296Y-58986177D01*
X67630295Y-58986178D01*
X67623861Y-58996616D01*
X67571088Y-59044110D01*
X67516601Y-59056500D01*
X67112225Y-59056500D01*
X67044104Y-59036498D01*
X67004449Y-58995771D01*
X66995576Y-58981120D01*
X66991639Y-58974619D01*
X66870381Y-58853361D01*
X66723699Y-58764528D01*
X66716452Y-58762257D01*
X66716450Y-58762256D01*
X66650164Y-58741483D01*
X66560062Y-58713247D01*
X66486635Y-58706500D01*
X66483737Y-58706500D01*
X66229335Y-58706501D01*
X65973366Y-58706501D01*
X65970508Y-58706764D01*
X65970499Y-58706764D01*
X65934996Y-58710026D01*
X65899938Y-58713247D01*
X65893560Y-58715246D01*
X65893559Y-58715246D01*
X65743550Y-58762256D01*
X65743548Y-58762257D01*
X65736301Y-58764528D01*
X65589619Y-58853361D01*
X65494095Y-58948885D01*
X65431783Y-58982911D01*
X65360968Y-58977846D01*
X65315905Y-58948885D01*
X65220381Y-58853361D01*
X65073699Y-58764528D01*
X65073231Y-58764381D01*
X65021675Y-58720094D01*
X65001381Y-58652060D01*
X65021091Y-58583854D01*
X65074546Y-58537131D01*
X65088435Y-58531689D01*
X65106108Y-58525947D01*
X65256540Y-58436271D01*
X65321058Y-58418500D01*
X69535406Y-58418500D01*
X69603527Y-58438502D01*
G37*
%TD.AperFunction*%
%TA.AperFunction,NonConductor*%
G36*
X63267320Y-58561117D02*
G01*
X63296563Y-58571992D01*
X63296566Y-58571993D01*
X63303168Y-58574448D01*
X63310151Y-58575380D01*
X63310152Y-58575380D01*
X63417165Y-58589659D01*
X63482042Y-58618495D01*
X63521030Y-58677828D01*
X63526500Y-58714552D01*
X63526500Y-59133237D01*
X63506498Y-59201358D01*
X63452842Y-59247851D01*
X63382568Y-59257955D01*
X63317988Y-59228461D01*
X63280978Y-59173115D01*
X63264308Y-59123151D01*
X63175071Y-58978945D01*
X63055053Y-58859136D01*
X63055776Y-58858411D01*
X63018539Y-58805897D01*
X63015302Y-58734974D01*
X63048596Y-58675830D01*
X63134306Y-58590120D01*
X63196618Y-58556094D01*
X63267320Y-58561117D01*
G37*
%TD.AperFunction*%
%TA.AperFunction,NonConductor*%
G36*
X59653918Y-52006088D02*
G01*
X59686026Y-52069409D01*
X59678802Y-52140037D01*
X59670598Y-52156561D01*
X59590855Y-52291399D01*
X59544438Y-52451169D01*
X59542667Y-52473671D01*
X59541663Y-52486426D01*
X59516377Y-52552767D01*
X59459238Y-52594906D01*
X59388388Y-52599465D01*
X59373784Y-52595238D01*
X59247425Y-52550243D01*
X59247420Y-52550242D01*
X59240790Y-52547881D01*
X59233802Y-52547048D01*
X59233799Y-52547047D01*
X59110698Y-52532368D01*
X59060680Y-52526404D01*
X59053677Y-52527140D01*
X59053676Y-52527140D01*
X58887288Y-52544628D01*
X58887286Y-52544629D01*
X58880288Y-52545364D01*
X58708579Y-52603818D01*
X58692406Y-52613768D01*
X58560095Y-52695166D01*
X58560092Y-52695168D01*
X58554088Y-52698862D01*
X58549053Y-52703793D01*
X58549050Y-52703795D01*
X58490695Y-52760941D01*
X58424493Y-52825771D01*
X58326235Y-52978238D01*
X58323825Y-52984858D01*
X58323825Y-52984859D01*
X58312910Y-53014848D01*
X58283604Y-53060847D01*
X57869856Y-53474595D01*
X57807544Y-53508621D01*
X57780761Y-53511500D01*
X57473237Y-53511501D01*
X57453366Y-53511501D01*
X57450508Y-53511764D01*
X57450499Y-53511764D01*
X57414996Y-53515026D01*
X57379938Y-53518247D01*
X57373560Y-53520246D01*
X57373559Y-53520246D01*
X57223550Y-53567256D01*
X57223548Y-53567257D01*
X57216301Y-53569528D01*
X57069619Y-53658361D01*
X56948361Y-53779619D01*
X56859528Y-53926301D01*
X56857257Y-53933548D01*
X56857256Y-53933550D01*
X56844028Y-53975761D01*
X56808247Y-54089938D01*
X56801500Y-54163365D01*
X56801501Y-54676634D01*
X56808247Y-54750062D01*
X56810246Y-54756440D01*
X56810246Y-54756441D01*
X56833737Y-54831399D01*
X56859528Y-54913699D01*
X56948361Y-55060381D01*
X57043885Y-55155905D01*
X57077911Y-55218217D01*
X57072846Y-55289032D01*
X57043885Y-55334095D01*
X56948361Y-55429619D01*
X56859528Y-55576301D01*
X56808247Y-55739938D01*
X56801500Y-55813365D01*
X56801500Y-55950761D01*
X56781498Y-56018882D01*
X56764595Y-56039856D01*
X52886443Y-59918008D01*
X52824131Y-59952034D01*
X52784178Y-59954223D01*
X52718204Y-59947289D01*
X52718202Y-59947289D01*
X52712075Y-59946645D01*
X52652860Y-59952034D01*
X52521251Y-59964011D01*
X52521248Y-59964012D01*
X52515112Y-59964570D01*
X52509206Y-59966308D01*
X52509202Y-59966309D01*
X52424103Y-59991355D01*
X52325381Y-60020410D01*
X52319923Y-60023263D01*
X52319919Y-60023265D01*
X52242491Y-60063744D01*
X52150110Y-60112040D01*
X51995975Y-60235968D01*
X51992011Y-60240692D01*
X51990228Y-60242438D01*
X51927563Y-60275808D01*
X51856804Y-60270002D01*
X51800417Y-60226862D01*
X51776305Y-60160086D01*
X51781076Y-60117254D01*
X51795637Y-60067145D01*
X51881972Y-59770044D01*
X51884151Y-59763267D01*
X51927481Y-59640527D01*
X52111392Y-59119556D01*
X52113952Y-59112909D01*
X52145891Y-59036498D01*
X52377229Y-58483050D01*
X52380156Y-58476570D01*
X52398662Y-58438502D01*
X52678613Y-57862612D01*
X52681892Y-57856326D01*
X53014590Y-57260200D01*
X53018232Y-57254087D01*
X53064189Y-57181690D01*
X53375336Y-56691525D01*
X53384080Y-56677750D01*
X53388068Y-56671844D01*
X53529439Y-56474722D01*
X53785913Y-56117107D01*
X53790222Y-56111444D01*
X53836957Y-56053500D01*
X54218796Y-55580078D01*
X54223416Y-55574670D01*
X54681342Y-55068381D01*
X54686261Y-55063242D01*
X55172077Y-54583649D01*
X55177268Y-54578807D01*
X55689424Y-54127436D01*
X55694869Y-54122904D01*
X56231734Y-53701201D01*
X56237459Y-53696960D01*
X56797263Y-53306307D01*
X56803219Y-53302396D01*
X57384226Y-52944005D01*
X57390394Y-52940437D01*
X57990724Y-52615467D01*
X57997084Y-52612253D01*
X58004582Y-52608727D01*
X58614858Y-52321725D01*
X58621361Y-52318889D01*
X59254541Y-52063759D01*
X59261202Y-52061291D01*
X59521737Y-51973077D01*
X59592674Y-51970176D01*
X59653918Y-52006088D01*
G37*
%TD.AperFunction*%
%TA.AperFunction,NonConductor*%
G36*
X56703365Y-60673500D02*
G01*
X56713440Y-60673500D01*
X57025501Y-60673499D01*
X57093620Y-60693501D01*
X57140113Y-60747156D01*
X57151500Y-60799499D01*
X57151500Y-61120500D01*
X57131498Y-61188621D01*
X57077842Y-61235114D01*
X57025501Y-61246500D01*
X56929151Y-61246501D01*
X56889240Y-61246501D01*
X56821120Y-61226499D01*
X56800145Y-61209596D01*
X56525405Y-60934856D01*
X56491379Y-60872544D01*
X56488500Y-60845761D01*
X56488500Y-60791441D01*
X56508502Y-60723320D01*
X56562158Y-60676827D01*
X56629732Y-60668997D01*
X56629938Y-60666753D01*
X56703365Y-60673500D01*
G37*
%TD.AperFunction*%
%TA.AperFunction,NonConductor*%
G36*
X67584855Y-60343502D02*
G01*
X67623879Y-60383198D01*
X67634929Y-60401055D01*
X67754947Y-60520864D01*
X67899308Y-60609849D01*
X67906256Y-60612154D01*
X67906257Y-60612154D01*
X68053738Y-60661072D01*
X68053740Y-60661072D01*
X68060269Y-60663238D01*
X68160428Y-60673500D01*
X68694572Y-60673500D01*
X68697818Y-60673163D01*
X68697822Y-60673163D01*
X68737971Y-60668997D01*
X68795982Y-60662978D01*
X68956849Y-60609308D01*
X69101055Y-60520071D01*
X69125887Y-60495195D01*
X69188168Y-60461116D01*
X69258988Y-60466118D01*
X69304078Y-60495040D01*
X69329947Y-60520864D01*
X69328118Y-60522696D01*
X69362160Y-60570723D01*
X69369000Y-60611673D01*
X69369000Y-61308353D01*
X69348998Y-61376474D01*
X69328321Y-61399305D01*
X69328946Y-61399928D01*
X69328945Y-61399929D01*
X69304113Y-61424805D01*
X69241832Y-61458884D01*
X69171012Y-61453882D01*
X69125922Y-61424960D01*
X69105233Y-61404307D01*
X69100053Y-61399136D01*
X68955692Y-61310151D01*
X68948743Y-61307846D01*
X68801262Y-61258928D01*
X68801260Y-61258928D01*
X68794731Y-61256762D01*
X68694572Y-61246500D01*
X68160428Y-61246500D01*
X68157182Y-61246837D01*
X68157178Y-61246837D01*
X68123397Y-61250342D01*
X68059018Y-61257022D01*
X67898151Y-61310692D01*
X67753945Y-61399929D01*
X67634136Y-61519947D01*
X67630296Y-61526177D01*
X67630295Y-61526178D01*
X67623861Y-61536616D01*
X67571088Y-61584110D01*
X67516601Y-61596500D01*
X67103266Y-61596500D01*
X67035145Y-61576498D01*
X66996121Y-61536802D01*
X66988923Y-61525170D01*
X66985071Y-61518945D01*
X66865053Y-61399136D01*
X66830021Y-61377542D01*
X66770452Y-61340823D01*
X66722959Y-61288051D01*
X66711535Y-61217979D01*
X66737479Y-61158222D01*
X66736501Y-61157511D01*
X66739698Y-61153111D01*
X66739809Y-61152855D01*
X66740227Y-61152383D01*
X66741159Y-61151100D01*
X66746586Y-61145321D01*
X66750405Y-61138375D01*
X66750407Y-61138372D01*
X66756348Y-61127566D01*
X66767199Y-61111047D01*
X66774758Y-61101301D01*
X66779614Y-61095041D01*
X66782759Y-61087772D01*
X66782762Y-61087768D01*
X66797174Y-61054463D01*
X66802391Y-61043813D01*
X66823695Y-61005060D01*
X66828733Y-60985437D01*
X66835137Y-60966734D01*
X66840033Y-60955420D01*
X66840033Y-60955419D01*
X66843181Y-60948145D01*
X66844420Y-60940322D01*
X66844423Y-60940312D01*
X66850099Y-60904476D01*
X66852505Y-60892856D01*
X66861528Y-60857711D01*
X66861528Y-60857710D01*
X66863500Y-60850030D01*
X66863500Y-60829776D01*
X66865051Y-60810065D01*
X66866980Y-60797886D01*
X66868220Y-60790057D01*
X66864059Y-60746038D01*
X66863500Y-60734181D01*
X66863500Y-60585710D01*
X66883502Y-60517589D01*
X66900405Y-60496615D01*
X66991639Y-60405381D01*
X67004449Y-60384229D01*
X67056846Y-60336322D01*
X67112225Y-60323500D01*
X67516734Y-60323500D01*
X67584855Y-60343502D01*
G37*
%TD.AperFunction*%
%TA.AperFunction,NonConductor*%
G36*
X63537012Y-59426246D02*
G01*
X63570909Y-59473252D01*
X63603476Y-59551876D01*
X63608503Y-59558427D01*
X63645463Y-59606595D01*
X63671063Y-59672816D01*
X63671500Y-59683299D01*
X63671501Y-59869144D01*
X63671501Y-60021634D01*
X63678247Y-60095062D01*
X63680246Y-60101440D01*
X63680246Y-60101441D01*
X63721194Y-60232104D01*
X63729528Y-60258699D01*
X63818361Y-60405381D01*
X63939619Y-60526639D01*
X64086301Y-60615472D01*
X64093548Y-60617743D01*
X64093550Y-60617744D01*
X64159836Y-60638517D01*
X64249938Y-60666753D01*
X64323365Y-60673500D01*
X64326263Y-60673500D01*
X64580665Y-60673499D01*
X64836634Y-60673499D01*
X64839492Y-60673236D01*
X64839501Y-60673236D01*
X64875004Y-60669974D01*
X64910062Y-60666753D01*
X64916447Y-60664752D01*
X65066450Y-60617744D01*
X65066452Y-60617743D01*
X65073699Y-60615472D01*
X65220381Y-60526639D01*
X65315905Y-60431115D01*
X65378217Y-60397089D01*
X65449032Y-60402154D01*
X65494095Y-60431115D01*
X65494442Y-60431462D01*
X65528468Y-60493774D01*
X65523403Y-60564589D01*
X65494442Y-60609652D01*
X64894499Y-61209595D01*
X64832187Y-61243621D01*
X64805404Y-61246500D01*
X64350428Y-61246500D01*
X64347182Y-61246837D01*
X64347178Y-61246837D01*
X64313397Y-61250342D01*
X64249018Y-61257022D01*
X64088151Y-61310692D01*
X63943945Y-61399929D01*
X63824136Y-61519947D01*
X63820296Y-61526177D01*
X63820295Y-61526178D01*
X63813861Y-61536616D01*
X63761088Y-61584110D01*
X63706601Y-61596500D01*
X63293266Y-61596500D01*
X63225145Y-61576498D01*
X63186121Y-61536802D01*
X63178923Y-61525170D01*
X63175071Y-61518945D01*
X63069696Y-61413753D01*
X63055053Y-61399136D01*
X63056882Y-61397304D01*
X63022840Y-61349277D01*
X63016000Y-61308327D01*
X63016000Y-60611647D01*
X63036002Y-60543526D01*
X63056680Y-60520694D01*
X63056055Y-60520071D01*
X63170693Y-60405233D01*
X63175864Y-60400053D01*
X63264849Y-60255692D01*
X63274412Y-60226862D01*
X63316072Y-60101262D01*
X63316072Y-60101260D01*
X63318238Y-60094731D01*
X63328500Y-59994572D01*
X63328500Y-59521470D01*
X63348502Y-59453349D01*
X63402158Y-59406856D01*
X63472432Y-59396752D01*
X63537012Y-59426246D01*
G37*
%TD.AperFunction*%
%TA.AperFunction,NonConductor*%
G36*
X59964855Y-60343502D02*
G01*
X60003879Y-60383198D01*
X60014929Y-60401055D01*
X60134947Y-60520864D01*
X60279308Y-60609849D01*
X60286256Y-60612154D01*
X60286257Y-60612154D01*
X60433738Y-60661072D01*
X60433740Y-60661072D01*
X60440269Y-60663238D01*
X60540428Y-60673500D01*
X60835500Y-60673500D01*
X60903621Y-60693502D01*
X60950114Y-60747158D01*
X60961500Y-60799500D01*
X60961500Y-61120500D01*
X60941498Y-61188621D01*
X60887842Y-61235114D01*
X60835500Y-61246500D01*
X60540428Y-61246500D01*
X60537182Y-61246837D01*
X60537178Y-61246837D01*
X60503397Y-61250342D01*
X60439018Y-61257022D01*
X60278151Y-61310692D01*
X60133945Y-61399929D01*
X60014136Y-61519947D01*
X60010296Y-61526177D01*
X60010295Y-61526178D01*
X60003861Y-61536616D01*
X59951088Y-61584110D01*
X59896601Y-61596500D01*
X59492225Y-61596500D01*
X59424104Y-61576498D01*
X59384449Y-61535771D01*
X59375576Y-61521120D01*
X59371639Y-61514619D01*
X59250381Y-61393361D01*
X59103699Y-61304528D01*
X59096452Y-61302257D01*
X59096450Y-61302256D01*
X58985246Y-61267407D01*
X58940062Y-61253247D01*
X58866635Y-61246500D01*
X58856560Y-61246500D01*
X58544499Y-61246501D01*
X58476380Y-61226499D01*
X58429887Y-61172844D01*
X58418500Y-61120501D01*
X58418500Y-60829594D01*
X58438502Y-60761473D01*
X58455405Y-60740499D01*
X58485499Y-60710405D01*
X58547811Y-60676379D01*
X58574594Y-60673500D01*
X58848614Y-60673499D01*
X58866634Y-60673499D01*
X58869492Y-60673236D01*
X58869501Y-60673236D01*
X58905004Y-60669974D01*
X58940062Y-60666753D01*
X58946447Y-60664752D01*
X59096450Y-60617744D01*
X59096452Y-60617743D01*
X59103699Y-60615472D01*
X59250381Y-60526639D01*
X59371639Y-60405381D01*
X59384449Y-60384229D01*
X59436846Y-60336322D01*
X59492225Y-60323500D01*
X59896734Y-60323500D01*
X59964855Y-60343502D01*
G37*
%TD.AperFunction*%
%TA.AperFunction,NonConductor*%
G36*
X57093620Y-63233501D02*
G01*
X57140113Y-63287156D01*
X57151500Y-63339499D01*
X57151500Y-63606761D01*
X57131498Y-63674882D01*
X57077842Y-63721375D01*
X57007568Y-63731479D01*
X56942988Y-63701985D01*
X56936405Y-63695856D01*
X56669144Y-63428595D01*
X56635118Y-63366283D01*
X56640183Y-63295468D01*
X56682730Y-63238632D01*
X56749250Y-63213821D01*
X56758239Y-63213500D01*
X56839321Y-63213500D01*
X57025501Y-63213499D01*
X57093620Y-63233501D01*
G37*
%TD.AperFunction*%
%TA.AperFunction,NonConductor*%
G36*
X69258988Y-63006118D02*
G01*
X69304078Y-63035040D01*
X69329947Y-63060864D01*
X69328118Y-63062696D01*
X69362160Y-63110723D01*
X69369000Y-63151673D01*
X69369000Y-63848353D01*
X69348998Y-63916474D01*
X69328321Y-63939305D01*
X69328946Y-63939928D01*
X69328945Y-63939929D01*
X69304113Y-63964805D01*
X69241832Y-63998884D01*
X69171012Y-63993882D01*
X69125922Y-63964960D01*
X69100053Y-63939136D01*
X69101882Y-63937304D01*
X69067840Y-63889277D01*
X69061000Y-63848327D01*
X69061000Y-63151647D01*
X69081002Y-63083526D01*
X69101679Y-63060695D01*
X69101054Y-63060072D01*
X69106224Y-63054893D01*
X69125887Y-63035195D01*
X69188168Y-63001116D01*
X69258988Y-63006118D01*
G37*
%TD.AperFunction*%
%TA.AperFunction,NonConductor*%
G36*
X59964855Y-62883502D02*
G01*
X60003879Y-62923198D01*
X60014929Y-62941055D01*
X60134947Y-63060864D01*
X60141177Y-63064704D01*
X60141178Y-63064705D01*
X60150703Y-63070576D01*
X60279308Y-63149849D01*
X60286256Y-63152154D01*
X60286257Y-63152154D01*
X60433738Y-63201072D01*
X60433740Y-63201072D01*
X60440269Y-63203238D01*
X60540428Y-63213500D01*
X61074572Y-63213500D01*
X61077818Y-63213163D01*
X61077822Y-63213163D01*
X61111603Y-63209658D01*
X61175982Y-63202978D01*
X61336849Y-63149308D01*
X61481055Y-63060071D01*
X61505887Y-63035195D01*
X61568168Y-63001116D01*
X61638988Y-63006118D01*
X61684078Y-63035040D01*
X61709947Y-63060864D01*
X61716177Y-63064704D01*
X61716178Y-63064705D01*
X61725703Y-63070576D01*
X61854308Y-63149849D01*
X61861256Y-63152154D01*
X61861257Y-63152154D01*
X62008738Y-63201072D01*
X62008740Y-63201072D01*
X62015269Y-63203238D01*
X62115428Y-63213500D01*
X62649572Y-63213500D01*
X62652818Y-63213163D01*
X62652822Y-63213163D01*
X62686603Y-63209658D01*
X62750982Y-63202978D01*
X62911849Y-63149308D01*
X63056055Y-63060071D01*
X63175864Y-62940053D01*
X63186139Y-62923384D01*
X63238912Y-62875890D01*
X63293399Y-62863500D01*
X63706734Y-62863500D01*
X63774855Y-62883502D01*
X63813879Y-62923198D01*
X63824929Y-62941055D01*
X63830110Y-62946227D01*
X63944947Y-63060864D01*
X63943118Y-63062696D01*
X63977160Y-63110723D01*
X63984000Y-63151673D01*
X63984000Y-63848353D01*
X63963998Y-63916474D01*
X63943320Y-63939306D01*
X63943945Y-63939929D01*
X63824136Y-64059947D01*
X63820296Y-64066177D01*
X63820295Y-64066178D01*
X63813861Y-64076616D01*
X63761088Y-64124110D01*
X63706601Y-64136500D01*
X63293266Y-64136500D01*
X63225145Y-64116498D01*
X63186121Y-64076802D01*
X63178923Y-64065170D01*
X63175071Y-64058945D01*
X63055053Y-63939136D01*
X62910692Y-63850151D01*
X62894825Y-63844888D01*
X62756262Y-63798928D01*
X62756260Y-63798928D01*
X62749731Y-63796762D01*
X62649572Y-63786500D01*
X62115428Y-63786500D01*
X62112182Y-63786837D01*
X62112178Y-63786837D01*
X62078397Y-63790342D01*
X62014018Y-63797022D01*
X61853151Y-63850692D01*
X61708945Y-63939929D01*
X61684113Y-63964805D01*
X61621832Y-63998884D01*
X61551012Y-63993882D01*
X61505922Y-63964960D01*
X61485233Y-63944307D01*
X61480053Y-63939136D01*
X61335692Y-63850151D01*
X61319825Y-63844888D01*
X61181262Y-63798928D01*
X61181260Y-63798928D01*
X61174731Y-63796762D01*
X61074572Y-63786500D01*
X60540428Y-63786500D01*
X60537182Y-63786837D01*
X60537178Y-63786837D01*
X60503397Y-63790342D01*
X60439018Y-63797022D01*
X60278151Y-63850692D01*
X60133945Y-63939929D01*
X60014136Y-64059947D01*
X59925151Y-64204308D01*
X59922846Y-64211256D01*
X59922846Y-64211257D01*
X59873988Y-64358559D01*
X59871762Y-64365269D01*
X59861500Y-64465428D01*
X59861500Y-64920405D01*
X59841498Y-64988526D01*
X59824595Y-65009500D01*
X59779095Y-65055000D01*
X59716783Y-65089026D01*
X59645968Y-65083961D01*
X59600905Y-65055000D01*
X59555405Y-65009500D01*
X59521379Y-64947188D01*
X59518500Y-64920405D01*
X59518499Y-64441249D01*
X59518499Y-64438366D01*
X59511753Y-64364938D01*
X59495189Y-64312081D01*
X59462744Y-64208550D01*
X59462743Y-64208548D01*
X59460472Y-64201301D01*
X59371639Y-64054619D01*
X59250381Y-63933361D01*
X59103699Y-63844528D01*
X59096452Y-63842257D01*
X59096450Y-63842256D01*
X58995505Y-63810622D01*
X58940062Y-63793247D01*
X58866635Y-63786500D01*
X58856560Y-63786500D01*
X58544499Y-63786501D01*
X58476380Y-63766499D01*
X58429887Y-63712844D01*
X58418500Y-63660501D01*
X58418500Y-63339500D01*
X58438502Y-63271379D01*
X58492158Y-63224886D01*
X58544500Y-63213500D01*
X58856610Y-63213499D01*
X58866634Y-63213499D01*
X58869492Y-63213236D01*
X58869501Y-63213236D01*
X58905004Y-63209974D01*
X58940062Y-63206753D01*
X58946441Y-63204754D01*
X59096450Y-63157744D01*
X59096452Y-63157743D01*
X59103699Y-63155472D01*
X59250381Y-63066639D01*
X59371639Y-62945381D01*
X59384449Y-62924229D01*
X59436846Y-62876322D01*
X59492225Y-62863500D01*
X59896734Y-62863500D01*
X59964855Y-62883502D01*
G37*
%TD.AperFunction*%
%TA.AperFunction,NonConductor*%
G36*
X58627012Y-65873370D02*
G01*
X58633595Y-65879499D01*
X58865501Y-66111405D01*
X58899527Y-66173717D01*
X58894462Y-66244532D01*
X58851915Y-66301368D01*
X58785395Y-66326179D01*
X58776406Y-66326500D01*
X58544500Y-66326500D01*
X58476379Y-66306498D01*
X58429886Y-66252842D01*
X58418500Y-66200500D01*
X58418500Y-65968594D01*
X58438502Y-65900473D01*
X58492158Y-65853980D01*
X58562432Y-65843876D01*
X58627012Y-65873370D01*
G37*
%TD.AperFunction*%
%TA.AperFunction,NonConductor*%
G36*
X67584855Y-62883502D02*
G01*
X67623879Y-62923198D01*
X67634929Y-62941055D01*
X67640110Y-62946227D01*
X67754947Y-63060864D01*
X67753118Y-63062696D01*
X67787160Y-63110723D01*
X67794000Y-63151673D01*
X67794000Y-63848353D01*
X67773998Y-63916474D01*
X67753320Y-63939306D01*
X67753945Y-63939929D01*
X67634136Y-64059947D01*
X67545151Y-64204308D01*
X67542846Y-64211256D01*
X67542846Y-64211257D01*
X67493988Y-64358559D01*
X67491762Y-64365269D01*
X67481500Y-64465428D01*
X67481500Y-65074572D01*
X67492022Y-65175982D01*
X67545692Y-65336849D01*
X67634929Y-65481055D01*
X67754947Y-65600864D01*
X67761177Y-65604704D01*
X67761178Y-65604705D01*
X67768573Y-65609263D01*
X67899308Y-65689849D01*
X67906256Y-65692154D01*
X67906257Y-65692154D01*
X68053738Y-65741072D01*
X68053740Y-65741072D01*
X68060269Y-65743238D01*
X68160428Y-65753500D01*
X68694572Y-65753500D01*
X68697818Y-65753163D01*
X68697822Y-65753163D01*
X68731603Y-65749658D01*
X68795982Y-65742978D01*
X68956849Y-65689308D01*
X69101055Y-65600071D01*
X69125887Y-65575195D01*
X69188168Y-65541116D01*
X69258988Y-65546118D01*
X69304078Y-65575040D01*
X69329947Y-65600864D01*
X69328118Y-65602696D01*
X69362160Y-65650723D01*
X69369000Y-65691673D01*
X69369000Y-66388353D01*
X69348998Y-66456474D01*
X69328321Y-66479305D01*
X69328946Y-66479928D01*
X69328945Y-66479929D01*
X69304113Y-66504805D01*
X69241832Y-66538884D01*
X69171012Y-66533882D01*
X69125922Y-66504960D01*
X69105233Y-66484307D01*
X69100053Y-66479136D01*
X69087711Y-66471528D01*
X69032651Y-66437589D01*
X68955692Y-66390151D01*
X68911500Y-66375493D01*
X68801262Y-66338928D01*
X68801260Y-66338928D01*
X68794731Y-66336762D01*
X68694572Y-66326500D01*
X68160428Y-66326500D01*
X68157182Y-66326837D01*
X68157178Y-66326837D01*
X68125799Y-66330093D01*
X68059018Y-66337022D01*
X67898151Y-66390692D01*
X67753945Y-66479929D01*
X67634136Y-66599947D01*
X67630295Y-66606178D01*
X67630293Y-66606181D01*
X67609160Y-66640465D01*
X67556388Y-66687959D01*
X67485455Y-66699272D01*
X67462500Y-66696250D01*
X67430807Y-66700422D01*
X67414364Y-66701500D01*
X67118736Y-66701500D01*
X67050615Y-66681498D01*
X67011593Y-66641804D01*
X66985071Y-66598945D01*
X66865053Y-66479136D01*
X66858822Y-66475295D01*
X66853077Y-66470758D01*
X66854282Y-66469232D01*
X66813389Y-66423790D01*
X66801000Y-66369306D01*
X66801000Y-65710532D01*
X66821002Y-65642411D01*
X66854719Y-65609263D01*
X66854092Y-65608472D01*
X66859835Y-65603920D01*
X66866055Y-65600071D01*
X66985864Y-65480053D01*
X67074849Y-65335692D01*
X67086123Y-65301703D01*
X67126072Y-65181262D01*
X67126072Y-65181260D01*
X67128238Y-65174731D01*
X67138500Y-65074572D01*
X67138500Y-64465428D01*
X67127978Y-64364018D01*
X67074308Y-64203151D01*
X66985071Y-64058945D01*
X66865053Y-63939136D01*
X66720692Y-63850151D01*
X66704825Y-63844888D01*
X66566262Y-63798928D01*
X66566260Y-63798928D01*
X66559731Y-63796762D01*
X66459572Y-63786500D01*
X66164500Y-63786500D01*
X66096379Y-63766498D01*
X66049886Y-63712842D01*
X66038500Y-63660500D01*
X66038500Y-63339500D01*
X66058502Y-63271379D01*
X66112158Y-63224886D01*
X66164500Y-63213500D01*
X66459572Y-63213500D01*
X66462818Y-63213163D01*
X66462822Y-63213163D01*
X66496603Y-63209658D01*
X66560982Y-63202978D01*
X66721849Y-63149308D01*
X66866055Y-63060071D01*
X66985864Y-62940053D01*
X66996139Y-62923384D01*
X67048912Y-62875890D01*
X67103399Y-62863500D01*
X67516734Y-62863500D01*
X67584855Y-62883502D01*
G37*
%TD.AperFunction*%
%TA.AperFunction,NonConductor*%
G36*
X58004255Y-68205160D02*
G01*
X58044308Y-68229849D01*
X58051256Y-68232154D01*
X58051257Y-68232154D01*
X58198738Y-68281072D01*
X58198740Y-68281072D01*
X58205269Y-68283238D01*
X58212113Y-68283939D01*
X58218839Y-68285381D01*
X58218383Y-68287508D01*
X58274545Y-68310449D01*
X58285062Y-68319850D01*
X58356617Y-68391405D01*
X58390643Y-68453717D01*
X58385578Y-68524532D01*
X58343031Y-68581368D01*
X58276511Y-68606179D01*
X58267522Y-68606500D01*
X58106219Y-68606500D01*
X58038098Y-68586498D01*
X58017124Y-68569595D01*
X57849044Y-68401515D01*
X57815018Y-68339203D01*
X57820083Y-68268388D01*
X57862630Y-68211552D01*
X57929150Y-68186741D01*
X58004255Y-68205160D01*
G37*
%TD.AperFunction*%
%TA.AperFunction,NonConductor*%
G36*
X61638988Y-68086118D02*
G01*
X61684078Y-68115040D01*
X61709947Y-68140864D01*
X61716177Y-68144704D01*
X61716178Y-68144705D01*
X61726014Y-68150768D01*
X61854308Y-68229849D01*
X62015269Y-68283238D01*
X62022106Y-68283938D01*
X62024930Y-68284544D01*
X62087344Y-68318381D01*
X62121556Y-68380591D01*
X62116704Y-68451422D01*
X62087612Y-68496839D01*
X62014856Y-68569595D01*
X61952544Y-68603621D01*
X61925761Y-68606500D01*
X61112478Y-68606500D01*
X61044357Y-68586498D01*
X60997864Y-68532842D01*
X60987760Y-68462568D01*
X61017254Y-68397988D01*
X61023383Y-68391405D01*
X61095079Y-68319709D01*
X61157391Y-68285683D01*
X61167066Y-68284134D01*
X61169123Y-68283690D01*
X61175982Y-68282978D01*
X61336849Y-68229308D01*
X61481055Y-68140071D01*
X61505887Y-68115195D01*
X61568168Y-68081116D01*
X61638988Y-68086118D01*
G37*
%TD.AperFunction*%
M02*
