%TF.GenerationSoftware,KiCad,Pcbnew,6.0.11+dfsg-1*%
%TF.CreationDate,2023-05-20T19:05:26-05:00*%
%TF.ProjectId,watch,77617463-682e-46b6-9963-61645f706362,rev?*%
%TF.SameCoordinates,Original*%
%TF.FileFunction,Copper,L1,Top*%
%TF.FilePolarity,Positive*%
%FSLAX46Y46*%
G04 Gerber Fmt 4.6, Leading zero omitted, Abs format (unit mm)*
G04 Created by KiCad (PCBNEW 6.0.11+dfsg-1) date 2023-05-20 19:05:26*
%MOMM*%
%LPD*%
G01*
G04 APERTURE LIST*
G04 Aperture macros list*
%AMRoundRect*
0 Rectangle with rounded corners*
0 $1 Rounding radius*
0 $2 $3 $4 $5 $6 $7 $8 $9 X,Y pos of 4 corners*
0 Add a 4 corners polygon primitive as box body*
4,1,4,$2,$3,$4,$5,$6,$7,$8,$9,$2,$3,0*
0 Add four circle primitives for the rounded corners*
1,1,$1+$1,$2,$3*
1,1,$1+$1,$4,$5*
1,1,$1+$1,$6,$7*
1,1,$1+$1,$8,$9*
0 Add four rect primitives between the rounded corners*
20,1,$1+$1,$2,$3,$4,$5,0*
20,1,$1+$1,$4,$5,$6,$7,0*
20,1,$1+$1,$6,$7,$8,$9,0*
20,1,$1+$1,$8,$9,$2,$3,0*%
G04 Aperture macros list end*
%TA.AperFunction,SMDPad,CuDef*%
%ADD10RoundRect,0.150000X0.825000X0.150000X-0.825000X0.150000X-0.825000X-0.150000X0.825000X-0.150000X0*%
%TD*%
%TA.AperFunction,SMDPad,CuDef*%
%ADD11R,1.309599X0.669600*%
%TD*%
%TA.AperFunction,SMDPad,CuDef*%
%ADD12RoundRect,0.200000X0.275000X-0.200000X0.275000X0.200000X-0.275000X0.200000X-0.275000X-0.200000X0*%
%TD*%
%TA.AperFunction,SMDPad,CuDef*%
%ADD13RoundRect,0.200000X-0.275000X0.200000X-0.275000X-0.200000X0.275000X-0.200000X0.275000X0.200000X0*%
%TD*%
%TA.AperFunction,SMDPad,CuDef*%
%ADD14RoundRect,0.200000X-0.200000X-0.275000X0.200000X-0.275000X0.200000X0.275000X-0.200000X0.275000X0*%
%TD*%
%TA.AperFunction,SMDPad,CuDef*%
%ADD15R,1.000000X1.000000*%
%TD*%
%TA.AperFunction,SMDPad,CuDef*%
%ADD16C,1.000000*%
%TD*%
%TA.AperFunction,SMDPad,CuDef*%
%ADD17RoundRect,0.218750X0.218750X0.256250X-0.218750X0.256250X-0.218750X-0.256250X0.218750X-0.256250X0*%
%TD*%
%TA.AperFunction,SMDPad,CuDef*%
%ADD18RoundRect,0.218750X-0.218750X-0.256250X0.218750X-0.256250X0.218750X0.256250X-0.218750X0.256250X0*%
%TD*%
%TA.AperFunction,ViaPad*%
%ADD19C,0.600000*%
%TD*%
%TA.AperFunction,Conductor*%
%ADD20C,0.250000*%
%TD*%
%TA.AperFunction,Conductor*%
%ADD21C,0.200000*%
%TD*%
G04 APERTURE END LIST*
D10*
%TO.P,U1,1,VCC*%
%TO.N,+3.3V*%
X37400000Y-27305000D03*
%TO.P,U1,2,PA6*%
%TO.N,Net-(R3-Pad1)*%
X37400000Y-26035000D03*
%TO.P,U1,3,PA7*%
%TO.N,Net-(R4-Pad1)*%
X37400000Y-24765000D03*
%TO.P,U1,4,PA1*%
%TO.N,Net-(U1-Pad4)*%
X37400000Y-23495000D03*
%TO.P,U1,5,PA2*%
%TO.N,Net-(U1-Pad5)*%
X32450000Y-23495000D03*
%TO.P,U1,6,~{RESET}/PA0*%
%TO.N,Net-(U1-Pad6)*%
X32450000Y-24765000D03*
%TO.P,U1,7,PA3*%
%TO.N,Net-(R2-Pad1)*%
X32450000Y-26035000D03*
%TO.P,U1,8,GND*%
%TO.N,GND*%
X32450000Y-27305000D03*
%TD*%
D11*
%TO.P,SW2,1,1*%
%TO.N,Net-(U1-Pad4)*%
X36893500Y-40860000D03*
%TO.P,SW2,2,2*%
%TO.N,Net-(SW2-Pad2)*%
X36893500Y-42960000D03*
%TO.P,SW2,3,3*%
X40576500Y-42960000D03*
%TO.P,SW2,4,4*%
%TO.N,Net-(U1-Pad4)*%
X40576500Y-40860000D03*
%TD*%
%TO.P,SW1,4,4*%
%TO.N,Net-(U1-Pad4)*%
X32956500Y-40860000D03*
%TO.P,SW1,3,3*%
%TO.N,GND*%
X32956500Y-42960000D03*
%TO.P,SW1,2,2*%
X29273500Y-42960000D03*
%TO.P,SW1,1,1*%
%TO.N,Net-(U1-Pad4)*%
X29273500Y-40860000D03*
%TD*%
D12*
%TO.P,R7,2*%
%TO.N,Net-(U1-Pad6)*%
X29210000Y-25210000D03*
%TO.P,R7,1*%
%TO.N,Net-(R7-Pad1)*%
X29210000Y-26860000D03*
%TD*%
D13*
%TO.P,R6,1*%
%TO.N,GND*%
X34925000Y-43625000D03*
%TO.P,R6,2*%
%TO.N,Net-(SW2-Pad2)*%
X34925000Y-45275000D03*
%TD*%
%TO.P,R5,1*%
%TO.N,Net-(U1-Pad4)*%
X34925000Y-40260000D03*
%TO.P,R5,2*%
%TO.N,+3.3V*%
X34925000Y-41910000D03*
%TD*%
D14*
%TO.P,R4,1*%
%TO.N,Net-(R4-Pad1)*%
X28385000Y-30480000D03*
%TO.P,R4,2*%
%TO.N,Net-(D9-Pad1)*%
X30035000Y-30480000D03*
%TD*%
%TO.P,R3,2*%
%TO.N,Net-(D7-Pad1)*%
X37655000Y-30480000D03*
%TO.P,R3,1*%
%TO.N,Net-(R3-Pad1)*%
X36005000Y-30480000D03*
%TD*%
%TO.P,R2,1*%
%TO.N,Net-(R2-Pad1)*%
X28385000Y-33020000D03*
%TO.P,R2,2*%
%TO.N,Net-(D2-Pad2)*%
X30035000Y-33020000D03*
%TD*%
%TO.P,R1,1*%
%TO.N,Net-(U1-Pad5)*%
X28385000Y-35560000D03*
%TO.P,R1,2*%
%TO.N,Net-(D1-Pad2)*%
X30035000Y-35560000D03*
%TD*%
D15*
%TO.P,TP3,1,1*%
%TO.N,+3.3V*%
X24130000Y-36830000D03*
%TD*%
%TO.P,TP2,1,1*%
%TO.N,GND*%
X24130000Y-34290000D03*
%TD*%
D16*
%TO.P,TP1,1,1*%
%TO.N,Net-(R7-Pad1)*%
X24130000Y-31750000D03*
%TD*%
D17*
%TO.P,D12,1,K*%
%TO.N,Net-(D1-Pad2)*%
X41427500Y-35560000D03*
%TO.P,D12,2,A*%
%TO.N,Net-(D9-Pad1)*%
X39852500Y-35560000D03*
%TD*%
D18*
%TO.P,D11,1,K*%
%TO.N,Net-(D9-Pad1)*%
X39852500Y-33020000D03*
%TO.P,D11,2,A*%
%TO.N,Net-(D1-Pad2)*%
X41427500Y-33020000D03*
%TD*%
D17*
%TO.P,D10,1,K*%
%TO.N,Net-(D2-Pad2)*%
X33807500Y-38100000D03*
%TO.P,D10,2,A*%
%TO.N,Net-(D9-Pad1)*%
X32232500Y-38100000D03*
%TD*%
%TO.P,D9,1,K*%
%TO.N,Net-(D9-Pad1)*%
X29997500Y-38100000D03*
%TO.P,D9,2,A*%
%TO.N,Net-(D2-Pad2)*%
X28422500Y-38100000D03*
%TD*%
D18*
%TO.P,D8,1,K*%
%TO.N,Net-(D1-Pad2)*%
X32232500Y-35560000D03*
%TO.P,D8,2,A*%
%TO.N,Net-(D7-Pad1)*%
X33807500Y-35560000D03*
%TD*%
%TO.P,D7,1,K*%
%TO.N,Net-(D7-Pad1)*%
X39852500Y-30480000D03*
%TO.P,D7,2,A*%
%TO.N,Net-(D1-Pad2)*%
X41427500Y-30480000D03*
%TD*%
%TO.P,D6,1,K*%
%TO.N,Net-(D7-Pad1)*%
X36042500Y-33020000D03*
%TO.P,D6,2,A*%
%TO.N,Net-(D9-Pad1)*%
X37617500Y-33020000D03*
%TD*%
%TO.P,D5,1,K*%
%TO.N,Net-(D9-Pad1)*%
X32232500Y-30480000D03*
%TO.P,D5,2,A*%
%TO.N,Net-(D7-Pad1)*%
X33807500Y-30480000D03*
%TD*%
D17*
%TO.P,D4,1,K*%
%TO.N,Net-(D2-Pad2)*%
X37617500Y-35560000D03*
%TO.P,D4,2,A*%
%TO.N,Net-(D7-Pad1)*%
X36042500Y-35560000D03*
%TD*%
%TO.P,D3,1,K*%
%TO.N,Net-(D7-Pad1)*%
X33807500Y-33020000D03*
%TO.P,D3,2,A*%
%TO.N,Net-(D2-Pad2)*%
X32232500Y-33020000D03*
%TD*%
%TO.P,D2,1,K*%
%TO.N,Net-(D1-Pad2)*%
X41427500Y-38100000D03*
%TO.P,D2,2,A*%
%TO.N,Net-(D2-Pad2)*%
X39852500Y-38100000D03*
%TD*%
%TO.P,D1,1,K*%
%TO.N,Net-(D2-Pad2)*%
X37617500Y-38100000D03*
%TO.P,D1,2,A*%
%TO.N,Net-(D1-Pad2)*%
X36042500Y-38100000D03*
%TD*%
D19*
%TO.N,Net-(U1-Pad6)*%
X30480000Y-24130000D03*
X34290000Y-24765000D03*
%TO.N,GND*%
X34290000Y-26035000D03*
%TO.N,Net-(D1-Pad2)*%
X31115000Y-38735000D03*
X38100000Y-39370000D03*
X40640000Y-39370000D03*
%TO.N,+3.3V*%
X42545000Y-28575000D03*
%TO.N,Net-(D2-Pad2)*%
X36195000Y-28575000D03*
X34925000Y-28575000D03*
%TO.N,GND*%
X26670000Y-38100000D03*
%TO.N,+3.3V*%
X24765000Y-38100000D03*
X35560000Y-42545000D03*
%TD*%
D20*
%TO.N,Net-(U1-Pad6)*%
X32450000Y-24765000D02*
X34290000Y-24765000D01*
D21*
%TO.N,Net-(R2-Pad1)*%
X31115000Y-27028604D02*
X32108604Y-26035000D01*
X32108604Y-26035000D02*
X32450000Y-26035000D01*
%TO.N,Net-(U1-Pad4)*%
X34925000Y-40260000D02*
X35525000Y-40860000D01*
X35525000Y-40860000D02*
X36893500Y-40860000D01*
X32956500Y-40860000D02*
X34325000Y-40860000D01*
X34325000Y-40860000D02*
X34925000Y-40260000D01*
%TO.N,Net-(SW2-Pad2)*%
X34925000Y-45275000D02*
X36893500Y-43306500D01*
X36893500Y-43306500D02*
X36893500Y-42960000D01*
%TO.N,GND*%
X32956500Y-42960000D02*
X34260000Y-42960000D01*
X34260000Y-42960000D02*
X34925000Y-43625000D01*
%TO.N,Net-(U1-Pad4)*%
X40576500Y-40860000D02*
X41690000Y-40860000D01*
X41690000Y-40860000D02*
X43180000Y-39370000D01*
X43180000Y-39370000D02*
X43180000Y-27940000D01*
X43180000Y-27940000D02*
X38735000Y-23495000D01*
X38735000Y-23495000D02*
X37400000Y-23495000D01*
%TO.N,GND*%
X29273500Y-42960000D02*
X26670000Y-40356500D01*
X26670000Y-40356500D02*
X26670000Y-38100000D01*
%TO.N,Net-(D2-Pad2)*%
X36118750Y-39446250D02*
X36042500Y-39370000D01*
X34290000Y-39370000D02*
X33655000Y-40005000D01*
X29226980Y-40005000D02*
X28422500Y-39200520D01*
X36042500Y-39370000D02*
X34290000Y-39370000D01*
X33655000Y-40005000D02*
X29226980Y-40005000D01*
X28422500Y-39200520D02*
X28422500Y-38100000D01*
D20*
%TO.N,Net-(D9-Pad1)*%
X29997500Y-38100000D02*
X29997500Y-38501384D01*
X30866116Y-39370000D02*
X31363884Y-39370000D01*
X29997500Y-38501384D02*
X30866116Y-39370000D01*
X31363884Y-39370000D02*
X32232500Y-38501384D01*
X32232500Y-38501384D02*
X32232500Y-38100000D01*
%TO.N,Net-(D1-Pad2)*%
X31115000Y-38735000D02*
X31115000Y-36830000D01*
%TO.N,Net-(D2-Pad2)*%
X34925000Y-28575000D02*
X34468521Y-28575000D01*
X34468521Y-28575000D02*
X33020000Y-30023521D01*
X33020000Y-30023521D02*
X33020000Y-32232500D01*
X33020000Y-32232500D02*
X32232500Y-33020000D01*
D21*
%TO.N,Net-(R3-Pad1)*%
X36005000Y-30480000D02*
X35560000Y-30035000D01*
X35560000Y-30035000D02*
X35560000Y-27305000D01*
X35560000Y-27305000D02*
X36830000Y-26035000D01*
X36830000Y-26035000D02*
X37400000Y-26035000D01*
D20*
%TO.N,Net-(D1-Pad2)*%
X31115000Y-36830000D02*
X32232500Y-35712500D01*
X32232500Y-35712500D02*
X32232500Y-35560000D01*
X31115000Y-36830000D02*
X30035000Y-35750000D01*
X30035000Y-35750000D02*
X30035000Y-35560000D01*
%TO.N,Net-(D2-Pad2)*%
X36677500Y-40005000D02*
X36118750Y-39446250D01*
X36118750Y-39446250D02*
X34772500Y-38100000D01*
D21*
X39370000Y-38582500D02*
X38887500Y-38100000D01*
X38887500Y-38100000D02*
X37617500Y-38100000D01*
X39370000Y-39370000D02*
X39370000Y-38582500D01*
X39370000Y-38582500D02*
X39852500Y-38100000D01*
D20*
X41275000Y-40005000D02*
X38735000Y-40005000D01*
X38735000Y-40005000D02*
X36677500Y-40005000D01*
D21*
X39370000Y-39370000D02*
X38735000Y-40005000D01*
%TO.N,Net-(D1-Pad2)*%
X36830000Y-39370000D02*
X38100000Y-39370000D01*
%TO.N,Net-(U1-Pad6)*%
X30480000Y-24130000D02*
X30290000Y-24130000D01*
X30290000Y-24130000D02*
X29210000Y-25210000D01*
%TO.N,GND*%
X24130000Y-34290000D02*
X26670000Y-36830000D01*
X26670000Y-36830000D02*
X26670000Y-38100000D01*
%TO.N,+3.3V*%
X35560000Y-42545000D02*
X34925000Y-41910000D01*
X24765000Y-38100000D02*
X24130000Y-37465000D01*
X24130000Y-37465000D02*
X24130000Y-36830000D01*
%TO.N,GND*%
X32450000Y-27305000D02*
X33020000Y-27305000D01*
X33020000Y-27305000D02*
X34290000Y-26035000D01*
%TO.N,+3.3V*%
X41275000Y-27305000D02*
X42545000Y-28575000D01*
X37400000Y-27305000D02*
X41275000Y-27305000D01*
%TO.N,Net-(SW2-Pad2)*%
X40576500Y-42960000D02*
X36893500Y-42960000D01*
%TO.N,GND*%
X29273500Y-42960000D02*
X32956500Y-42960000D01*
%TO.N,Net-(U1-Pad4)*%
X32956500Y-40860000D02*
X29273500Y-40860000D01*
X36893500Y-40860000D02*
X40576500Y-40860000D01*
D20*
%TO.N,Net-(D2-Pad2)*%
X36195000Y-28575000D02*
X41275000Y-28575000D01*
X41275000Y-28575000D02*
X42545000Y-29845000D01*
X42545000Y-38735000D02*
X41275000Y-40005000D01*
X42545000Y-29845000D02*
X42545000Y-38735000D01*
X34772500Y-38100000D02*
X33807500Y-38100000D01*
D21*
%TO.N,Net-(R7-Pad1)*%
X29210000Y-26860000D02*
X29020000Y-26860000D01*
X29020000Y-26860000D02*
X24130000Y-31750000D01*
%TO.N,Net-(U1-Pad5)*%
X32450000Y-23495000D02*
X32108604Y-23495000D01*
X32108604Y-23495000D02*
X30715000Y-24888604D01*
X28174314Y-28410000D02*
X26905000Y-29679315D01*
X30715000Y-24888604D02*
X30715000Y-27940000D01*
X30715000Y-27940000D02*
X30245000Y-28410000D01*
X28385000Y-35370000D02*
X28385000Y-35560000D01*
X30245000Y-28410000D02*
X28174314Y-28410000D01*
X26905000Y-29679315D02*
X26905000Y-33890000D01*
X26905000Y-33890000D02*
X28385000Y-35370000D01*
%TO.N,Net-(R2-Pad1)*%
X28340000Y-28810000D02*
X27305000Y-29845000D01*
X31115000Y-28575000D02*
X30880000Y-28810000D01*
X31115000Y-27028604D02*
X31115000Y-28575000D01*
X30880000Y-28810000D02*
X28340000Y-28810000D01*
X27305000Y-29845000D02*
X27305000Y-31940000D01*
X27305000Y-31940000D02*
X28385000Y-33020000D01*
%TO.N,Net-(R4-Pad1)*%
X37400000Y-24765000D02*
X36830000Y-24765000D01*
X36830000Y-24765000D02*
X32385000Y-29210000D01*
X32385000Y-29210000D02*
X29655000Y-29210000D01*
X29655000Y-29210000D02*
X28385000Y-30480000D01*
%TO.N,Net-(D1-Pad2)*%
X36042500Y-38100000D02*
X36042500Y-38582500D01*
X36042500Y-38582500D02*
X36830000Y-39370000D01*
X40640000Y-39370000D02*
X41427500Y-38582500D01*
X41427500Y-38582500D02*
X41427500Y-38100000D01*
D20*
X41427500Y-38100000D02*
X41427500Y-30480000D01*
%TO.N,Net-(D2-Pad2)*%
X30035000Y-33020000D02*
X32232500Y-33020000D01*
%TO.N,Net-(D9-Pad1)*%
X30035000Y-30480000D02*
X32232500Y-30480000D01*
X29997500Y-38100000D02*
X29210000Y-37312500D01*
X29210000Y-37312500D02*
X29210000Y-31305000D01*
X29210000Y-31305000D02*
X30035000Y-30480000D01*
%TO.N,Net-(D7-Pad1)*%
X36042500Y-35560000D02*
X36042500Y-33020000D01*
%TO.N,Net-(D9-Pad1)*%
X32232500Y-38100000D02*
X32232500Y-37617500D01*
X32232500Y-37617500D02*
X33020000Y-36830000D01*
X33020000Y-36830000D02*
X36016479Y-36830000D01*
X36016479Y-36830000D02*
X36830000Y-36016479D01*
X36830000Y-36016479D02*
X36830000Y-33807500D01*
X36830000Y-33807500D02*
X37617500Y-33020000D01*
D21*
%TO.N,Net-(D2-Pad2)*%
X37617500Y-35560000D02*
X37617500Y-38100000D01*
D20*
%TO.N,Net-(D9-Pad1)*%
X39852500Y-33020000D02*
X39852500Y-35560000D01*
X37617500Y-33020000D02*
X39852500Y-33020000D01*
%TO.N,Net-(D7-Pad1)*%
X37655000Y-30480000D02*
X39852500Y-30480000D01*
X36042500Y-33020000D02*
X36195000Y-33020000D01*
X36195000Y-33020000D02*
X37655000Y-31560000D01*
X37655000Y-31560000D02*
X37655000Y-30480000D01*
X33807500Y-33020000D02*
X36042500Y-33020000D01*
X33807500Y-30480000D02*
X33807500Y-33020000D01*
X33807500Y-35560000D02*
X36042500Y-35560000D01*
%TD*%
%TA.AperFunction,Conductor*%
%TO.N,GND*%
G36*
X39393707Y-22951930D02*
G01*
X39646123Y-23049836D01*
X39652609Y-23052563D01*
X39989470Y-23205369D01*
X40266204Y-23330901D01*
X40272503Y-23333973D01*
X40802106Y-23610843D01*
X40869627Y-23646142D01*
X40875753Y-23649565D01*
X41412662Y-23969628D01*
X41454506Y-23994572D01*
X41460446Y-23998342D01*
X41781688Y-24215022D01*
X41983876Y-24351399D01*
X42019036Y-24375115D01*
X42024754Y-24379209D01*
X42464528Y-24713015D01*
X42561434Y-24786571D01*
X42566915Y-24790977D01*
X43080033Y-25227675D01*
X43085244Y-25232367D01*
X43573195Y-25697036D01*
X43578135Y-25702011D01*
X44039378Y-26193186D01*
X44044033Y-26198429D01*
X44358528Y-26573229D01*
X44477140Y-26714585D01*
X44481510Y-26720099D01*
X44885115Y-27259609D01*
X44889171Y-27265359D01*
X45034792Y-27484536D01*
X45231340Y-27780364D01*
X45262027Y-27826552D01*
X45265751Y-27832511D01*
X45519548Y-28265097D01*
X45606710Y-28413661D01*
X45610100Y-28419827D01*
X45918082Y-29019097D01*
X45921122Y-29025442D01*
X46195173Y-29640969D01*
X46197853Y-29647471D01*
X46243579Y-29767846D01*
X46437115Y-30277332D01*
X46439429Y-30283977D01*
X46490207Y-30444049D01*
X46636716Y-30905903D01*
X46643161Y-30926221D01*
X46645088Y-30932938D01*
X46812666Y-31585614D01*
X46814215Y-31592437D01*
X46943206Y-32243882D01*
X46945086Y-32253377D01*
X46946257Y-32260298D01*
X47016278Y-32758520D01*
X47040033Y-32927548D01*
X47040817Y-32934541D01*
X47097196Y-33605941D01*
X47097589Y-33612966D01*
X47116426Y-34287358D01*
X47116463Y-34292635D01*
X47115602Y-34354319D01*
X47112406Y-34583247D01*
X47111784Y-34627763D01*
X47111600Y-34633033D01*
X47106227Y-34729136D01*
X47073939Y-35306649D01*
X47073350Y-35313660D01*
X47000321Y-35964731D01*
X46998246Y-35983226D01*
X46997267Y-35990192D01*
X46930374Y-36385693D01*
X46884901Y-36654544D01*
X46883535Y-36661443D01*
X46745291Y-37269928D01*
X46734261Y-37318475D01*
X46732513Y-37325283D01*
X46674363Y-37528076D01*
X46546792Y-37972966D01*
X46544664Y-37979673D01*
X46446295Y-38262151D01*
X46328126Y-38601488D01*
X46323089Y-38615951D01*
X46320594Y-38622521D01*
X46065501Y-39241422D01*
X46063830Y-39245477D01*
X46060971Y-39251899D01*
X45811745Y-39772075D01*
X45769842Y-39859533D01*
X45766631Y-39865781D01*
X45603817Y-40161939D01*
X45442028Y-40456231D01*
X45438467Y-40462300D01*
X45081419Y-41033696D01*
X45077525Y-41039556D01*
X44689150Y-41590114D01*
X44684935Y-41595749D01*
X44266423Y-42123779D01*
X44261901Y-42129169D01*
X43814553Y-42633029D01*
X43809736Y-42638158D01*
X43334969Y-43116251D01*
X43329879Y-43121099D01*
X42829153Y-43571953D01*
X42823831Y-43576483D01*
X42550129Y-43796545D01*
X42298716Y-43998686D01*
X42293112Y-44002940D01*
X41745232Y-44395184D01*
X41739432Y-44399096D01*
X41368307Y-44634619D01*
X41170543Y-44760124D01*
X41164502Y-44763725D01*
X40708878Y-45018365D01*
X40576352Y-45092431D01*
X40570123Y-45095688D01*
X40212265Y-45270227D01*
X39964529Y-45391056D01*
X39958127Y-45393960D01*
X39713687Y-45496713D01*
X39336983Y-45655065D01*
X39330423Y-45657609D01*
X39163991Y-45716873D01*
X38695696Y-45883626D01*
X38689026Y-45885793D01*
X38413651Y-45966840D01*
X38042636Y-46076035D01*
X38035833Y-46077832D01*
X37379872Y-46231687D01*
X37372980Y-46233102D01*
X37188931Y-46265555D01*
X36709421Y-46350106D01*
X36702495Y-46351128D01*
X36033425Y-46430910D01*
X36026427Y-46431546D01*
X35353978Y-46473853D01*
X35346983Y-46474097D01*
X34972583Y-46476711D01*
X34673205Y-46478801D01*
X34666171Y-46478654D01*
X34214714Y-46456575D01*
X33993186Y-46445740D01*
X33986184Y-46445202D01*
X33316089Y-46374771D01*
X33309114Y-46373840D01*
X32644025Y-46266119D01*
X32637113Y-46264801D01*
X32239430Y-46177365D01*
X31979018Y-46120110D01*
X31972219Y-46118413D01*
X31323278Y-45937226D01*
X31316556Y-45935146D01*
X30678704Y-45718003D01*
X30672110Y-45715550D01*
X30223997Y-45534501D01*
X30047401Y-45463152D01*
X30040969Y-45460342D01*
X29431320Y-45173463D01*
X29425041Y-45170292D01*
X28832343Y-44849821D01*
X28826250Y-44846303D01*
X28252381Y-44493256D01*
X28246493Y-44489403D01*
X27693214Y-44104864D01*
X27687551Y-44100688D01*
X27156624Y-43685883D01*
X27151202Y-43681398D01*
X26755828Y-43335275D01*
X26644247Y-43237593D01*
X26639086Y-43232815D01*
X26576884Y-43171902D01*
X26157656Y-42761363D01*
X26152817Y-42756352D01*
X25698464Y-42258771D01*
X25693877Y-42253457D01*
X25268023Y-41731309D01*
X25263730Y-41725734D01*
X24867694Y-41180637D01*
X24863719Y-41174831D01*
X24772764Y-41033696D01*
X24498728Y-40608476D01*
X24495099Y-40602485D01*
X24162282Y-40016622D01*
X24158982Y-40010417D01*
X24087190Y-39865791D01*
X23859392Y-39406894D01*
X23856443Y-39400512D01*
X23591012Y-38781215D01*
X23588425Y-38774680D01*
X23578740Y-38748069D01*
X23357981Y-38141540D01*
X23355760Y-38134863D01*
X23305247Y-37967556D01*
X23304706Y-37896561D01*
X23342634Y-37836545D01*
X23406988Y-37806561D01*
X23470098Y-37813156D01*
X23519684Y-37831745D01*
X23581866Y-37838500D01*
X23587464Y-37838500D01*
X23587957Y-37838645D01*
X23588680Y-37838684D01*
X23588671Y-37838854D01*
X23655585Y-37858502D01*
X23687426Y-37887796D01*
X23696013Y-37898987D01*
X23702568Y-37904017D01*
X23721379Y-37918452D01*
X23733770Y-37929319D01*
X23925907Y-38121456D01*
X23959933Y-38183768D01*
X23962211Y-38198256D01*
X23969163Y-38269160D01*
X24026418Y-38441273D01*
X24030065Y-38447295D01*
X24030066Y-38447297D01*
X24069568Y-38512522D01*
X24120380Y-38596424D01*
X24125269Y-38601487D01*
X24125270Y-38601488D01*
X24145589Y-38622529D01*
X24246382Y-38726902D01*
X24252278Y-38730760D01*
X24382572Y-38816022D01*
X24398159Y-38826222D01*
X24404763Y-38828678D01*
X24404765Y-38828679D01*
X24561558Y-38886990D01*
X24561560Y-38886990D01*
X24568168Y-38889448D01*
X24651995Y-38900633D01*
X24740980Y-38912507D01*
X24740984Y-38912507D01*
X24747961Y-38913438D01*
X24754972Y-38912800D01*
X24754976Y-38912800D01*
X24897459Y-38899832D01*
X24928600Y-38896998D01*
X24935302Y-38894820D01*
X24935304Y-38894820D01*
X25094409Y-38843124D01*
X25094412Y-38843123D01*
X25101108Y-38840947D01*
X25256912Y-38748069D01*
X25388266Y-38622982D01*
X25488643Y-38471902D01*
X25553055Y-38302338D01*
X25554035Y-38295366D01*
X25577748Y-38126639D01*
X25577748Y-38126636D01*
X25578299Y-38122717D01*
X25578616Y-38100000D01*
X25558397Y-37919745D01*
X25551168Y-37898987D01*
X25501064Y-37755106D01*
X25501062Y-37755103D01*
X25498745Y-37748448D01*
X25402626Y-37594624D01*
X25274815Y-37465918D01*
X25268865Y-37462142D01*
X25196987Y-37416527D01*
X25150188Y-37363138D01*
X25138500Y-37310141D01*
X25138500Y-36281866D01*
X25131745Y-36219684D01*
X25080615Y-36083295D01*
X24993261Y-35966739D01*
X24876705Y-35879385D01*
X24740316Y-35828255D01*
X24678134Y-35821500D01*
X23581866Y-35821500D01*
X23519684Y-35828255D01*
X23383295Y-35879385D01*
X23266739Y-35966739D01*
X23179385Y-36083295D01*
X23128255Y-36219684D01*
X23125878Y-36218793D01*
X23096820Y-36269640D01*
X23033859Y-36302450D01*
X22963155Y-36296012D01*
X22907155Y-36252371D01*
X22885539Y-36201578D01*
X22884057Y-36193500D01*
X22877647Y-36158578D01*
X22876572Y-36151629D01*
X22874228Y-36133070D01*
X22792127Y-35483180D01*
X22791440Y-35476177D01*
X22744440Y-34804044D01*
X22744145Y-34797014D01*
X22734737Y-34123285D01*
X22734836Y-34116250D01*
X22763050Y-33443095D01*
X22763540Y-33436075D01*
X22829291Y-32765500D01*
X22830173Y-32758520D01*
X22931762Y-32102288D01*
X22961950Y-32038029D01*
X23022087Y-32000292D01*
X23093079Y-32001058D01*
X23152388Y-32040084D01*
X23177398Y-32086833D01*
X23187783Y-32123050D01*
X23210100Y-32166474D01*
X23224816Y-32195107D01*
X23278187Y-32298956D01*
X23401035Y-32453953D01*
X23551650Y-32582136D01*
X23724294Y-32678624D01*
X23912392Y-32739740D01*
X24108777Y-32763158D01*
X24114912Y-32762686D01*
X24114914Y-32762686D01*
X24299830Y-32748457D01*
X24299834Y-32748456D01*
X24305972Y-32747984D01*
X24496463Y-32694798D01*
X24501967Y-32692018D01*
X24501969Y-32692017D01*
X24667495Y-32608404D01*
X24667497Y-32608403D01*
X24672996Y-32605625D01*
X24828847Y-32483861D01*
X24958078Y-32334145D01*
X25055769Y-32162179D01*
X25118197Y-31974513D01*
X25142985Y-31778295D01*
X25143380Y-31750000D01*
X25135545Y-31670090D01*
X25148805Y-31600343D01*
X25171849Y-31568700D01*
X26081405Y-30659144D01*
X26143717Y-30625118D01*
X26214532Y-30630183D01*
X26271368Y-30672730D01*
X26296179Y-30739250D01*
X26296500Y-30748239D01*
X26296500Y-33841864D01*
X26295422Y-33858307D01*
X26291250Y-33890000D01*
X26296500Y-33929880D01*
X26296500Y-33929885D01*
X26306192Y-34003500D01*
X26312162Y-34048851D01*
X26373476Y-34196876D01*
X26378503Y-34203427D01*
X26378504Y-34203429D01*
X26446520Y-34292069D01*
X26446526Y-34292075D01*
X26471013Y-34323987D01*
X26477568Y-34329017D01*
X26496379Y-34343452D01*
X26508770Y-34354319D01*
X27439595Y-35285144D01*
X27473621Y-35347456D01*
X27476500Y-35374239D01*
X27476501Y-35891634D01*
X27483247Y-35965062D01*
X27534528Y-36128699D01*
X27623361Y-36275381D01*
X27744619Y-36396639D01*
X27891301Y-36485472D01*
X27898548Y-36487743D01*
X27898550Y-36487744D01*
X27939357Y-36500532D01*
X28054938Y-36536753D01*
X28128365Y-36543500D01*
X28138440Y-36543500D01*
X28450501Y-36543499D01*
X28518620Y-36563501D01*
X28565113Y-36617156D01*
X28576500Y-36669499D01*
X28576500Y-36990500D01*
X28556498Y-37058621D01*
X28502842Y-37105114D01*
X28450500Y-37116500D01*
X28155428Y-37116500D01*
X28152182Y-37116837D01*
X28152178Y-37116837D01*
X28120799Y-37120093D01*
X28054018Y-37127022D01*
X27893151Y-37180692D01*
X27748945Y-37269929D01*
X27629136Y-37389947D01*
X27540151Y-37534308D01*
X27486762Y-37695269D01*
X27476500Y-37795428D01*
X27476500Y-38404572D01*
X27487022Y-38505982D01*
X27540692Y-38666849D01*
X27629929Y-38811055D01*
X27749947Y-38930864D01*
X27756178Y-38934705D01*
X27761923Y-38939242D01*
X27760718Y-38940768D01*
X27801611Y-38986210D01*
X27814000Y-39040694D01*
X27814000Y-39152384D01*
X27812922Y-39168827D01*
X27808750Y-39200520D01*
X27814000Y-39240400D01*
X27814000Y-39240405D01*
X27820187Y-39287399D01*
X27829662Y-39359371D01*
X27890976Y-39507396D01*
X27896003Y-39513947D01*
X27896004Y-39513949D01*
X27964020Y-39602589D01*
X27964026Y-39602595D01*
X27988513Y-39634507D01*
X27995068Y-39639537D01*
X28013879Y-39653972D01*
X28026270Y-39664839D01*
X28305827Y-39944396D01*
X28339853Y-40006708D01*
X28334788Y-40077523D01*
X28292298Y-40134316D01*
X28255440Y-40161939D01*
X28168086Y-40278495D01*
X28116956Y-40414884D01*
X28110201Y-40477066D01*
X28110201Y-41242934D01*
X28116956Y-41305116D01*
X28168086Y-41441505D01*
X28255440Y-41558061D01*
X28371996Y-41645415D01*
X28508385Y-41696545D01*
X28570567Y-41703300D01*
X29976433Y-41703300D01*
X30038615Y-41696545D01*
X30175004Y-41645415D01*
X30291560Y-41558061D01*
X30320885Y-41518933D01*
X30377742Y-41476420D01*
X30421709Y-41468500D01*
X31808291Y-41468500D01*
X31876412Y-41488502D01*
X31909114Y-41518931D01*
X31938440Y-41558061D01*
X32054996Y-41645415D01*
X32191385Y-41696545D01*
X32253567Y-41703300D01*
X33659433Y-41703300D01*
X33721615Y-41696545D01*
X33771271Y-41677930D01*
X33842077Y-41672747D01*
X33904446Y-41706668D01*
X33938576Y-41768923D01*
X33941500Y-41795912D01*
X33941501Y-42034627D01*
X33941501Y-42166634D01*
X33948247Y-42240062D01*
X33950246Y-42246440D01*
X33950246Y-42246441D01*
X33991630Y-42378495D01*
X33999528Y-42403699D01*
X34088361Y-42550381D01*
X34209619Y-42671639D01*
X34356301Y-42760472D01*
X34363548Y-42762743D01*
X34363550Y-42762744D01*
X34429836Y-42783517D01*
X34519938Y-42811753D01*
X34593365Y-42818500D01*
X34710387Y-42818500D01*
X34778508Y-42838502D01*
X34820548Y-42886800D01*
X34821418Y-42886273D01*
X34915380Y-43041424D01*
X35041382Y-43171902D01*
X35047278Y-43175760D01*
X35141772Y-43237595D01*
X35193159Y-43271222D01*
X35199763Y-43273678D01*
X35199765Y-43273679D01*
X35356558Y-43331990D01*
X35356560Y-43331990D01*
X35363168Y-43334448D01*
X35446995Y-43345633D01*
X35535980Y-43357507D01*
X35535984Y-43357507D01*
X35542961Y-43358438D01*
X35549972Y-43357800D01*
X35549976Y-43357800D01*
X35617956Y-43351613D01*
X35687610Y-43365358D01*
X35738774Y-43414580D01*
X35747357Y-43432863D01*
X35762297Y-43472714D01*
X35767481Y-43543521D01*
X35733411Y-43606040D01*
X35009856Y-44329595D01*
X34947544Y-44363621D01*
X34920761Y-44366500D01*
X34613237Y-44366501D01*
X34593366Y-44366501D01*
X34590508Y-44366764D01*
X34590499Y-44366764D01*
X34554996Y-44370026D01*
X34519938Y-44373247D01*
X34513560Y-44375246D01*
X34513559Y-44375246D01*
X34363550Y-44422256D01*
X34363548Y-44422257D01*
X34356301Y-44424528D01*
X34209619Y-44513361D01*
X34088361Y-44634619D01*
X33999528Y-44781301D01*
X33948247Y-44944938D01*
X33941500Y-45018365D01*
X33941501Y-45531634D01*
X33941764Y-45534492D01*
X33941764Y-45534501D01*
X33945026Y-45570004D01*
X33948247Y-45605062D01*
X33950246Y-45611440D01*
X33950246Y-45611441D01*
X33983287Y-45716873D01*
X33999528Y-45768699D01*
X34088361Y-45915381D01*
X34209619Y-46036639D01*
X34356301Y-46125472D01*
X34363548Y-46127743D01*
X34363550Y-46127744D01*
X34429836Y-46148517D01*
X34519938Y-46176753D01*
X34593365Y-46183500D01*
X34596263Y-46183500D01*
X34925860Y-46183499D01*
X35256634Y-46183499D01*
X35259492Y-46183236D01*
X35259501Y-46183236D01*
X35295004Y-46179974D01*
X35330062Y-46176753D01*
X35336447Y-46174752D01*
X35486450Y-46127744D01*
X35486452Y-46127743D01*
X35493699Y-46125472D01*
X35640381Y-46036639D01*
X35761639Y-45915381D01*
X35850472Y-45768699D01*
X35901753Y-45605062D01*
X35908500Y-45531635D01*
X35908499Y-45204240D01*
X35928501Y-45136120D01*
X35945404Y-45115145D01*
X37220344Y-43840205D01*
X37282656Y-43806179D01*
X37309439Y-43803300D01*
X37596433Y-43803300D01*
X37658615Y-43796545D01*
X37795004Y-43745415D01*
X37911560Y-43658061D01*
X37940885Y-43618933D01*
X37997742Y-43576420D01*
X38041709Y-43568500D01*
X39428291Y-43568500D01*
X39496412Y-43588502D01*
X39529114Y-43618931D01*
X39558440Y-43658061D01*
X39674996Y-43745415D01*
X39811385Y-43796545D01*
X39873567Y-43803300D01*
X41279433Y-43803300D01*
X41341615Y-43796545D01*
X41478004Y-43745415D01*
X41594560Y-43658061D01*
X41681914Y-43541505D01*
X41733044Y-43405116D01*
X41739799Y-43342934D01*
X41739799Y-42577066D01*
X41733044Y-42514884D01*
X41681914Y-42378495D01*
X41594560Y-42261939D01*
X41478004Y-42174585D01*
X41341615Y-42123455D01*
X41279433Y-42116700D01*
X39873567Y-42116700D01*
X39811385Y-42123455D01*
X39674996Y-42174585D01*
X39558440Y-42261939D01*
X39529115Y-42301067D01*
X39472258Y-42343580D01*
X39428291Y-42351500D01*
X38041709Y-42351500D01*
X37973588Y-42331498D01*
X37940886Y-42301069D01*
X37911560Y-42261939D01*
X37795004Y-42174585D01*
X37658615Y-42123455D01*
X37596433Y-42116700D01*
X36315631Y-42116700D01*
X36247510Y-42096698D01*
X36208780Y-42057474D01*
X36197626Y-42039624D01*
X36074826Y-41915964D01*
X36041019Y-41853533D01*
X36046331Y-41782736D01*
X36089075Y-41726049D01*
X36155682Y-41701470D01*
X36177834Y-41701917D01*
X36190567Y-41703300D01*
X37596433Y-41703300D01*
X37658615Y-41696545D01*
X37795004Y-41645415D01*
X37911560Y-41558061D01*
X37940885Y-41518933D01*
X37997742Y-41476420D01*
X38041709Y-41468500D01*
X39428291Y-41468500D01*
X39496412Y-41488502D01*
X39529114Y-41518931D01*
X39558440Y-41558061D01*
X39674996Y-41645415D01*
X39811385Y-41696545D01*
X39873567Y-41703300D01*
X41279433Y-41703300D01*
X41341615Y-41696545D01*
X41478004Y-41645415D01*
X41594560Y-41558061D01*
X41622414Y-41520896D01*
X41679271Y-41478381D01*
X41706796Y-41471539D01*
X41729876Y-41468501D01*
X41729884Y-41468500D01*
X41729885Y-41468500D01*
X41829457Y-41455391D01*
X41840664Y-41453916D01*
X41840666Y-41453915D01*
X41848851Y-41452838D01*
X41996876Y-41391524D01*
X42092072Y-41318477D01*
X42092075Y-41318474D01*
X42123987Y-41293987D01*
X42129017Y-41287432D01*
X42143452Y-41268621D01*
X42154319Y-41256230D01*
X43576234Y-39834315D01*
X43588625Y-39823448D01*
X43607437Y-39809013D01*
X43613987Y-39803987D01*
X43638474Y-39772075D01*
X43638480Y-39772069D01*
X43706496Y-39683429D01*
X43706497Y-39683427D01*
X43711524Y-39676876D01*
X43742293Y-39602592D01*
X43772838Y-39528850D01*
X43788500Y-39409885D01*
X43788500Y-39409878D01*
X43793750Y-39370000D01*
X43789578Y-39338307D01*
X43788500Y-39321864D01*
X43788500Y-27988136D01*
X43789578Y-27971690D01*
X43792672Y-27948188D01*
X43793750Y-27940000D01*
X43788500Y-27900122D01*
X43788500Y-27900115D01*
X43772838Y-27781150D01*
X43764804Y-27761753D01*
X43743562Y-27710472D01*
X43711524Y-27633125D01*
X43706497Y-27626574D01*
X43706495Y-27626570D01*
X43691722Y-27607318D01*
X43638483Y-27537936D01*
X43638477Y-27537928D01*
X43638474Y-27537925D01*
X43613987Y-27506013D01*
X43607432Y-27500983D01*
X43588621Y-27486548D01*
X43576230Y-27475681D01*
X39259047Y-23158498D01*
X39225021Y-23096186D01*
X39230086Y-23025371D01*
X39272633Y-22968535D01*
X39339153Y-22943724D01*
X39393707Y-22951930D01*
G37*
%TD.AperFunction*%
%TA.AperFunction,Conductor*%
G36*
X35013627Y-22098920D02*
G01*
X35350312Y-22110677D01*
X35687005Y-22122435D01*
X35694010Y-22122875D01*
X36365017Y-22183942D01*
X36372003Y-22184775D01*
X37038551Y-22283202D01*
X37045481Y-22284424D01*
X37705481Y-22419903D01*
X37712331Y-22421509D01*
X37777321Y-22438680D01*
X37838072Y-22475420D01*
X37869317Y-22539172D01*
X37861134Y-22609695D01*
X37816123Y-22664600D01*
X37745135Y-22686500D01*
X36508498Y-22686500D01*
X36506050Y-22686693D01*
X36506042Y-22686693D01*
X36477579Y-22688933D01*
X36477574Y-22688934D01*
X36471169Y-22689438D01*
X36371231Y-22718472D01*
X36319012Y-22733643D01*
X36319010Y-22733644D01*
X36311399Y-22735855D01*
X36304572Y-22739892D01*
X36304573Y-22739892D01*
X36175020Y-22816509D01*
X36175017Y-22816511D01*
X36168193Y-22820547D01*
X36050547Y-22938193D01*
X36046511Y-22945017D01*
X36046509Y-22945020D01*
X36028365Y-22975700D01*
X35965855Y-23081399D01*
X35919438Y-23241169D01*
X35918934Y-23247574D01*
X35918933Y-23247579D01*
X35918050Y-23258801D01*
X35916500Y-23278498D01*
X35916500Y-23711502D01*
X35919438Y-23748831D01*
X35965855Y-23908601D01*
X36050547Y-24051807D01*
X36053229Y-24054489D01*
X36078502Y-24118861D01*
X36064600Y-24188484D01*
X36054428Y-24204312D01*
X36050547Y-24208193D01*
X35965855Y-24351399D01*
X35919438Y-24511169D01*
X35916500Y-24548498D01*
X35916500Y-24765761D01*
X35896498Y-24833882D01*
X35879595Y-24854856D01*
X34007988Y-26726463D01*
X33945676Y-26760489D01*
X33874861Y-26755424D01*
X33818025Y-26712877D01*
X33793214Y-26646357D01*
X33810440Y-26573229D01*
X33880108Y-26455427D01*
X33884145Y-26448601D01*
X33930562Y-26288831D01*
X33933500Y-26251502D01*
X33933500Y-25818498D01*
X33930562Y-25781169D01*
X33928769Y-25774997D01*
X33928768Y-25774992D01*
X33914847Y-25727077D01*
X33906911Y-25699761D01*
X33907114Y-25628766D01*
X33945668Y-25569149D01*
X34010332Y-25539841D01*
X34071826Y-25546511D01*
X34093168Y-25554448D01*
X34176995Y-25565633D01*
X34265980Y-25577507D01*
X34265984Y-25577507D01*
X34272961Y-25578438D01*
X34279972Y-25577800D01*
X34279976Y-25577800D01*
X34422459Y-25564832D01*
X34453600Y-25561998D01*
X34460302Y-25559820D01*
X34460304Y-25559820D01*
X34619409Y-25508124D01*
X34619412Y-25508123D01*
X34626108Y-25505947D01*
X34781912Y-25413069D01*
X34913266Y-25287982D01*
X35013643Y-25136902D01*
X35072675Y-24981502D01*
X35075555Y-24973920D01*
X35075556Y-24973918D01*
X35078055Y-24967338D01*
X35079035Y-24960366D01*
X35102748Y-24791639D01*
X35102748Y-24791636D01*
X35103299Y-24787717D01*
X35103616Y-24765000D01*
X35083397Y-24584745D01*
X35081080Y-24578091D01*
X35026064Y-24420106D01*
X35026062Y-24420103D01*
X35023745Y-24413448D01*
X34927626Y-24259624D01*
X34895627Y-24227401D01*
X34804778Y-24135915D01*
X34804774Y-24135912D01*
X34799815Y-24130918D01*
X34788697Y-24123862D01*
X34740538Y-24093300D01*
X34646666Y-24033727D01*
X34617463Y-24023328D01*
X34482425Y-23975243D01*
X34482420Y-23975242D01*
X34475790Y-23972881D01*
X34468802Y-23972048D01*
X34468799Y-23972047D01*
X34345698Y-23957368D01*
X34295680Y-23951404D01*
X34288677Y-23952140D01*
X34288676Y-23952140D01*
X34122288Y-23969628D01*
X34122286Y-23969629D01*
X34115288Y-23970364D01*
X34067991Y-23986465D01*
X33997060Y-23989483D01*
X33935756Y-23953673D01*
X33903545Y-23890404D01*
X33906390Y-23832035D01*
X33928767Y-23755011D01*
X33928768Y-23755007D01*
X33930562Y-23748831D01*
X33933500Y-23711502D01*
X33933500Y-23278498D01*
X33931950Y-23258801D01*
X33931067Y-23247579D01*
X33931066Y-23247574D01*
X33930562Y-23241169D01*
X33884145Y-23081399D01*
X33821635Y-22975700D01*
X33803491Y-22945020D01*
X33803489Y-22945017D01*
X33799453Y-22938193D01*
X33681807Y-22820547D01*
X33674983Y-22816511D01*
X33674980Y-22816509D01*
X33545427Y-22739892D01*
X33545428Y-22739892D01*
X33538601Y-22735855D01*
X33530990Y-22733644D01*
X33530988Y-22733643D01*
X33478769Y-22718472D01*
X33378831Y-22689438D01*
X33372426Y-22688934D01*
X33372421Y-22688933D01*
X33343958Y-22686693D01*
X33343950Y-22686693D01*
X33341502Y-22686500D01*
X32115568Y-22686500D01*
X32047447Y-22666498D01*
X32000954Y-22612842D01*
X31990850Y-22542568D01*
X32020344Y-22477988D01*
X32085086Y-22438243D01*
X32303638Y-22383752D01*
X32310510Y-22382241D01*
X32554592Y-22335679D01*
X32972368Y-22255984D01*
X32979282Y-22254865D01*
X33510821Y-22183942D01*
X33647142Y-22165753D01*
X33654139Y-22165017D01*
X34325952Y-22113324D01*
X34332979Y-22112981D01*
X34370666Y-22112192D01*
X35006591Y-22098871D01*
X35013627Y-22098920D01*
G37*
%TD.AperFunction*%
%TA.AperFunction,Conductor*%
G36*
X39092012Y-24713015D02*
G01*
X39098595Y-24719144D01*
X40860856Y-26481405D01*
X40894882Y-26543717D01*
X40889817Y-26614532D01*
X40847270Y-26671368D01*
X40780750Y-26696179D01*
X40771761Y-26696500D01*
X38908439Y-26696500D01*
X38840318Y-26676498D01*
X38793825Y-26622842D01*
X38783721Y-26552568D01*
X38799984Y-26506364D01*
X38834145Y-26448601D01*
X38880562Y-26288831D01*
X38883500Y-26251502D01*
X38883500Y-25818498D01*
X38880562Y-25781169D01*
X38834145Y-25621399D01*
X38749453Y-25478193D01*
X38746771Y-25475511D01*
X38721498Y-25411139D01*
X38735400Y-25341516D01*
X38745572Y-25325688D01*
X38749453Y-25321807D01*
X38834145Y-25178601D01*
X38880562Y-25018831D01*
X38883500Y-24981502D01*
X38883500Y-24808239D01*
X38903502Y-24740118D01*
X38957158Y-24693625D01*
X39027432Y-24683521D01*
X39092012Y-24713015D01*
G37*
%TD.AperFunction*%
%TD*%
%TA.AperFunction,NonConductor*%
G36*
X33799376Y-26725497D02*
G01*
X33843845Y-26780841D01*
X33851334Y-26851442D01*
X33816463Y-26917988D01*
X32169856Y-28564595D01*
X32107544Y-28598621D01*
X32080761Y-28601500D01*
X31849500Y-28601500D01*
X31781379Y-28581498D01*
X31734886Y-28527842D01*
X31723500Y-28475500D01*
X31723500Y-27332843D01*
X31743502Y-27264722D01*
X31760405Y-27243748D01*
X32123748Y-26880405D01*
X32186060Y-26846379D01*
X32212843Y-26843500D01*
X33341502Y-26843500D01*
X33343950Y-26843307D01*
X33343958Y-26843307D01*
X33372421Y-26841067D01*
X33372426Y-26841066D01*
X33378831Y-26840562D01*
X33478769Y-26811528D01*
X33530988Y-26796357D01*
X33530990Y-26796356D01*
X33538601Y-26794145D01*
X33663229Y-26720440D01*
X33732045Y-26702980D01*
X33799376Y-26725497D01*
G37*
%TD.AperFunction*%
%TA.AperFunction,NonConductor*%
G36*
X41028527Y-29228502D02*
G01*
X41049501Y-29245405D01*
X41103935Y-29299839D01*
X41137961Y-29362151D01*
X41132896Y-29432966D01*
X41090349Y-29489802D01*
X41054717Y-29508457D01*
X40898151Y-29560692D01*
X40753945Y-29649929D01*
X40729113Y-29674805D01*
X40666832Y-29708884D01*
X40596012Y-29703882D01*
X40550922Y-29674960D01*
X40530233Y-29654307D01*
X40525053Y-29649136D01*
X40517015Y-29644181D01*
X40438683Y-29595897D01*
X40380692Y-29560151D01*
X40369251Y-29556356D01*
X40226262Y-29508928D01*
X40226260Y-29508928D01*
X40219731Y-29506762D01*
X40119572Y-29496500D01*
X39585428Y-29496500D01*
X39582182Y-29496837D01*
X39582178Y-29496837D01*
X39548397Y-29500342D01*
X39484018Y-29507022D01*
X39323151Y-29560692D01*
X39178945Y-29649929D01*
X39059136Y-29769947D01*
X39055296Y-29776177D01*
X39055295Y-29776178D01*
X39048861Y-29786616D01*
X38996088Y-29834110D01*
X38941601Y-29846500D01*
X38537225Y-29846500D01*
X38469104Y-29826498D01*
X38429449Y-29785771D01*
X38420576Y-29771120D01*
X38416639Y-29764619D01*
X38295381Y-29643361D01*
X38148699Y-29554528D01*
X38141452Y-29552257D01*
X38141450Y-29552256D01*
X38075164Y-29531483D01*
X37985062Y-29503247D01*
X37911635Y-29496500D01*
X37908737Y-29496500D01*
X37654335Y-29496501D01*
X37398366Y-29496501D01*
X37395508Y-29496764D01*
X37395499Y-29496764D01*
X37359996Y-29500026D01*
X37324938Y-29503247D01*
X37318560Y-29505246D01*
X37318559Y-29505246D01*
X37168550Y-29552256D01*
X37168548Y-29552257D01*
X37161301Y-29554528D01*
X37014619Y-29643361D01*
X36919095Y-29738885D01*
X36856783Y-29772911D01*
X36785968Y-29767846D01*
X36740905Y-29738885D01*
X36645381Y-29643361D01*
X36498699Y-29554528D01*
X36498231Y-29554381D01*
X36446675Y-29510094D01*
X36426381Y-29442060D01*
X36446091Y-29373854D01*
X36499546Y-29327131D01*
X36513435Y-29321689D01*
X36531108Y-29315947D01*
X36681540Y-29226271D01*
X36746058Y-29208500D01*
X40960406Y-29208500D01*
X41028527Y-29228502D01*
G37*
%TD.AperFunction*%
%TA.AperFunction,NonConductor*%
G36*
X34692320Y-29351117D02*
G01*
X34721563Y-29361992D01*
X34721566Y-29361993D01*
X34728168Y-29364448D01*
X34735151Y-29365380D01*
X34735152Y-29365380D01*
X34842165Y-29379659D01*
X34907042Y-29408495D01*
X34946030Y-29467828D01*
X34951500Y-29504552D01*
X34951500Y-29923237D01*
X34931498Y-29991358D01*
X34877842Y-30037851D01*
X34807568Y-30047955D01*
X34742988Y-30018461D01*
X34705978Y-29963115D01*
X34689308Y-29913151D01*
X34600071Y-29768945D01*
X34480053Y-29649136D01*
X34480776Y-29648411D01*
X34443539Y-29595897D01*
X34440302Y-29524974D01*
X34473596Y-29465830D01*
X34559306Y-29380120D01*
X34621618Y-29346094D01*
X34692320Y-29351117D01*
G37*
%TD.AperFunction*%
%TA.AperFunction,NonConductor*%
G36*
X31073092Y-22798879D02*
G01*
X31107058Y-22861224D01*
X31101926Y-22932035D01*
X31092370Y-22952019D01*
X31015855Y-23081399D01*
X30969438Y-23241169D01*
X30967925Y-23260391D01*
X30966663Y-23276426D01*
X30941377Y-23342767D01*
X30884238Y-23384906D01*
X30813388Y-23389465D01*
X30798784Y-23385238D01*
X30672425Y-23340243D01*
X30672420Y-23340242D01*
X30665790Y-23337881D01*
X30658802Y-23337048D01*
X30658799Y-23337047D01*
X30535698Y-23322368D01*
X30485680Y-23316404D01*
X30478677Y-23317140D01*
X30478676Y-23317140D01*
X30312288Y-23334628D01*
X30312286Y-23334629D01*
X30305288Y-23335364D01*
X30133579Y-23393818D01*
X30127575Y-23397512D01*
X29985095Y-23485166D01*
X29985092Y-23485168D01*
X29979088Y-23488862D01*
X29974053Y-23493793D01*
X29974050Y-23493795D01*
X29902178Y-23564178D01*
X29849493Y-23615771D01*
X29751235Y-23768238D01*
X29748825Y-23774858D01*
X29748825Y-23774859D01*
X29737910Y-23804848D01*
X29708604Y-23850847D01*
X29294856Y-24264595D01*
X29232544Y-24298621D01*
X29205761Y-24301500D01*
X28898237Y-24301501D01*
X28878366Y-24301501D01*
X28875508Y-24301764D01*
X28875499Y-24301764D01*
X28839996Y-24305026D01*
X28804938Y-24308247D01*
X28798560Y-24310246D01*
X28798559Y-24310246D01*
X28648550Y-24357256D01*
X28648548Y-24357257D01*
X28641301Y-24359528D01*
X28494619Y-24448361D01*
X28373361Y-24569619D01*
X28284528Y-24716301D01*
X28282257Y-24723548D01*
X28282256Y-24723550D01*
X28269028Y-24765761D01*
X28233247Y-24879938D01*
X28226500Y-24953365D01*
X28226501Y-25466634D01*
X28233247Y-25540062D01*
X28235246Y-25546440D01*
X28235246Y-25546441D01*
X28258737Y-25621399D01*
X28284528Y-25703699D01*
X28373361Y-25850381D01*
X28468885Y-25945905D01*
X28502911Y-26008217D01*
X28497846Y-26079032D01*
X28468885Y-26124095D01*
X28373361Y-26219619D01*
X28284528Y-26366301D01*
X28233247Y-26529938D01*
X28226500Y-26603365D01*
X28226500Y-26740761D01*
X28206498Y-26808882D01*
X28189595Y-26829856D01*
X24311443Y-30708008D01*
X24249131Y-30742034D01*
X24209178Y-30744223D01*
X24143204Y-30737289D01*
X24143202Y-30737289D01*
X24137075Y-30736645D01*
X24077860Y-30742034D01*
X23946251Y-30754011D01*
X23946248Y-30754012D01*
X23940112Y-30754570D01*
X23934206Y-30756308D01*
X23934202Y-30756309D01*
X23849103Y-30781355D01*
X23750381Y-30810410D01*
X23744923Y-30813263D01*
X23744919Y-30813265D01*
X23654147Y-30860720D01*
X23575110Y-30902040D01*
X23420975Y-31025968D01*
X23419646Y-31024315D01*
X23365485Y-31053161D01*
X23294726Y-31047359D01*
X23238336Y-31004223D01*
X23214219Y-30937448D01*
X23218393Y-30896733D01*
X23252917Y-30769662D01*
X23254951Y-30762925D01*
X23257731Y-30754570D01*
X23467623Y-30123610D01*
X23470029Y-30116998D01*
X23718068Y-29490526D01*
X23720840Y-29484059D01*
X24003455Y-28872423D01*
X24006584Y-28866121D01*
X24322901Y-28271215D01*
X24326368Y-28265111D01*
X24675410Y-27688772D01*
X24679221Y-27682859D01*
X25059885Y-27126914D01*
X25064021Y-27121222D01*
X25475114Y-26587407D01*
X25479561Y-26581954D01*
X25659450Y-26373550D01*
X25919823Y-26071906D01*
X25924561Y-26066716D01*
X26041227Y-25945905D01*
X26392624Y-25582023D01*
X26397635Y-25577116D01*
X26892009Y-25119322D01*
X26897303Y-25114687D01*
X27013173Y-25018831D01*
X27416456Y-24685206D01*
X27421978Y-24680892D01*
X27964330Y-24281035D01*
X27970101Y-24277025D01*
X27987564Y-24265598D01*
X28431273Y-23975243D01*
X28533880Y-23908099D01*
X28539873Y-23904412D01*
X29123378Y-23567525D01*
X29129568Y-23564178D01*
X29730965Y-23260391D01*
X29737331Y-23257395D01*
X30354757Y-22987648D01*
X30361281Y-22985012D01*
X30939992Y-22769792D01*
X31010813Y-22764795D01*
X31073092Y-22798879D01*
G37*
%TD.AperFunction*%
%TA.AperFunction,NonConductor*%
G36*
X28128365Y-31463500D02*
G01*
X28138440Y-31463500D01*
X28450501Y-31463499D01*
X28518620Y-31483501D01*
X28565113Y-31537156D01*
X28576500Y-31589499D01*
X28576500Y-31910500D01*
X28556498Y-31978621D01*
X28502842Y-32025114D01*
X28450501Y-32036500D01*
X28354151Y-32036501D01*
X28314240Y-32036501D01*
X28246120Y-32016499D01*
X28225145Y-31999596D01*
X27950405Y-31724856D01*
X27916379Y-31662544D01*
X27913500Y-31635761D01*
X27913500Y-31581441D01*
X27933502Y-31513320D01*
X27987158Y-31466827D01*
X28054732Y-31458997D01*
X28054938Y-31456753D01*
X28128365Y-31463500D01*
G37*
%TD.AperFunction*%
%TA.AperFunction,NonConductor*%
G36*
X34962012Y-30216246D02*
G01*
X34995909Y-30263252D01*
X35028476Y-30341876D01*
X35033503Y-30348427D01*
X35070463Y-30396595D01*
X35096063Y-30462816D01*
X35096500Y-30473299D01*
X35096501Y-30659144D01*
X35096501Y-30811634D01*
X35103247Y-30885062D01*
X35105246Y-30891440D01*
X35105246Y-30891441D01*
X35116146Y-30926221D01*
X35154528Y-31048699D01*
X35243361Y-31195381D01*
X35364619Y-31316639D01*
X35511301Y-31405472D01*
X35518548Y-31407743D01*
X35518550Y-31407744D01*
X35568078Y-31423265D01*
X35674938Y-31456753D01*
X35748365Y-31463500D01*
X35751263Y-31463500D01*
X36005665Y-31463499D01*
X36261634Y-31463499D01*
X36264492Y-31463236D01*
X36264501Y-31463236D01*
X36300004Y-31459974D01*
X36335062Y-31456753D01*
X36341447Y-31454752D01*
X36491450Y-31407744D01*
X36491452Y-31407743D01*
X36498699Y-31405472D01*
X36645381Y-31316639D01*
X36740905Y-31221115D01*
X36803217Y-31187089D01*
X36874032Y-31192154D01*
X36919095Y-31221115D01*
X36919442Y-31221462D01*
X36953468Y-31283774D01*
X36948403Y-31354589D01*
X36919442Y-31399652D01*
X36319499Y-31999595D01*
X36257187Y-32033621D01*
X36230404Y-32036500D01*
X35775428Y-32036500D01*
X35772182Y-32036837D01*
X35772178Y-32036837D01*
X35740886Y-32040084D01*
X35674018Y-32047022D01*
X35513151Y-32100692D01*
X35368945Y-32189929D01*
X35249136Y-32309947D01*
X35245296Y-32316177D01*
X35245295Y-32316178D01*
X35238861Y-32326616D01*
X35186088Y-32374110D01*
X35131601Y-32386500D01*
X34718266Y-32386500D01*
X34650145Y-32366498D01*
X34611121Y-32326802D01*
X34603923Y-32315170D01*
X34600071Y-32308945D01*
X34480053Y-32189136D01*
X34481882Y-32187304D01*
X34447840Y-32139277D01*
X34441000Y-32098327D01*
X34441000Y-31401647D01*
X34461002Y-31333526D01*
X34481680Y-31310694D01*
X34481055Y-31310071D01*
X34595693Y-31195233D01*
X34600864Y-31190053D01*
X34689849Y-31045692D01*
X34703604Y-31004223D01*
X34741072Y-30891262D01*
X34741072Y-30891260D01*
X34743238Y-30884731D01*
X34753500Y-30784572D01*
X34753500Y-30311470D01*
X34773502Y-30243349D01*
X34827158Y-30196856D01*
X34897432Y-30186752D01*
X34962012Y-30216246D01*
G37*
%TD.AperFunction*%
%TA.AperFunction,NonConductor*%
G36*
X39009855Y-31133502D02*
G01*
X39048879Y-31173198D01*
X39059929Y-31191055D01*
X39179947Y-31310864D01*
X39324308Y-31399849D01*
X39331256Y-31402154D01*
X39331257Y-31402154D01*
X39478738Y-31451072D01*
X39478740Y-31451072D01*
X39485269Y-31453238D01*
X39585428Y-31463500D01*
X40119572Y-31463500D01*
X40122818Y-31463163D01*
X40122822Y-31463163D01*
X40162971Y-31458997D01*
X40220982Y-31452978D01*
X40381849Y-31399308D01*
X40526055Y-31310071D01*
X40550887Y-31285195D01*
X40613168Y-31251116D01*
X40683988Y-31256118D01*
X40729078Y-31285040D01*
X40754947Y-31310864D01*
X40753118Y-31312696D01*
X40787160Y-31360723D01*
X40794000Y-31401673D01*
X40794000Y-32098353D01*
X40773998Y-32166474D01*
X40753321Y-32189305D01*
X40753946Y-32189928D01*
X40753945Y-32189929D01*
X40729113Y-32214805D01*
X40666832Y-32248884D01*
X40596012Y-32243882D01*
X40550922Y-32214960D01*
X40530233Y-32194307D01*
X40525053Y-32189136D01*
X40380692Y-32100151D01*
X40373743Y-32097846D01*
X40226262Y-32048928D01*
X40226260Y-32048928D01*
X40219731Y-32046762D01*
X40119572Y-32036500D01*
X39585428Y-32036500D01*
X39582182Y-32036837D01*
X39582178Y-32036837D01*
X39550886Y-32040084D01*
X39484018Y-32047022D01*
X39323151Y-32100692D01*
X39178945Y-32189929D01*
X39059136Y-32309947D01*
X39055296Y-32316177D01*
X39055295Y-32316178D01*
X39048861Y-32326616D01*
X38996088Y-32374110D01*
X38941601Y-32386500D01*
X38528266Y-32386500D01*
X38460145Y-32366498D01*
X38421121Y-32326802D01*
X38413923Y-32315170D01*
X38410071Y-32308945D01*
X38290053Y-32189136D01*
X38255021Y-32167542D01*
X38195452Y-32130823D01*
X38147959Y-32078051D01*
X38136535Y-32007979D01*
X38162479Y-31948222D01*
X38161501Y-31947511D01*
X38164698Y-31943111D01*
X38164809Y-31942855D01*
X38165227Y-31942383D01*
X38166159Y-31941100D01*
X38171586Y-31935321D01*
X38175405Y-31928375D01*
X38175407Y-31928372D01*
X38181348Y-31917566D01*
X38192199Y-31901047D01*
X38199758Y-31891301D01*
X38204614Y-31885041D01*
X38207759Y-31877772D01*
X38207762Y-31877768D01*
X38222174Y-31844463D01*
X38227391Y-31833813D01*
X38248695Y-31795060D01*
X38253733Y-31775437D01*
X38260137Y-31756734D01*
X38265033Y-31745420D01*
X38265033Y-31745419D01*
X38268181Y-31738145D01*
X38269420Y-31730322D01*
X38269423Y-31730312D01*
X38275099Y-31694476D01*
X38277505Y-31682856D01*
X38286528Y-31647711D01*
X38286528Y-31647710D01*
X38288500Y-31640030D01*
X38288500Y-31619776D01*
X38290051Y-31600065D01*
X38291980Y-31587886D01*
X38293220Y-31580057D01*
X38289059Y-31536038D01*
X38288500Y-31524181D01*
X38288500Y-31375710D01*
X38308502Y-31307589D01*
X38325405Y-31286615D01*
X38416639Y-31195381D01*
X38429449Y-31174229D01*
X38481846Y-31126322D01*
X38537225Y-31113500D01*
X38941734Y-31113500D01*
X39009855Y-31133502D01*
G37*
%TD.AperFunction*%
%TA.AperFunction,NonConductor*%
G36*
X31389855Y-31133502D02*
G01*
X31428879Y-31173198D01*
X31439929Y-31191055D01*
X31559947Y-31310864D01*
X31704308Y-31399849D01*
X31711256Y-31402154D01*
X31711257Y-31402154D01*
X31858738Y-31451072D01*
X31858740Y-31451072D01*
X31865269Y-31453238D01*
X31965428Y-31463500D01*
X32260500Y-31463500D01*
X32328621Y-31483502D01*
X32375114Y-31537158D01*
X32386500Y-31589500D01*
X32386500Y-31910500D01*
X32366498Y-31978621D01*
X32312842Y-32025114D01*
X32260500Y-32036500D01*
X31965428Y-32036500D01*
X31962182Y-32036837D01*
X31962178Y-32036837D01*
X31930886Y-32040084D01*
X31864018Y-32047022D01*
X31703151Y-32100692D01*
X31558945Y-32189929D01*
X31439136Y-32309947D01*
X31435296Y-32316177D01*
X31435295Y-32316178D01*
X31428861Y-32326616D01*
X31376088Y-32374110D01*
X31321601Y-32386500D01*
X30917225Y-32386500D01*
X30849104Y-32366498D01*
X30809449Y-32325771D01*
X30800576Y-32311120D01*
X30796639Y-32304619D01*
X30675381Y-32183361D01*
X30528699Y-32094528D01*
X30521452Y-32092257D01*
X30521450Y-32092256D01*
X30410246Y-32057407D01*
X30365062Y-32043247D01*
X30291635Y-32036500D01*
X30281560Y-32036500D01*
X29969499Y-32036501D01*
X29901380Y-32016499D01*
X29854887Y-31962844D01*
X29843500Y-31910501D01*
X29843500Y-31619594D01*
X29863502Y-31551473D01*
X29880405Y-31530499D01*
X29910499Y-31500405D01*
X29972811Y-31466379D01*
X29999594Y-31463500D01*
X30273614Y-31463499D01*
X30291634Y-31463499D01*
X30294492Y-31463236D01*
X30294501Y-31463236D01*
X30330004Y-31459974D01*
X30365062Y-31456753D01*
X30371447Y-31454752D01*
X30521450Y-31407744D01*
X30521452Y-31407743D01*
X30528699Y-31405472D01*
X30675381Y-31316639D01*
X30796639Y-31195381D01*
X30809449Y-31174229D01*
X30861846Y-31126322D01*
X30917225Y-31113500D01*
X31321734Y-31113500D01*
X31389855Y-31133502D01*
G37*
%TD.AperFunction*%
%TA.AperFunction,NonConductor*%
G36*
X28518620Y-34023501D02*
G01*
X28565113Y-34077156D01*
X28576500Y-34129499D01*
X28576500Y-34396761D01*
X28556498Y-34464882D01*
X28502842Y-34511375D01*
X28432568Y-34521479D01*
X28367988Y-34491985D01*
X28361405Y-34485856D01*
X28094144Y-34218595D01*
X28060118Y-34156283D01*
X28065183Y-34085468D01*
X28107730Y-34028632D01*
X28174250Y-34003821D01*
X28183239Y-34003500D01*
X28264321Y-34003500D01*
X28450501Y-34003499D01*
X28518620Y-34023501D01*
G37*
%TD.AperFunction*%
%TA.AperFunction,NonConductor*%
G36*
X40683988Y-33796118D02*
G01*
X40729078Y-33825040D01*
X40754947Y-33850864D01*
X40753118Y-33852696D01*
X40787160Y-33900723D01*
X40794000Y-33941673D01*
X40794000Y-34638353D01*
X40773998Y-34706474D01*
X40753321Y-34729305D01*
X40753946Y-34729928D01*
X40753945Y-34729929D01*
X40729113Y-34754805D01*
X40666832Y-34788884D01*
X40596012Y-34783882D01*
X40550922Y-34754960D01*
X40525053Y-34729136D01*
X40526882Y-34727304D01*
X40492840Y-34679277D01*
X40486000Y-34638327D01*
X40486000Y-33941647D01*
X40506002Y-33873526D01*
X40526679Y-33850695D01*
X40526054Y-33850072D01*
X40531224Y-33844893D01*
X40550887Y-33825195D01*
X40613168Y-33791116D01*
X40683988Y-33796118D01*
G37*
%TD.AperFunction*%
%TA.AperFunction,NonConductor*%
G36*
X31389855Y-33673502D02*
G01*
X31428879Y-33713198D01*
X31439929Y-33731055D01*
X31559947Y-33850864D01*
X31566177Y-33854704D01*
X31566178Y-33854705D01*
X31575703Y-33860576D01*
X31704308Y-33939849D01*
X31711256Y-33942154D01*
X31711257Y-33942154D01*
X31858738Y-33991072D01*
X31858740Y-33991072D01*
X31865269Y-33993238D01*
X31965428Y-34003500D01*
X32499572Y-34003500D01*
X32502818Y-34003163D01*
X32502822Y-34003163D01*
X32536603Y-33999658D01*
X32600982Y-33992978D01*
X32761849Y-33939308D01*
X32906055Y-33850071D01*
X32930887Y-33825195D01*
X32993168Y-33791116D01*
X33063988Y-33796118D01*
X33109078Y-33825040D01*
X33134947Y-33850864D01*
X33141177Y-33854704D01*
X33141178Y-33854705D01*
X33150703Y-33860576D01*
X33279308Y-33939849D01*
X33286256Y-33942154D01*
X33286257Y-33942154D01*
X33433738Y-33991072D01*
X33433740Y-33991072D01*
X33440269Y-33993238D01*
X33540428Y-34003500D01*
X34074572Y-34003500D01*
X34077818Y-34003163D01*
X34077822Y-34003163D01*
X34111603Y-33999658D01*
X34175982Y-33992978D01*
X34336849Y-33939308D01*
X34481055Y-33850071D01*
X34600864Y-33730053D01*
X34611139Y-33713384D01*
X34663912Y-33665890D01*
X34718399Y-33653500D01*
X35131734Y-33653500D01*
X35199855Y-33673502D01*
X35238879Y-33713198D01*
X35249929Y-33731055D01*
X35255110Y-33736227D01*
X35369947Y-33850864D01*
X35368118Y-33852696D01*
X35402160Y-33900723D01*
X35409000Y-33941673D01*
X35409000Y-34638353D01*
X35388998Y-34706474D01*
X35368320Y-34729306D01*
X35368945Y-34729929D01*
X35249136Y-34849947D01*
X35245296Y-34856177D01*
X35245295Y-34856178D01*
X35238861Y-34866616D01*
X35186088Y-34914110D01*
X35131601Y-34926500D01*
X34718266Y-34926500D01*
X34650145Y-34906498D01*
X34611121Y-34866802D01*
X34603923Y-34855170D01*
X34600071Y-34848945D01*
X34480053Y-34729136D01*
X34335692Y-34640151D01*
X34328743Y-34637846D01*
X34181262Y-34588928D01*
X34181260Y-34588928D01*
X34174731Y-34586762D01*
X34074572Y-34576500D01*
X33540428Y-34576500D01*
X33537182Y-34576837D01*
X33537178Y-34576837D01*
X33503397Y-34580342D01*
X33439018Y-34587022D01*
X33278151Y-34640692D01*
X33133945Y-34729929D01*
X33109113Y-34754805D01*
X33046832Y-34788884D01*
X32976012Y-34783882D01*
X32930922Y-34754960D01*
X32910233Y-34734307D01*
X32905053Y-34729136D01*
X32760692Y-34640151D01*
X32753743Y-34637846D01*
X32606262Y-34588928D01*
X32606260Y-34588928D01*
X32599731Y-34586762D01*
X32499572Y-34576500D01*
X31965428Y-34576500D01*
X31962182Y-34576837D01*
X31962178Y-34576837D01*
X31928397Y-34580342D01*
X31864018Y-34587022D01*
X31703151Y-34640692D01*
X31558945Y-34729929D01*
X31439136Y-34849947D01*
X31350151Y-34994308D01*
X31347846Y-35001256D01*
X31347846Y-35001257D01*
X31298988Y-35148559D01*
X31296762Y-35155269D01*
X31286500Y-35255428D01*
X31286500Y-35710405D01*
X31266498Y-35778526D01*
X31249595Y-35799500D01*
X31204095Y-35845000D01*
X31141783Y-35879026D01*
X31070968Y-35873961D01*
X31025905Y-35845000D01*
X30980405Y-35799500D01*
X30946379Y-35737188D01*
X30943500Y-35710405D01*
X30943499Y-35231249D01*
X30943499Y-35228366D01*
X30936753Y-35154938D01*
X30885472Y-34991301D01*
X30796639Y-34844619D01*
X30675381Y-34723361D01*
X30528699Y-34634528D01*
X30521452Y-34632257D01*
X30521450Y-34632256D01*
X30455164Y-34611483D01*
X30365062Y-34583247D01*
X30291635Y-34576500D01*
X30281560Y-34576500D01*
X29969499Y-34576501D01*
X29901380Y-34556499D01*
X29854887Y-34502844D01*
X29843500Y-34450501D01*
X29843500Y-34129500D01*
X29863502Y-34061379D01*
X29917158Y-34014886D01*
X29969500Y-34003500D01*
X30281610Y-34003499D01*
X30291634Y-34003499D01*
X30294492Y-34003236D01*
X30294501Y-34003236D01*
X30330004Y-33999974D01*
X30365062Y-33996753D01*
X30371441Y-33994754D01*
X30521450Y-33947744D01*
X30521452Y-33947743D01*
X30528699Y-33945472D01*
X30675381Y-33856639D01*
X30796639Y-33735381D01*
X30809449Y-33714229D01*
X30861846Y-33666322D01*
X30917225Y-33653500D01*
X31321734Y-33653500D01*
X31389855Y-33673502D01*
G37*
%TD.AperFunction*%
%TA.AperFunction,NonConductor*%
G36*
X30052012Y-36663370D02*
G01*
X30058595Y-36669499D01*
X30290501Y-36901405D01*
X30324527Y-36963717D01*
X30319462Y-37034532D01*
X30276915Y-37091368D01*
X30210395Y-37116179D01*
X30201406Y-37116500D01*
X29969500Y-37116500D01*
X29901379Y-37096498D01*
X29854886Y-37042842D01*
X29843500Y-36990500D01*
X29843500Y-36758594D01*
X29863502Y-36690473D01*
X29917158Y-36643980D01*
X29987432Y-36633876D01*
X30052012Y-36663370D01*
G37*
%TD.AperFunction*%
%TA.AperFunction,NonConductor*%
G36*
X39009855Y-33673502D02*
G01*
X39048879Y-33713198D01*
X39059929Y-33731055D01*
X39065110Y-33736227D01*
X39179947Y-33850864D01*
X39178118Y-33852696D01*
X39212160Y-33900723D01*
X39219000Y-33941673D01*
X39219000Y-34638353D01*
X39198998Y-34706474D01*
X39178320Y-34729306D01*
X39178945Y-34729929D01*
X39059136Y-34849947D01*
X38970151Y-34994308D01*
X38967846Y-35001256D01*
X38967846Y-35001257D01*
X38918988Y-35148559D01*
X38916762Y-35155269D01*
X38906500Y-35255428D01*
X38906500Y-35864572D01*
X38917022Y-35965982D01*
X38970692Y-36126849D01*
X39059929Y-36271055D01*
X39179947Y-36390864D01*
X39186177Y-36394704D01*
X39186178Y-36394705D01*
X39193573Y-36399263D01*
X39324308Y-36479849D01*
X39331256Y-36482154D01*
X39331257Y-36482154D01*
X39478738Y-36531072D01*
X39478740Y-36531072D01*
X39485269Y-36533238D01*
X39585428Y-36543500D01*
X40119572Y-36543500D01*
X40122818Y-36543163D01*
X40122822Y-36543163D01*
X40156603Y-36539658D01*
X40220982Y-36532978D01*
X40381849Y-36479308D01*
X40526055Y-36390071D01*
X40550887Y-36365195D01*
X40613168Y-36331116D01*
X40683988Y-36336118D01*
X40729078Y-36365040D01*
X40754947Y-36390864D01*
X40753118Y-36392696D01*
X40787160Y-36440723D01*
X40794000Y-36481673D01*
X40794000Y-37178353D01*
X40773998Y-37246474D01*
X40753321Y-37269305D01*
X40753946Y-37269928D01*
X40753945Y-37269929D01*
X40729113Y-37294805D01*
X40666832Y-37328884D01*
X40596012Y-37323882D01*
X40550922Y-37294960D01*
X40530233Y-37274307D01*
X40525053Y-37269136D01*
X40512711Y-37261528D01*
X40441178Y-37217435D01*
X40380692Y-37180151D01*
X40336500Y-37165493D01*
X40226262Y-37128928D01*
X40226260Y-37128928D01*
X40219731Y-37126762D01*
X40119572Y-37116500D01*
X39585428Y-37116500D01*
X39582182Y-37116837D01*
X39582178Y-37116837D01*
X39550799Y-37120093D01*
X39484018Y-37127022D01*
X39323151Y-37180692D01*
X39178945Y-37269929D01*
X39059136Y-37389947D01*
X39055295Y-37396178D01*
X39055293Y-37396181D01*
X39034160Y-37430465D01*
X38981388Y-37477959D01*
X38910455Y-37489272D01*
X38887500Y-37486250D01*
X38855807Y-37490422D01*
X38839364Y-37491500D01*
X38543736Y-37491500D01*
X38475615Y-37471498D01*
X38436593Y-37431804D01*
X38410071Y-37388945D01*
X38290053Y-37269136D01*
X38283822Y-37265295D01*
X38278077Y-37260758D01*
X38279282Y-37259232D01*
X38238389Y-37213790D01*
X38226000Y-37159306D01*
X38226000Y-36500532D01*
X38246002Y-36432411D01*
X38279719Y-36399263D01*
X38279092Y-36398472D01*
X38284835Y-36393920D01*
X38291055Y-36390071D01*
X38410864Y-36270053D01*
X38499849Y-36125692D01*
X38545942Y-35986729D01*
X38551072Y-35971262D01*
X38551072Y-35971260D01*
X38553238Y-35964731D01*
X38563500Y-35864572D01*
X38563500Y-35255428D01*
X38552978Y-35154018D01*
X38499308Y-34993151D01*
X38410071Y-34848945D01*
X38290053Y-34729136D01*
X38145692Y-34640151D01*
X38138743Y-34637846D01*
X37991262Y-34588928D01*
X37991260Y-34588928D01*
X37984731Y-34586762D01*
X37884572Y-34576500D01*
X37589500Y-34576500D01*
X37521379Y-34556498D01*
X37474886Y-34502842D01*
X37463500Y-34450500D01*
X37463500Y-34129500D01*
X37483502Y-34061379D01*
X37537158Y-34014886D01*
X37589500Y-34003500D01*
X37884572Y-34003500D01*
X37887818Y-34003163D01*
X37887822Y-34003163D01*
X37921603Y-33999658D01*
X37985982Y-33992978D01*
X38146849Y-33939308D01*
X38291055Y-33850071D01*
X38410864Y-33730053D01*
X38421139Y-33713384D01*
X38473912Y-33665890D01*
X38528399Y-33653500D01*
X38941734Y-33653500D01*
X39009855Y-33673502D01*
G37*
%TD.AperFunction*%
%TA.AperFunction,NonConductor*%
G36*
X29429255Y-38995160D02*
G01*
X29469308Y-39019849D01*
X29476256Y-39022154D01*
X29476257Y-39022154D01*
X29623738Y-39071072D01*
X29623740Y-39071072D01*
X29630269Y-39073238D01*
X29637113Y-39073939D01*
X29643839Y-39075381D01*
X29643383Y-39077508D01*
X29699545Y-39100449D01*
X29710062Y-39109850D01*
X29781617Y-39181405D01*
X29815643Y-39243717D01*
X29810578Y-39314532D01*
X29768031Y-39371368D01*
X29701511Y-39396179D01*
X29692522Y-39396500D01*
X29531219Y-39396500D01*
X29463098Y-39376498D01*
X29442124Y-39359595D01*
X29274044Y-39191515D01*
X29240018Y-39129203D01*
X29245083Y-39058388D01*
X29287630Y-39001552D01*
X29354150Y-38976741D01*
X29429255Y-38995160D01*
G37*
%TD.AperFunction*%
%TA.AperFunction,NonConductor*%
G36*
X33063988Y-38876118D02*
G01*
X33109078Y-38905040D01*
X33134947Y-38930864D01*
X33141177Y-38934704D01*
X33141178Y-38934705D01*
X33151014Y-38940768D01*
X33279308Y-39019849D01*
X33440269Y-39073238D01*
X33447106Y-39073938D01*
X33449930Y-39074544D01*
X33512344Y-39108381D01*
X33546556Y-39170591D01*
X33541704Y-39241422D01*
X33512612Y-39286839D01*
X33439856Y-39359595D01*
X33377544Y-39393621D01*
X33350761Y-39396500D01*
X32537478Y-39396500D01*
X32469357Y-39376498D01*
X32422864Y-39322842D01*
X32412760Y-39252568D01*
X32442254Y-39187988D01*
X32448383Y-39181405D01*
X32520079Y-39109709D01*
X32582391Y-39075683D01*
X32592066Y-39074134D01*
X32594123Y-39073690D01*
X32600982Y-39072978D01*
X32761849Y-39019308D01*
X32906055Y-38930071D01*
X32930887Y-38905195D01*
X32993168Y-38871116D01*
X33063988Y-38876118D01*
G37*
%TD.AperFunction*%
M02*
